<?xml version="1.0" standalone="no"?>
<!DOCTYPE svg PUBLIC "-//W3C//DTD SVG 1.1//EN" "http://www.w3.org/Graphics/SVG/1.1/DTD/svg11.dtd" >
<svg>
<metadata>
Created by FontForge 20090914 at Sun Oct  6 04:48:28 2013
 By www-data
4.1 (c)1986-92 by Richard A. Ware. All Rights Reserved.
</metadata>
<defs>
<font id="AlexandriaFLF" horiz-adv-x="276" >
  <font-face 
    font-family="AlexandriaFLF"
    font-weight="500"
    font-stretch="normal"
    units-per-em="1000"
    panose-1="2 0 6 3 7 0 0 2 0 4"
    ascent="800"
    descent="-200"
    x-height="515"
    cap-height="714"
    bbox="-19 -203 1259 897"
    underline-thickness="19"
    underline-position="-124"
    unicode-range="U+0005-U+E012"
  />
<missing-glyph horiz-adv-x="500" 
 />
    <glyph glyph-name=".notdef" horiz-adv-x="500" 
 />
    <glyph glyph-name="breve" horiz-adv-x="362" 
d="M189 629c21.333 0 41.1689 4.49902 59.502 13.499s34.166 21.167 47.499 36.5l-18 22c-12 -13.333 -25.833 -23.333 -41.5 -30s-31.5 -10 -47.5 -10c-16.667 0 -32 3.83301 -46 11.5s-27.667 17.834 -41 30.501l-21 -24c13.333 -14.667 29.166 -26.667 47.499 -36
s38.5 -14 60.5 -14z" />
    <glyph glyph-name="dotaccent" horiz-adv-x="168" 
d="M119 670c0 10 -3.5 18.5 -10.5 25.5s-15.5 10.5 -25.5 10.5s-18.5 -3.5 -25.5 -10.5s-10.5 -15.5 -10.5 -25.5s3.5 -18.5 10.5 -25.5s15.5 -10.5 25.5 -10.5s18.5 3.5 25.5 10.5s10.5 15.5 10.5 25.5z" />
    <glyph glyph-name="ring" horiz-adv-x="250" 
d="M209 667c0 22.667 -8 42 -24 58s-35.333 24 -58 24s-42 -8 -58 -24s-24 -35.333 -24 -58s8 -42 24 -58s35.333 -24 58 -24s42 8 58 24s24 35.333 24 58zM65 667c0 17.333 6 32 18 44s26.667 18 44 18s32 -6 44 -18s18 -26.667 18 -44s-6 -32 -18 -44s-26.667 -18 -44 -18
s-32 6 -44 18s-18 26.667 -18 44z" />
    <glyph glyph-name="hungarumlaut" unicode="&#xa;" horiz-adv-x="297" 
d="M156 751l-38 17l-74 -160l37 -17zM273 751l-37 17l-75 -160l37 -17z" />
    <glyph glyph-name="ogonek" horiz-adv-x="209" 
d="M79 -74c0 16 3.33301 29.8301 10 41.4971s14.334 22.5 23.001 32.5h-41c-6 -8 -12.833 -19 -20.5 -33s-11.5 -30.667 -11.5 -50s6.83301 -35.666 20.5 -48.999s31.167 -20 52.5 -20c11.333 0 21.833 2.5 31.5 7.5s17.167 11.167 22.5 18.5v40
c-4.66699 -7.33301 -11.334 -14.166 -20.001 -20.499s-17.667 -9.5 -27 -9.5c-10 0 -19.167 3.33301 -27.5 10s-12.5 17.334 -12.5 32.001z" />
    <glyph glyph-name="caron" horiz-adv-x="352" 
d="M187 591l116 118l-23 23l-107 -105l-105 105l-22 -24l117 -117h24z" />
    <glyph glyph-name="dotlessi" unicode="&#xd;" horiz-adv-x="249" 
d="M149 515h-102v-41h61v-433h-61v-41h163v41h-61v474z" />
    <glyph glyph-name="fraction" horiz-adv-x="515" 
d="M63 0l449 714h-40l-449 -714h40z" />
    <glyph glyph-name="fi" horiz-adv-x="426" 
d="M189 36h-61.001v444h179v-444h-61v-36h163v36h-61v479h-220v109c0 25.333 8.33301 45 25 59s38 21 64 21c26.667 0 48.334 -6.66699 65.001 -20s25 -33.333 25 -60v-53h41v57c0 34 -11.667 61.5 -35 82.5s-55.333 31.5 -96 31.5c-17.333 0 -33.833 -2.66699 -49.5 -8
s-29.5 -12.833 -41.5 -22.5s-21.5 -21.5 -28.5 -35.5s-10.5 -30 -10.5 -48v-113h-56v-35h56v-444h-61v-36h163v36z" />
    <glyph glyph-name="fl" horiz-adv-x="426" 
d="M128 480h95.999v35h-96v110c0 26 8.33301 45.833 25 59.5s38 20.5 64 20.5c26.667 0 48.334 -6.66699 65.001 -20s25 -33.333 25 -60v-589h-61v-36h163v36h-61v592c0 34 -11.667 61.5 -35 82.5s-55.333 31.5 -96 31.5c-17.333 0 -33.833 -2.66699 -49.5 -8
s-29.5 -12.833 -41.5 -22.5s-21.5 -21.5 -28.5 -35.5s-10.5 -30 -10.5 -48v-113h-56v-35h56v-444h-61v-36h163v36h-61v444z" />
    <glyph glyph-name="Lslash" horiz-adv-x="438" 
d="M142 284l116 115v60l-116 -115v328h58v42h-163v-42h57v-371l-53 -53v-60l53 53v-199h-61v-42h376v103h-48v-61h-219v242z" />
    <glyph glyph-name="lslash" horiz-adv-x="227" 
d="M135 283l57 57v55l-57 -57v412h-102v-36h61v-414l-57 -57v-55l57 56v-208h-61v-36h163v36h-61v247z" />
    <glyph glyph-name="Zcaron" horiz-adv-x="546" 
d="M509 714h-460v-129h42v87h341l-408 -672h485v139h-42v-97h-361zM289 742l93 94l-18 19l-86 -84l-84 84l-17 -20l93 -93h19z" />
    <glyph glyph-name="zcaron" horiz-adv-x="434" 
d="M400 515h-360v-124h41v89h250l-309 -480h378v120h-41v-84h-262zM232 591l116 118l-23 23l-107 -105l-105 105l-22 -24l117 -117h24z" />
    <glyph glyph-name="space" unicode=" " horiz-adv-x="352" 
 />
    <glyph glyph-name="exclam" unicode="!" horiz-adv-x="176" 
d="M112 714h-41v-532h41v532zM56 33c0 -10.667 3.33398 -19.167 10.001 -25.5s15.667 -9.5 27 -9.5c9.33301 0 17.5 3.16699 24.5 9.5s10.5 14.833 10.5 25.5c0 10 -3.5 18.333 -10.5 25s-15.5 10 -25.5 10c-10.667 0 -19.334 -3.33301 -26.001 -10s-10 -15 -10 -25z" />
    <glyph glyph-name="quotedbl" unicode="&#x22;" horiz-adv-x="270" 
d="M214 727h-41l11 -160h20zM102 727h-41l10 -160h21z" />
    <glyph glyph-name="numbersign" unicode="#" horiz-adv-x="515" 
d="M207 516l31 126h-25l-30 -126h-114l-8 -24h116l-29 -114h-102l-8 -25h104l-31 -126h25l31 126h137l-32 -131h25l32 131h109l8 25h-111l28 114h103l8 24h-105l31 126h-24l-31 -126h-138zM172 378l29 114h138l-29 -114h-138z" />
    <glyph glyph-name="dollar" unicode="$" horiz-adv-x="484" 
d="M281 33v335c41.333 -11.333 74.333 -30.833 99 -58.5s37 -64.5 37 -110.5s-12.5 -82.833 -37.5 -110.5s-57.833 -46.167 -98.5 -55.5zM402 668c-33.333 30.667 -73.665 47.334 -120.998 50.001v52h-41v-53c-20 -2 -39.667 -7.16699 -59 -15.5
s-36.666 -19.833 -51.999 -34.5s-27.666 -31.834 -36.999 -51.501s-14 -41.834 -14 -66.501c0 -27.333 4.66699 -50.166 14 -68.499s21.666 -33.666 36.999 -45.999s32.666 -22.666 51.999 -30.999s39 -15.5 59 -21.5v-353
c-20.667 0.666992 -39.334 3.83398 -56.001 9.50098s-31.834 13.167 -45.501 22.5s-25.667 20.166 -36 32.499s-19.833 25.166 -28.5 38.499v66h-35v-198h35v70c17.333 -22 39.833 -40.333 67.5 -55s60.5 -22.667 98.5 -24v-52h41v56c53.333 7.33301 96.166 29 128.499 65
s48.5 82.333 48.5 139s-15.667 101.667 -47 135s-74.666 57.666 -129.999 72.999v271c25.333 -2 47.833 -9 67.5 -21s37.5 -26.667 53.5 -44v-52h36v144h-36v-37zM240.001 678l-0.000976562 -256.999c-17.333 6 -33.333 12.333 -48 19s-27.5 15 -38.5 25
s-19.667 21.667 -26 35s-9.5 29.666 -9.5 48.999c0 16.667 3.33301 32.5 10 47.5s15.5 28.333 26.5 40s23.833 21 38.5 28s30.334 11.5 47.001 13.5z" />
    <glyph glyph-name="percent" unicode="%" horiz-adv-x="839" 
d="M660 714h-40l-439 -714h39zM411 516c0 26.667 -5.16699 52 -15.5 76s-24.333 44.833 -42 62.5s-38.5 31.667 -62.5 42s-49.333 15.5 -76 15.5c-27.333 0 -52.833 -5.16699 -76.5 -15.5s-44.334 -24.333 -62.001 -42s-31.667 -38.5 -42 -62.5s-15.5 -49.333 -15.5 -76
c0 -27.333 5.16699 -52.833 15.5 -76.5s24.333 -44.334 42 -62.001s38.334 -31.667 62.001 -42s49.167 -15.5 76.5 -15.5c26.667 0 52 5.16699 76 15.5s44.833 24.333 62.5 42s31.667 38.334 42 62.001s15.5 49.167 15.5 76.5zM57 516c0 22 4.16699 42.5 12.5 61.5
s19.666 35.667 33.999 50s31 25.666 50 33.999s39.5 12.5 61.5 12.5s42.5 -4.16699 61.5 -12.5s35.667 -19.666 50 -33.999s25.666 -31 33.999 -50s12.5 -39.5 12.5 -61.5s-4.16699 -42.5 -12.5 -61.5s-19.666 -35.667 -33.999 -50s-31 -25.666 -50 -33.999
s-39.5 -12.5 -61.5 -12.5s-42.5 4.16699 -61.5 12.5s-35.667 19.666 -50 33.999s-25.666 31 -33.999 50s-12.5 39.5 -12.5 61.5zM825 178c0 26.667 -5.16699 52 -15.5 76s-24.333 44.833 -42 62.5s-38.5 31.667 -62.5 42s-49.333 15.5 -76 15.5
c-27.333 0 -52.833 -5.16699 -76.5 -15.5s-44.334 -24.333 -62.001 -42s-31.667 -38.5 -42 -62.5s-15.5 -49.333 -15.5 -76c0 -27.333 5.16699 -52.833 15.5 -76.5s24.333 -44.334 42 -62.001s38.334 -31.667 62.001 -42s49.167 -15.5 76.5 -15.5
c26.667 0 52 5.16699 76 15.5s44.833 24.333 62.5 42s31.667 38.334 42 62.001s15.5 49.167 15.5 76.5zM471 178c0 22 4.16699 42.5 12.5 61.5s19.666 35.667 33.999 50s31 25.666 50 33.999s39.5 12.5 61.5 12.5s42.5 -4.16699 61.5 -12.5s35.667 -19.666 50 -33.999
s25.666 -31 33.999 -50s12.5 -39.5 12.5 -61.5s-4.16699 -42.5 -12.5 -61.5s-19.666 -35.667 -33.999 -50s-31 -25.666 -50 -33.999s-39.5 -12.5 -61.5 -12.5s-42.5 4.16699 -61.5 12.5s-35.667 19.666 -50 33.999s-25.666 31 -33.999 50s-12.5 39.5 -12.5 61.5z" />
    <glyph glyph-name="ampersand" unicode="&#x26;" horiz-adv-x="673" 
d="M66 198c0 22.667 3.99902 43.666 11.999 62.999s18.5 37.5 31.5 54.5s27.667 32.667 44 47s32.833 27.833 49.5 40.5l205 -307c-23.333 -15.333 -49.166 -29.166 -77.499 -41.499s-61.5 -18.5 -99.5 -18.5c-26 0 -49.167 4 -69.5 12s-37.5 19.167 -51.5 33.5
s-24.833 31.5 -32.5 51.5s-11.5 41.667 -11.5 65zM315.999 672.999c34 0 63.332 -2.83203 87.999 -8.49902s45.334 -13.834 62.001 -24.501v-71h39v99c-21.333 11.333 -47.166 21.833 -77.499 31.5s-67.5 14.5 -111.5 14.5c-24.667 0 -47.834 -3.83301 -69.501 -11.5
s-40.667 -18.334 -57 -32.001s-29.166 -29.834 -38.499 -48.501s-14 -39.334 -14 -62.001c0 -25.333 4.33301 -48.333 13 -69s19.667 -40 33 -58c-18.667 -13.333 -37.334 -27.666 -56.001 -42.999s-35.5 -32.5 -50.5 -51.5s-27.167 -40 -36.5 -63s-14 -48.833 -14 -77.5
c0 -29.333 4.66699 -56.333 14 -81s22.666 -46 39.999 -64s38.833 -32.167 64.5 -42.5s54.5 -15.5 86.5 -15.5c24 0 46 2.33301 66 7s38.167 10.334 54.5 17.001s31 14 44 22l35.5 21l44 -62h54l-66 89c38 37.333 65.667 81.333 83 132s28 104.334 32 161.001h66v32h-171
v-32h67c-2.66699 -47.333 -12 -94.333 -28 -141s-39 -86 -69 -118l-223 333l-18 27c-5.33301 8 -9.66602 16 -12.999 24s-6 16.167 -8 24.5s-3 17.833 -3 28.5c0 16.667 3.5 32 10.5 46s16.667 26 29 36s26.833 17.667 43.5 23s35 8 55 8z" />
    <glyph glyph-name="quotesingle" unicode="'" horiz-adv-x="164" 
d="M103 714h-42l10 -159h22z" />
    <glyph glyph-name="parenleft" unicode="(" horiz-adv-x="204" 
d="M161 754l-41 0.000976562c-21.333 -73.333 -36.5 -144.333 -45.5 -213s-13.5 -133.667 -13.5 -195c0 -70 5 -138.833 15 -206.5s24.667 -134.834 44 -201.501h41c-19.333 66.667 -33.833 134 -43.5 202s-14.5 136.667 -14.5 206c0 61.333 4.33301 126 13 194
s23.667 139.333 45 214z" />
    <glyph glyph-name="parenright" unicode=")" horiz-adv-x="204" 
d="M159 346c0 61.333 -4.5 126.333 -13.5 195s-24.167 139.667 -45.5 213h-41c21.333 -74.667 36.333 -146 45 -214s13 -132.667 13 -194c0 -69.333 -4.83301 -138 -14.5 -206s-24.167 -135.333 -43.5 -202h41c39.333 134 59 270 59 408z" />
    <glyph glyph-name="asterisk" unicode="*" horiz-adv-x="214" 
d="M29 644c0 -5.33301 2.83398 -10.1621 8.50098 -14.4951s12.5 -8 20.5 -11s16.167 -5.66699 24.5 -8s15.166 -3.83301 20.499 -4.5c-4 -1.33301 -10.167 -3 -18.5 -5s-16.5 -4.66699 -24.5 -8s-15.167 -7.16602 -21.5 -11.499s-9.5 -9.16602 -9.5 -14.499
c0 -4 1.33301 -7.5 4 -10.5s5.66699 -4.5 9 -4.5c4.66699 0 10.167 1.83301 16.5 5.5s12.5 8 18.5 13s11.667 10.167 17 15.5l13 13c-2.66699 -7.33301 -5.83398 -17 -9.50098 -29s-5.5 -22.667 -5.5 -32c0 -6.66699 1.33301 -12.167 4 -16.5s7.33398 -6.5 14.001 -6.5
c6 0 10 2.16699 12 6.5s3 10.166 3 17.499c0 9.33301 -1.33301 19.833 -4 31.5s-5.33398 21.167 -8.00098 28.5l14 -13.5l16.5 -15c5.66699 -5 11.5 -9.16699 17.5 -12.5s11.333 -5 16 -5s8.16699 1.33301 10.5 4s3.5 5.66699 3.5 9c0 5.33301 -2.66699 10.166 -8 14.499
s-12 8.16602 -20 11.499s-16.167 6.16602 -24.5 8.49902s-15.5 4.16602 -21.5 5.49902c6 1.33301 13.167 3.16602 21.5 5.49902s16.333 5.16602 24 8.49902s14.334 7 20.001 11s8.5 8.66699 8.5 14c0 4 -1.16699 7.5 -3.5 10.5s-5.83301 4.5 -10.5 4.5
c-5.33301 0 -11 -1.83301 -17 -5.5s-12 -8 -18 -13s-11.5 -10.167 -16.5 -15.5l-12.5 -13c3.33301 8 6.33301 17.833 9 29.5s4 22.167 4 31.5c0 7.33301 -1.16699 13.166 -3.5 17.499s-6.5 6.5 -12.5 6.5s-10.167 -2.16699 -12.5 -6.5s-3.5 -10.166 -3.5 -17.499
c0 -10 1.33301 -20.833 4 -32.5s5.66699 -21.167 9 -28.5l-12.5 13c-5 5.33301 -10.5 10.5 -16.5 15.5s-12.167 9.33301 -18.5 13s-11.833 5.5 -16.5 5.5c-9.33301 0 -14 -5.33301 -14 -16z" />
    <glyph glyph-name="plus" unicode="+" horiz-adv-x="332" 
d="M149 392h-102v-41h102v-102h41v102h102v41h-102v102h-41v-102z" />
    <glyph glyph-name="comma" unicode="," horiz-adv-x="163" 
d="M135 54l-35 15l-74 -163l13 -9z" />
    <glyph glyph-name="hyphen" unicode="-" horiz-adv-x="309" 
d="M258 392h-206v-41h206v41z" />
    <glyph glyph-name="period" unicode="." horiz-adv-x="163" 
d="M119 32c0 10 -3.5 18.5 -10.5 25.5s-15.5 10.5 -25.5 10.5s-18.5 -3.5 -25.5 -10.5s-10.5 -15.5 -10.5 -25.5s3.5 -18.5 10.5 -25.5s15.5 -10.5 25.5 -10.5s18.5 3.5 25.5 10.5s10.5 15.5 10.5 25.5z" />
    <glyph glyph-name="slash" unicode="/" horiz-adv-x="316" 
d="M308 714h-40l-245 -714h40z" />
    <glyph glyph-name="zero" unicode="0" horiz-adv-x="541" 
d="M524 356c0 46.667 -5.33301 92 -16 136s-26.5 83 -47.5 117s-47.333 61.333 -79 82s-68.5 31 -110.5 31s-78.833 -10.333 -110.5 -31s-58 -48 -79 -82s-36.667 -73 -47 -117s-15.5 -89.333 -15.5 -136c0 -46 5.16699 -91 15.5 -135s26 -83 47 -117s47.333 -61.5 79 -82.5
s68.5 -31.5 110.5 -31.5s78.833 10.5 110.5 31.5s58 48.667 79 83s36.833 73.333 47.5 117s16 88.5 16 134.5zM60 356c0 40.667 4.5 80.334 13.5 119.001s22.5 73.334 40.5 104.001s40.167 55.334 66.5 74.001s56.5 28 90.5 28c34.667 0 65.167 -9.33301 91.5 -28
s48.5 -43.334 66.5 -74.001s31.5 -65.334 40.5 -104.001s13.5 -78.334 13.5 -119.001s-4.5 -80.5 -13.5 -119.5s-22.5 -73.667 -40.5 -104s-40.167 -54.833 -66.5 -73.5s-56.833 -28 -91.5 -28c-34 0 -64.167 9.33301 -90.5 28s-48.5 43.167 -66.5 73.5s-31.5 65 -40.5 104
s-13.5 78.833 -13.5 119.5z" />
    <glyph glyph-name="one" unicode="1" horiz-adv-x="541" 
d="M297 713h-102v-36h61v-641h-61v-36h163v36h-61v677z" />
    <glyph glyph-name="two" unicode="2" horiz-adv-x="541" 
d="M72 551h46.002c4 16 10 31.667 18 47s18.5 29 31.5 41s28.833 21.5 47.5 28.5s41 10.5 67 10.5s49.333 -3.33301 70 -10s38.167 -16 52.5 -28s25.333 -26.167 33 -42.5s11.5 -33.833 11.5 -52.5c0 -21.333 -3.83301 -40.5 -11.5 -57.5s-18 -33 -31 -48
s-28.333 -29.5 -46 -43.5l-56.5 -44l-71 -55.5c-23.333 -19 -45.166 -39.167 -65.499 -60.5s-38 -44.333 -53 -69s-25.833 -52.334 -32.5 -83.001l-18 -84h426v41h-367l8 35c6.66699 28 16.667 53.167 30 75.5s29 43 47 62s37.5 37 58.5 54l63.5 51.5l59 48.5
c19.333 16.333 36.5 33.5 51.5 51.5s27 37.333 36 58s13.5 43.334 13.5 68.001c0 22.667 -4.33301 44.5 -13 65.5s-21.834 39.5 -39.501 55.5s-39.5 28.667 -65.5 38s-56 14 -90 14s-63.333 -5 -88 -15s-45.334 -23 -62.001 -39s-29.834 -33.833 -39.501 -53.5
s-16.5 -39.5 -20.5 -59.5z" />
    <glyph glyph-name="three" unicode="3" horiz-adv-x="541" 
d="M59 563l42.002 0.000976562c2 14 6.33301 28 13 42s16.5 26.833 29.5 38.5s30 21.167 51 28.5s46.5 11 76.5 11c50 0 90.833 -12.167 122.5 -36.5s47.5 -58.833 47.5 -103.5c0 -24 -4.66699 -44.667 -14 -62s-21.166 -31.666 -35.499 -42.999
s-30.5 -19.666 -48.5 -24.999s-35.667 -8 -53 -8h-62v-41h62c18.667 0 37.334 -3.83301 56.001 -11.5s35.334 -18.834 50.001 -33.501s26.5 -32.667 35.5 -54s13.5 -45.666 13.5 -72.999c0 -30 -5.5 -55 -16.5 -75s-25 -36.333 -42 -49s-36 -21.667 -57 -27
s-41.167 -8 -60.5 -8c-52 0 -92.833 11.167 -122.5 33.5s-47.5 50.5 -53.5 84.5h-42c2.66699 -20.667 9.16699 -40.667 19.5 -60s24.5 -36.333 42.5 -51s40 -26.334 66 -35.001s56.667 -13 92 -13c26 0 51.833 3.83301 77.5 11.5s48.667 19.667 69 36
s36.833 37.166 49.5 62.499s19 55.333 19 90c0 28 -3.66699 52.833 -11 74.5s-17 40.5 -29 56.5s-25.5 29 -40.5 39s-29.833 17.333 -44.5 22c11.333 2 24 7 38 15s27.167 18.667 39.5 32s22.666 29.333 30.999 48s12.5 40 12.5 64c0 26 -5 50 -15 72s-24.167 41 -42.5 57
s-40.5 28.5 -66.5 37.5s-55 13.5 -87 13.5c-36.667 0 -67.834 -5 -93.501 -15s-46.834 -22.833 -63.501 -38.5s-29.334 -32.834 -38.001 -51.501s-14.334 -37 -17.001 -55z" />
    <glyph glyph-name="four" unicode="4" horiz-adv-x="541" 
d="M434 214v510h-31l-362 -522v-28h351v-133h-41v-41h123v41h-40v133h63v40h-63zM392 214h-294l294 421v-421z" />
    <glyph glyph-name="five" unicode="5" horiz-adv-x="541" 
d="M154 714l-60.0029 -283l37 -11c19.333 12.667 39 21.834 59 27.501s43.333 8.5 70 8.5c28 0 54.833 -5.16699 80.5 -15.5s48.334 -24.833 68.001 -43.5s35.167 -41.167 46.5 -67.5s17 -55.166 17 -86.499c0 -28.667 -5.16699 -55.834 -15.5 -81.501
s-25 -48.167 -44 -67.5s-41.5 -34.666 -67.5 -45.999s-54.333 -17 -85 -17c-25.333 0 -48.166 3.5 -68.499 10.5s-38.666 16.5 -54.999 28.5s-30.333 25.667 -42 41s-21.167 31 -28.5 47l-37 -17c8 -18.667 19 -37 33 -55s30.667 -34.167 50 -48.5s41.333 -25.833 66 -34.5
s52 -13 82 -13c37.333 0 71.5 6.83301 102.5 20.5s57.667 32.167 80 55.5s39.666 50.166 51.999 80.499s18.5 62.5 18.5 96.5c0 38 -6.66699 72.667 -20 104s-31.5 58.166 -54.5 80.499s-49.667 39.5 -80 51.5s-62.833 18 -97.5 18c-30 0 -54.667 -3.16699 -74 -9.5
s-34.666 -12.5 -45.999 -18.5l44 201h225v-52h41v96h-297z" />
    <glyph glyph-name="six" unicode="6" horiz-adv-x="541" 
d="M445 663l13.9961 41.0029c-10.667 3.33301 -24.667 6.16602 -42 8.49902s-38.666 3.5 -63.999 3.5c-52.667 0 -99 -9.83301 -139 -29.5s-73.5 -48 -100.5 -85s-47.333 -82 -61 -135s-20.5 -113.167 -20.5 -180.5c0 -48 6 -90.667 18 -128s28.833 -68.833 50.5 -94.5
s47.834 -45.167 78.501 -58.5s64.667 -20 102 -20c36.667 0 69.834 6.5 99.501 19.5s54.834 30.667 75.501 53s36.5 48.666 47.5 78.999s16.5 63.166 16.5 98.499c0 32 -5 62.333 -15 91s-25 54 -45 76s-44.833 39.5 -74.5 52.5s-64.5 19.5 -104.5 19.5
c-26 0 -49.833 -3 -71.5 -9s-41 -14 -58 -24s-31.5 -21.333 -43.5 -34s-21.667 -25.334 -29 -38.001c4 40 11.5 78.5 22.5 115.5s27 69.667 48 98s47.667 50.833 80 67.5s71.5 25 117.5 25c24 0 43.333 -1.16699 58 -3.5s28 -5.16602 40 -8.49902zM73.9961 263.003
c0 11.333 0.501953 19.832 1.50195 25.499s1.83301 10.834 2.5 15.501c6.66699 14.667 15.667 29.834 27 45.501s25.166 29.667 41.499 42s35.666 22.5 57.999 30.5s47.833 12 76.5 12c34 0 63.5 -5.83301 88.5 -17.5s45.667 -27 62 -46s28.5 -40.333 36.5 -64
s12 -47.5 12 -71.5c0 -28.667 -4.5 -56 -13.5 -82s-22 -48.833 -39 -68.5s-37.833 -35.334 -62.5 -47.001s-52.667 -17.5 -84 -17.5s-59.833 7 -85.5 21s-47.5 32.333 -65.5 55s-31.833 48.5 -41.5 77.5s-14.5 58.833 -14.5 89.5z" />
    <glyph glyph-name="seven" unicode="7" horiz-adv-x="541" 
d="M519 714l-481.001 0.00292969v-109h41v69h384c-35.333 -35.333 -69.166 -73.333 -101.499 -114s-60.666 -86.334 -84.999 -137.001s-43.833 -107.334 -58.5 -170.001s-22 -133.334 -22 -212.001h-57v-41h153v41h-55c0 73.333 6.66699 139.5 20 198.5
s32.166 113.667 56.499 164s53.833 97.833 88.5 142.5s73.667 89 117 133v35z" />
    <glyph glyph-name="eight" unicode="8" horiz-adv-x="541" 
d="M482 546c0 24.667 -5.00293 47.835 -15.0029 69.502s-24.167 40.5 -42.5 56.5s-40.666 28.5 -66.999 37.5s-55.5 13.5 -87.5 13.5s-61.167 -4.5 -87.5 -13.5s-48.666 -21.5 -66.999 -37.5s-32.5 -34.833 -42.5 -56.5s-15 -45.167 -15 -70.5s4.66699 -47.5 14 -66.5
s20.833 -35 34.5 -48s28.334 -23.333 44.001 -31s29.834 -12.834 42.501 -15.501c-13.333 -4 -28.5 -10.667 -45.5 -20s-33 -21.833 -48 -37.5s-27.5 -34.334 -37.5 -56.001s-15 -46.5 -15 -74.5c0 -25.333 5 -50.333 15 -75s24.5 -46.5 43.5 -65.5s42.333 -34.333 70 -46
s59.167 -17.5 94.5 -17.5c36 0 67.833 5.83301 95.5 17.5s51 27 70 46s33.333 40.833 43 65.5s14.5 49.667 14.5 75c0 28.667 -5.33301 54 -16 76s-23.834 40.833 -39.501 56.5s-32.167 28 -49.5 37s-32.666 15.167 -45.999 18.5c12 2.66699 26.167 7.66699 42.5 15
s31.666 17.5 45.999 30.5s26.5 29 36.5 48s15 41.833 15 68.5zM440.997 546.001c0 -17.333 -3.5 -34.166 -10.5 -50.499s-17.667 -30.833 -32 -43.5s-32.166 -23 -53.499 -31s-46.333 -12 -75 -12c-28 0 -52.667 4 -74 12s-39.166 18.333 -53.499 31s-25 27.167 -32 43.5
s-10.5 33.166 -10.5 50.499c0 16.667 3.5 33.334 10.5 50.001s17.667 31.334 32 44.001s32.166 23 53.499 31s46 12 74 12c28.667 0 53.667 -4 75 -12s39.166 -18.333 53.499 -31s25 -27.334 32 -44.001s10.5 -33.334 10.5 -50.001zM446.997 194.001
c0 -20 -3.66699 -39.667 -11 -59s-18.333 -36.5 -33 -51.5s-33.167 -27.167 -55.5 -36.5s-48.166 -14 -77.499 -14s-55 4.66699 -77 14s-40.333 21.5 -55 36.5s-25.667 32.167 -33 51.5s-11 39 -11 59s3.66699 39.667 11 59s18.333 36.5 33 51.5s33 27.167 55 36.5
s47.667 14 77 14s55.166 -4.66699 77.499 -14s40.833 -21.5 55.5 -36.5s25.667 -32.167 33 -51.5s11 -39 11 -59z" />
    <glyph glyph-name="nine" unicode="9" horiz-adv-x="541" 
d="M111 47l-13.9961 -40.998c10.667 -3.33301 24.667 -6.16602 42 -8.49902s38.666 -3.5 63.999 -3.5c52.667 0 99 9.83301 139 29.5s73.5 48 100.5 85s47.333 82 61 135s20.5 113.167 20.5 180.5c0 48 -6 90.667 -18 128s-28.833 68.833 -50.5 94.5
s-47.834 45.167 -78.501 58.5s-64.667 20 -102 20c-36.667 0 -69.834 -6.5 -99.501 -19.5s-54.834 -30.667 -75.501 -53s-36.5 -48.833 -47.5 -79.5s-16.5 -63.334 -16.5 -98.001c0 -32 5 -62.333 15 -91s25 -54 45 -76s44.833 -39.5 74.5 -52.5s64.5 -19.5 104.5 -19.5
c26 0 49.833 3 71.5 9s41 14 58 24s31.5 21.167 43.5 33.5s21.667 25.166 29 38.499c-4 -40 -11.5 -78.5 -22.5 -115.5s-27 -69.667 -48 -98s-47.667 -50.833 -80 -67.5s-71.5 -25 -117.5 -25c-24 0 -43.333 1.16699 -58 3.5s-28 5.16602 -40 8.49902zM482.004 447.002
c0 -11.333 -0.501953 -19.835 -1.50195 -25.502s-1.83301 -10.834 -2.5 -15.501c-6.66699 -15.333 -15.667 -30.666 -27 -45.999s-25.166 -29.166 -41.499 -41.499s-35.666 -22.5 -57.999 -30.5s-47.833 -12 -76.5 -12c-34 0 -63.5 5.83301 -88.5 17.5s-45.667 27 -62 46
s-28.5 40.333 -36.5 64s-12 47.5 -12 71.5c0 28.667 4.5 56 13.5 82s22 48.833 39 68.5s37.833 35.334 62.5 47.001s52.667 17.5 84 17.5s59.833 -7 85.5 -21s47.5 -32.333 65.5 -55s31.833 -48.5 41.5 -77.5s14.5 -58.833 14.5 -89.5z" />
    <glyph glyph-name="colon" unicode=":" horiz-adv-x="163" 
d="M119 32c0 10 -3.5 18.5 -10.5 25.5s-15.5 10.5 -25.5 10.5s-18.5 -3.5 -25.5 -10.5s-10.5 -15.5 -10.5 -25.5s3.5 -18.5 10.5 -25.5s15.5 -10.5 25.5 -10.5s18.5 3.5 25.5 10.5s10.5 15.5 10.5 25.5zM119 438c0 10 -3.5 18.5 -10.5 25.5s-15.5 10.5 -25.5 10.5
s-18.5 -3.5 -25.5 -10.5s-10.5 -15.5 -10.5 -25.5s3.5 -18.5 10.5 -25.5s15.5 -10.5 25.5 -10.5s18.5 3.5 25.5 10.5s10.5 15.5 10.5 25.5z" />
    <glyph glyph-name="semicolon" unicode=";" horiz-adv-x="204" 
d="M150 54l-35 15l-74 -163l13 -9zM140 438c0 10 -3.5 18.5 -10.5 25.5s-15.5 10.5 -25.5 10.5s-18.5 -3.5 -25.5 -10.5s-10.5 -15.5 -10.5 -25.5s3.5 -18.5 10.5 -25.5s15.5 -10.5 25.5 -10.5s18.5 3.5 25.5 10.5s10.5 15.5 10.5 25.5z" />
    <glyph glyph-name="less" unicode="&#x3c;" horiz-adv-x="282" 
d="M230 529l-200 -158l197 -155l23 25l-166 130l169 133z" />
    <glyph glyph-name="equal" unicode="=" horiz-adv-x="296" 
d="M263 331h-226v-41h226v41zM263 453h-226v-41h226v41z" />
    <glyph glyph-name="greater" unicode="&#x3e;" horiz-adv-x="282" 
d="M59 216l197 155l-200 158l-23 -25l169 -133l-166 -130z" />
    <glyph glyph-name="question" unicode="?" horiz-adv-x="437" 
d="M224 317c24.667 2 48.499 7.16992 71.499 15.5029s43.5 20.666 61.5 36.999s32.333 37.333 43 63s16 56.834 16 93.501c0 30 -4.66699 57.167 -14 81.5s-22.5 45.166 -39.5 62.499s-37.833 30.666 -62.5 39.999s-52 14 -82 14c-28.667 0 -53.5 -4.16699 -74.5 -12.5
s-39 -18.833 -54 -31.5s-27.167 -26.834 -36.5 -42.501s-17 -30.834 -23 -45.501l38 -18c4.66699 12.667 10.834 25.5 18.501 38.5s17.5 24.833 29.5 35.5s26.5 19.334 43.5 26.001s36.5 10 58.5 10c49.333 0 88 -14.333 116 -43s42 -67 42 -115
c0 -31.333 -4.5 -58 -13.5 -80s-21.833 -39.833 -38.5 -53.5s-37 -23.667 -61 -30s-50.667 -9.83301 -80 -10.5v-170h41v135zM238.999 32.0029c0 10 -3.5 18.5 -10.5 25.5s-15.5 10.5 -25.5 10.5s-18.5 -3.5 -25.5 -10.5s-10.5 -15.5 -10.5 -25.5s3.5 -18.5 10.5 -25.5
s15.5 -10.5 25.5 -10.5s18.5 3.5 25.5 10.5s10.5 15.5 10.5 25.5z" />
    <glyph glyph-name="at" unicode="@" horiz-adv-x="596" 
d="M179 385c0 14 2.49609 27.833 7.49609 41.5s12.333 25.667 22 36s21.667 18.666 36 24.999s30.5 9.5 48.5 9.5c14.667 0 27.834 -2.83301 39.501 -8.5s21.5 -13 29.5 -22s14 -19.5 18 -31.5s6 -24.333 6 -37c0 -14 -2.16699 -28.167 -6.5 -42.5
s-11.166 -27.166 -20.499 -38.499s-21.166 -20.5 -35.499 -27.5s-31.166 -10.5 -50.499 -10.5c-33.333 0 -57.333 10.5 -72 31.5s-22 45.833 -22 74.5zM56.9961 399c0 29.333 5.66504 57.9902 16.998 85.9902s27.5 53 48.5 75s46.333 39.667 76 53s63.167 20 100.5 20
s70.833 -6.33301 100.5 -19s55 -29.5 76 -50.5s37.167 -44.667 48.5 -71s17 -53.5 17 -81.5c0 -13.333 -1.66699 -27.666 -5 -42.999s-8.33301 -29.666 -15 -42.999s-15.5 -24.333 -26.5 -33s-23.833 -13 -38.5 -13c-10.667 0 -19 2.16699 -25 6.5s-10.667 10 -14 17
s-5.5 14.833 -6.5 23.5s-1.5 17.334 -1.5 26.001l13 159h-19l-5 -64c-2.66699 8 -6.33398 16 -11.001 24s-11.167 15.5 -19.5 22.5s-18.5 12.667 -30.5 17s-26.667 6.5 -44 6.5c-21.333 0 -40.5 -3.66699 -57.5 -11s-31.167 -17.166 -42.5 -29.499s-20 -26.5 -26 -42.5
s-9 -32.333 -9 -49c0 -38 9.16699 -68.667 27.5 -92s47.5 -35 87.5 -35c20.667 0 37.834 2.83301 51.501 8.5s25 12.334 34 20.001s16 15.834 21 24.501s8.83301 16 11.5 22c0 -19.333 4.33301 -36.666 13 -51.999s24.667 -23 48 -23c21.333 0 39 5 53 15
s25.167 22.667 33.5 38s14.166 32 17.499 50s5 34.667 5 50c0 30 -6 59.333 -18 88s-29.333 54.5 -52 77.5s-50.167 41.5 -82.5 55.5s-68.833 21 -109.5 21s-77.167 -7.33301 -109.5 -22s-59.833 -34 -82.5 -58s-40 -51.167 -52 -81.5s-18 -61.166 -18 -92.499
c0 -32 5.33301 -63.333 16 -94s26.834 -58 48.501 -82s48.834 -43.333 81.501 -58s71 -22 115 -22c20 0 39.333 1.83301 58 5.5s36 8.33398 52 14.001s29.833 12 41.5 19s20.167 14.167 25.5 21.5l-14 15c-6 -7.33301 -14.667 -14.166 -26 -20.499
s-24.166 -12.166 -38.499 -17.499s-29.833 -9.5 -46.5 -12.5s-33.334 -4.5 -50.001 -4.5c-40.667 0 -76.167 6.83301 -106.5 20.5s-55.666 31.5 -75.999 53.5s-35.5 47.167 -45.5 75.5s-15 57.166 -15 86.499z" />
    <glyph glyph-name="A" unicode="A" horiz-adv-x="729" 
d="M370 669l148 -408h-292zM216 42h-67l62 177h321l63 -177h-68v-42h173v42h-56l-226 630h56v42h-208v-42h56l-226 -630h-63v-42h183v42z" />
    <glyph glyph-name="B" unicode="B" horiz-adv-x="564" 
d="M496 543c0 22.667 -3.83105 44.334 -11.498 65.001s-19.167 38.834 -34.5 54.501s-34.5 28.167 -57.5 37.5s-49.833 14 -80.5 14h-292v-42h77v-630h-77v-42h300c70 0 125.167 17.667 165.5 53s60.5 85.666 60.5 150.999c0 25.333 -4 48.666 -12 69.999
s-18.833 40 -32.5 56s-29.334 29.333 -47.001 40s-35.834 18.667 -54.501 24c30 11.333 53.5 29.5 70.5 54.5s25.5 56.5 25.5 94.5zM145.002 412l-0.000976562 260h170c42 0 74.667 -12.167 98 -36.5s35 -55.166 35 -92.499c0 -18.667 -3.16699 -36 -9.5 -52
s-15.166 -29.833 -26.499 -41.5s-24.833 -20.834 -40.5 -27.501s-32.5 -10 -50.5 -10h-176zM145.001 42v327.998h176c24 0 46.667 -3.83301 68 -11.5s40 -18.667 56 -33s28.833 -31.833 38.5 -52.5s14.5 -43.667 14.5 -69c0 -27.333 -4.83301 -51.166 -14.5 -71.499
s-22.5 -37.166 -38.5 -50.499s-34.667 -23.333 -56 -30s-44 -10 -68 -10h-176z" />
    <glyph glyph-name="C" unicode="C" horiz-adv-x="703" 
d="M86 356c0 45.333 8.00098 87.499 24.001 126.499s38.167 72.667 66.5 101s62 50.5 101 66.5s81.167 24 126.5 24c49.333 0 91.333 -8.16699 126 -24.5s65 -35.5 91 -57.5v-63h48v177h-48v-55c-10 8 -22.167 16.333 -36.5 25s-30.666 16.334 -48.999 23.001
s-38.5 12.167 -60.5 16.5s-45.667 6.5 -71 6.5c-51.333 0 -99.333 -9.33301 -144 -28s-83.5 -44.5 -116.5 -77.5s-58.833 -71.833 -77.5 -116.5s-28 -92.667 -28 -144s9.33301 -99.333 28 -144s44.5 -83.5 77.5 -116.5s71.833 -58.833 116.5 -77.5s92.667 -28 144 -28
c36 0 68 3.66699 96 11s52.333 16.5 73 27.5s38.167 22.667 52.5 35s26.166 23.833 35.499 34.5v61c-13.333 -15.333 -28.5 -30.333 -45.5 -45s-36 -27.667 -57 -39s-44.333 -20.333 -70 -27s-53.834 -10 -84.501 -10c-45.333 0 -87.5 8 -126.5 24s-72.667 38.167 -101 66.5
s-50.5 62 -66.5 101s-24 81.167 -24 126.5z" />
    <glyph glyph-name="D" unicode="D" horiz-adv-x="673" 
d="M661 358c0 54.667 -9.16797 104 -27.501 148s-42.666 81.333 -72.999 112s-65.5 54.334 -105.5 71.001s-82 25 -126 25h-301v-42h76v-630h-76v-42h299c43.333 0 85 8.16699 125 24.5s75.5 40 106.5 71s55.833 68.667 74.5 113s28 94.166 28 149.499zM151.999 42
l0.000976562 630h172c38.667 0 75.5 -7.66699 110.5 -23s65.833 -37 92.5 -65s47.667 -61.167 63 -99.5s23 -80.5 23 -126.5s-7.83301 -88.333 -23.5 -127s-36.834 -72 -63.501 -100s-57.5 -49.833 -92.5 -65.5s-71.5 -23.5 -109.5 -23.5h-172z" />
    <glyph glyph-name="E" unicode="E" horiz-adv-x="485" 
d="M446 597v117h-419v-42h76v-630h-76v-42h419v120h-42v-78h-253v334h189v-51h42v144h-42v-51h-189v254h253v-75h42z" />
    <glyph glyph-name="F" unicode="F" horiz-adv-x="485" 
d="M452 597v117h-419v-42h76v-630h-76v-42h201v42h-77v339h186v-51h42v144h-42v-51h-186v249h253v-75h42z" />
    <glyph glyph-name="G" unicode="G" horiz-adv-x="801" 
d="M395 722c-50 0 -96.8311 -9.67285 -140.498 -29.0059s-81.834 -45.666 -114.501 -78.999s-58.334 -72.166 -77.001 -116.499s-28 -91.5 -28 -141.5c0 -50.667 9.16699 -98.334 27.5 -143.001s43.5 -83.5 75.5 -116.5s70 -59 114 -78s91.667 -28.5 143 -28.5
c42 0 78.5 5 109.5 15s57.167 22.333 78.5 37s38.333 30.667 51 48s22 33 28 47v-137h48v304h76v42h-379v-42h258c-4 -38.667 -11.5 -74.334 -22.5 -107.001s-27.167 -60.667 -48.5 -84s-48.333 -41.666 -81 -54.999s-72 -20 -118 -20c-44.667 0 -86 8.16699 -124 24.5
s-71 38.833 -99 67.5s-49.833 62.334 -65.5 101.001s-23.5 80.334 -23.5 125.001s7.83301 86.334 23.5 125.001s37.5 72.334 65.5 101.001s61 51.167 99 67.5s79.333 24.5 124 24.5c52 0 97 -9.16699 135 -27.5s71 -40.166 99 -65.499v-65h48v186h-48v-59
c-10 9.33301 -22.667 18.666 -38 27.999s-33 17.833 -53 25.5s-42 13.834 -66 18.501s-49.667 7 -77 7z" />
    <glyph glyph-name="H" unicode="H" horiz-adv-x="686" 
d="M234 672v42h-201v-42h76v-630h-76v-42h201v42h-77v336h378v-336h-77v-42h201v42h-76v630h76v42h-201v-42h77v-252h-378v252h77z" />
    <glyph glyph-name="I" unicode="I" horiz-adv-x="302" 
d="M250 672v42h-194v-42h73v-630h-73v-42h194v42h-73v630h73z" />
    <glyph glyph-name="J" unicode="J" horiz-adv-x="337" 
d="M316 714l-173 0.000976562v-42h67v-581c0 -44 -5.66699 -73.667 -17 -89s-29 -23 -53 -23c-15.333 0 -28 2.66699 -38 8s-18 11.666 -24 18.999l-33 -35c10 -11.333 22.5 -20.833 37.5 -28.5s34.167 -11.5 57.5 -11.5c38.667 0 68 12.167 88 36.5s30 65.5 30 123.5v581
h58v42z" />
    <glyph glyph-name="K" unicode="K" horiz-adv-x="536" 
d="M184 672v42h-150v-42h51v-630h-51v-42h150v42h-51v305l15 15l264 -320h-53v-42h166v42h-52l-290 353l277 277h52v42h-163v-42h50l-266 -266v266h51z" />
    <glyph glyph-name="L" unicode="L" horiz-adv-x="438" 
d="M200 672v42h-163v-42h57v-630h-61v-42h376v103h-48v-61h-219v630h58z" />
    <glyph glyph-name="M" unicode="M" horiz-adv-x="893" 
d="M756 626v-584h-66v-42h180v42h-66v630h66v43h-121l-299 -624l-299 623h-121v-42h66v-630h-66v-42h180v42h-66v584l306 -640z" />
    <glyph glyph-name="N" unicode="N" horiz-adv-x="750" 
d="M627 672v-568l-513 610h-89v-42h61v-630h-61v-42h170v42h-61v568l517 -612h24v674h62v42h-172v-42h62z" />
    <glyph glyph-name="O" unicode="O" horiz-adv-x="804" 
d="M404 -10c50.667 0 98.167 9.66699 142.5 29s83.166 45.5 116.499 78.5s59.666 71.667 78.999 116s29 91.833 29 142.5s-9.66699 98.167 -29 142.5s-45.666 83 -78.999 116s-72.166 59.167 -116.499 78.5s-91.833 29 -142.5 29s-98.167 -9.66699 -142.5 -29
s-83 -45.5 -116 -78.5s-59.167 -71.667 -78.5 -116s-29 -91.833 -29 -142.5s9.66699 -98.167 29 -142.5s45.5 -83 78.5 -116s71.667 -59.167 116 -78.5s91.833 -29 142.5 -29zM404 38c-43.333 0 -84.333 8.33301 -123 25s-72.5 39.5 -101.5 68.5s-51.833 62.833 -68.5 101.5
s-25 79.667 -25 123c0 44 8.33301 85.167 25 123.5s39.5 72 68.5 101s62.833 51.833 101.5 68.5s79.667 25 123 25c44 0 85.333 -8.33301 124 -25s72.5 -39.5 101.5 -68.5s51.833 -62.667 68.5 -101s25 -79.5 25 -123.5c0 -43.333 -8.33301 -84.333 -25 -123
s-39.5 -72.5 -68.5 -101.5s-62.833 -51.833 -101.5 -68.5s-80 -25 -124 -25z" />
    <glyph glyph-name="P" unicode="P" horiz-adv-x="485" 
d="M460 520c0 28.667 -4.33203 54.833 -12.999 78.5s-21.334 44 -38.001 61s-37 30.333 -61 40s-51.333 14.5 -82 14.5h-247v-42h66v-630h-66v-42h180v42h-66v285h133c60 0 107.333 17.167 142 51.5s52 81.5 52 141.5zM412.001 519.999c0 -51.333 -13.5 -89.333 -40.5 -114
s-62.167 -37 -105.5 -37h-133v303h133c43.333 0 78.5 -13.333 105.5 -40s40.5 -64 40.5 -112z" />
    <glyph glyph-name="Q" unicode="Q" horiz-adv-x="811" 
d="M720 -40c-17.333 -7.33301 -33.6729 -12.667 -49.0059 -16s-34.333 -5 -57 -5c-24 0 -43.5 2.16699 -58.5 6.5s-28.5 9.5 -40.5 15.5c-12.667 6 -26 12 -40 18s-28.667 10.333 -44 13c43.333 2.66699 85.5 13.667 126.5 33s77.333 45.166 109 77.499s57.167 70 76.5 113
s29 89.833 29 140.5s-9.66699 98.167 -29 142.5s-45.666 83 -78.999 116s-72.333 59.167 -117 78.5s-92.334 29 -143.001 29s-98.167 -9.66699 -142.5 -29s-83.166 -45.5 -116.499 -78.5s-59.666 -71.667 -78.999 -116s-29 -91.833 -29 -142.5
c0 -48.667 9.33301 -95.167 28 -139.5s44.334 -83.166 77.001 -116.499s71.5 -60 116.5 -80s93.5 -30 145.5 -30c-23.333 0 -48.666 -1.83301 -75.999 -5.5s-55.333 -14.167 -84 -31.5v-42c28 15.333 54.333 25.5 79 30.5s49.667 7.5 75 7.5c21.333 0 39.833 -2.5 55.5 -7.5
s30.834 -11.167 45.501 -18.5c15.333 -7.33301 31.666 -13.833 48.999 -19.5s39.333 -8.5 66 -8.5c22.667 0 41.834 2 57.501 6s31.834 9 48.501 15v44zM403.993 37.999c-43.333 0 -84.333 8.33301 -123 25s-72.5 39.5 -101.5 68.5s-51.833 62.833 -68.5 101.5
s-25 79.667 -25 123c0 44 8.33301 85.167 25 123.5s39.5 72 68.5 101s62.833 51.833 101.5 68.5s79.667 25 123 25c44 0 85.333 -8.33301 124 -25s72.5 -39.5 101.5 -68.5s51.833 -62.667 68.5 -101s25 -79.5 25 -123.5c0 -43.333 -8.33301 -84.333 -25 -123
s-39.5 -72.5 -68.5 -101.5s-62.833 -51.833 -101.5 -68.5s-80 -25 -124 -25z" />
    <glyph glyph-name="R" unicode="R" horiz-adv-x="549" 
d="M470 517c0 28 -4.66699 53.999 -14 77.999s-22.5 44.833 -39.5 62.5s-37.667 31.5 -62 41.5s-51.166 15 -80.499 15h-252v-42h71v-630h-71v-42h189v42h-71v279h18l258 -321h104v42h-77l-225 279h56c29.333 0 56.166 5.16699 80.499 15.5s45 24.333 62 42
s30.167 38.334 39.5 62.001s14 49.167 14 76.5zM422 516.999c0 -21.333 -3.49902 -41.332 -10.499 -59.999s-17 -35 -30 -49s-28.333 -25 -46 -33s-36.834 -12 -57.501 -12h-137v309h137c20 0 38.833 -3.83301 56.5 -11.5s33 -18.334 46 -32.001s23.167 -30 30.5 -49
s11 -39.833 11 -62.5z" />
    <glyph glyph-name="S" unicode="S" horiz-adv-x="480" 
d="M438 553l-0.00292969 152h-42v-37c-6 6 -12.667 11.833 -20 17.5s-16.333 11 -27 16s-23.167 9 -37.5 12s-31.166 4.5 -50.499 4.5c-24 0 -47.167 -4.16699 -69.5 -12.5s-41.833 -20 -58.5 -35s-30 -32.833 -40 -53.5s-15 -43.334 -15 -68.001c0 -28 4 -51.333 12 -70
s19.333 -34.667 34 -48s31.667 -24.666 51 -33.999s40.666 -18.333 63.999 -27c24 -8.66699 46.333 -17.5 67 -26.5s38.667 -19.833 54 -32.5s27.5 -27.834 36.5 -45.501s13.5 -39.5 13.5 -65.5c0 -24.667 -4.16699 -46.834 -12.5 -66.501s-20 -36.5 -35 -50.5
s-32.5 -24.667 -52.5 -32s-41.333 -11 -64 -11c-22 0 -41.5 3.16699 -58.5 9.5s-32.333 14.666 -46 24.999s-25.5 21.833 -35.5 34.5s-18.333 25.334 -25 38.001v58h-42v-205h42v70c14.667 -19.333 35.834 -37.166 63.501 -53.499s61.5 -24.5 101.5 -24.5
c32.667 0 62.167 5.33301 88.5 16s48.666 25.167 66.999 43.5s32.333 40.166 42 65.499s14.5 53 14.5 83c0 31.333 -5.33301 58.5 -16 81.5s-25.167 42.833 -43.5 59.5s-39.666 30.834 -63.999 42.501s-49.833 22.167 -76.5 31.5c-20 6.66699 -38.167 13.834 -54.5 21.501
s-30.166 16.5 -41.499 26.5s-20.166 22 -26.499 36s-9.5 30.667 -9.5 50c0 38 13 67.667 39 89s58 32 96 32c34.667 0 63 -7 85 -21s38.667 -29.667 50 -47v-49h42z" />
    <glyph glyph-name="T" unicode="T" horiz-adv-x="520" 
d="M483 714h-446v-117h42v75h158v-630h-77v-42h201v42h-76v630h156v-75h42v117z" />
    <glyph glyph-name="U" unicode="U" horiz-adv-x="579" 
d="M193 673l-0.000976562 41h-172v-41h62v-491c0 -32 6 -59.833 18 -83.5s27.667 -43.334 47 -59.001s41.5 -27.334 66.5 -35.001s50.167 -11.5 75.5 -11.5s50.333 3.83301 75 11.5s46.834 19.334 66.501 35.001s35.5 35.334 47.5 59.001s18 51.5 18 83.5v491h61v41h-170
v-41h61v-495c0 -24.667 -4.83301 -45.667 -14.5 -63s-22 -31.5 -37 -42.5s-32 -19 -51 -24s-37.833 -7.5 -56.5 -7.5s-37.5 2.5 -56.5 7.5s-36 13 -51 24s-27.333 25.167 -37 42.5s-14.5 38.333 -14.5 63v495h62z" />
    <glyph glyph-name="V" unicode="V" horiz-adv-x="573" 
d="M178 714h-160v-42h53l217 -698l217 698h52v42h-160v-42h60l-169 -555l-169 555h59v42z" />
    <glyph glyph-name="W" unicode="W" horiz-adv-x="980" 
d="M211 714h-187v-42h69l216 -698l180 606l180 -606l214 698h75v42h-193v-42h70l-166 -555l-180 607l-180 -608l-168 556h70v42z" />
    <glyph glyph-name="X" unicode="X" horiz-adv-x="588" 
d="M194 714h-150v-42h55l170 -311l-181 -319h-59v-42h160v42h-53l158 278l159 -278h-53v-42h160v42h-59l-184 318l173 312h55v42h-150v-42h47l-149 -271l-146 271h47v42z" />
    <glyph glyph-name="Y" unicode="Y" horiz-adv-x="569" 
d="M180 714h-150v-42h55l176 -310v-320h-56v-42h160v42h-56v320l176 310h57v42h-151v-42h46l-152 -271l-152 271h47v42z" />
    <glyph glyph-name="Z" unicode="Z" horiz-adv-x="546" 
d="M509 714h-460v-129h42v87h341l-408 -672h485v139h-42v-97h-361z" />
    <glyph glyph-name="bracketleft" unicode="[" horiz-adv-x="214" 
d="M167 720v36h-108v-804h111v35l-70 1v732h67z" />
    <glyph glyph-name="backslash" unicode="\" horiz-adv-x="281" 
d="M267 0l-204 714h-40l205 -714h39z" />
    <glyph glyph-name="bracketright" unicode="]" horiz-adv-x="214" 
d="M172 -48v804h-108v-36h68v-732l-71 -1v-35h111z" />
    <glyph glyph-name="asciicircum" unicode="^" horiz-adv-x="352" 
d="M163 735l-112 -286l29 -11l99 246l100 -249l27 14l-112 286h-31z" />
    <glyph glyph-name="underscore" unicode="_" horiz-adv-x="357" 
d="M368 -36h-367v-35h367v35z" />
    <glyph glyph-name="grave" unicode="`" horiz-adv-x="265" 
d="M184 603l28 29l-124 125l-30 -29z" />
    <glyph glyph-name="a" unicode="a" horiz-adv-x="566" 
d="M273 486c19.333 0 38.498 -2.99707 57.498 -8.99707s36 -15 51 -27s27.167 -27.167 36.5 -45.5s14 -39.833 14 -64.5v-57c-7.33301 10.667 -16.666 21 -27.999 31s-24.5 19 -39.5 27s-32 14.333 -51 19s-40.5 7 -64.5 7c-32 0 -60.833 -5.16699 -86.5 -15.5
s-47.167 -24.166 -64.5 -41.499s-30.666 -37.333 -39.999 -60s-14 -46.334 -14 -71.001c0 -24 4.33301 -47.333 13 -70s21.5 -42.834 38.5 -60.501s38.167 -31.834 63.5 -42.501s54.666 -16 87.999 -16c27.333 0 51.166 2.66699 71.499 8s37.833 12 52.5 20
s26.834 16.667 36.501 26s17.834 18 24.501 26v-70h114v36h-74v313c0 28 -5.16699 53 -15.5 75s-24.333 40.667 -42 56s-38.667 27 -63 35s-50.5 12 -78.5 12c-32 0 -63.333 -5.33301 -94 -16s-56 -26 -76 -46l24 -33c15.333 15.333 36 28.166 62 38.499s54 15.5 84 15.5z
M84.998 179.003c0 18 3.33008 35.834 9.99707 53.501s16.834 33.5 30.501 47.5s30.834 25.333 51.501 34s44.667 13 72 13c29.333 0 55 -4.16699 77 -12.5s40.167 -19.5 54.5 -33.5s25.166 -29.833 32.499 -47.5s11 -35.834 11 -54.501s-3.66699 -36.834 -11 -54.501
s-18.166 -33.5 -32.499 -47.5s-32.5 -25.167 -54.5 -33.5s-47.667 -12.5 -77 -12.5c-27.333 0 -51.166 4.16699 -71.499 12.5s-37.333 19.5 -51 33.5s-24 29.833 -31 47.5s-10.5 35.834 -10.5 54.501z" />
    <glyph glyph-name="b" unicode="b" horiz-adv-x="594" 
d="M517 260c0 -28.667 -3.83008 -56.834 -11.4971 -84.501s-19.334 -52.167 -35.001 -73.5s-35.334 -38.666 -59.001 -51.999s-51.167 -20 -82.5 -20c-32 0 -59.833 6.66699 -83.5 20s-43.5 30.666 -59.5 51.999s-28 45.833 -36 73.5s-12 55.834 -12 84.501
s4 56.834 12 84.501s19.833 52.167 35.5 73.5s35.5 38.5 59.5 51.5s52 19.5 84 19.5c31.333 0 58.666 -6.5 81.999 -19.5s42.833 -30.167 58.5 -51.5s27.5 -45.833 35.5 -73.5s12 -55.834 12 -84.501zM36.0029 0l102.003 0.00488281v100
c6.66699 -12.667 15.334 -25.667 26.001 -39s23.667 -25.333 39 -36s33.333 -19.334 54 -26.001s44.667 -10 72 -10c38.667 0 72.5 7.66699 101.5 23s52.833 35.666 71.5 60.999s32.667 54.166 42 86.499s14 65.833 14 100.5c0 34 -4.66699 67.167 -14 99.5
s-23.333 61.166 -42 86.499s-42.5 45.666 -71.5 60.999s-62.833 23 -101.5 23c-26.667 0 -50.334 -3.5 -71.001 -10.5s-38.834 -16 -54.501 -27s-28.834 -23.5 -39.501 -37.5s-19.334 -28 -26.001 -42v337h-102v-36h61v-678h-61v-36z" />
    <glyph glyph-name="c" unicode="c" horiz-adv-x="481" 
d="M403 463v-47.001h36v120h-36v-26c-19.333 7.33301 -38.666 12.166 -57.999 14.499s-37.333 3.5 -54 3.5c-42 0 -79.333 -7.5 -112 -22.5s-60.167 -35 -82.5 -60s-39.166 -53.833 -50.499 -86.5s-17 -67 -17 -103s5.5 -70.333 16.5 -103s27.5 -61.5 49.5 -86.5
s49.333 -44.833 82 -59.5s70.667 -22 114 -22c22 0 40.833 1.5 56.5 4.5s29.167 6.66699 40.5 11s21 9.33301 29 15s15.333 11.167 22 16.5v53c-8 -7.33301 -16.333 -14.5 -25 -21.5s-18.834 -13.333 -30.501 -19s-25 -10.167 -40 -13.5s-32.5 -5 -52.5 -5
c-36.667 0 -68.834 6.33301 -96.501 19s-50.834 29.5 -69.501 50.5s-32.667 45.5 -42 73.5s-14 57 -14 87c0 30.667 4.66699 59.834 14 87.501s23.333 52.167 42 73.5s41.834 38.333 69.501 51s59.834 19 96.501 19c20.667 0 40.167 -1.66699 58.5 -5
s36.166 -9.66602 53.499 -18.999z" />
    <glyph glyph-name="d" unicode="d" horiz-adv-x="602" 
d="M565 36l-60.9971 -0.00488281v714h-114v-36h73v-301c-6.66699 14 -15.334 28 -26.001 42s-23.834 26.5 -39.501 37.5s-33.834 20 -54.501 27s-44.334 10.5 -71.001 10.5c-39.333 0 -73.333 -7.66699 -102 -23s-52.334 -35.666 -71.001 -60.999
s-32.667 -54.166 -42 -86.499s-14 -65.5 -14 -99.5c0 -34.667 4.66699 -68.167 14 -100.5s23.333 -61.166 42 -86.499s42.334 -45.666 71.001 -60.999s62.667 -23 102 -23c26.667 0 50.5 3.33301 71.5 10s39.167 15.334 54.5 26.001s28.333 22.667 39 36
s19.334 26.333 26.001 39v-100h102v36zM463.003 259.995c0 -28.667 -3.99707 -56.834 -11.9971 -84.501s-20 -52.167 -36 -73.5s-35.833 -38.666 -59.5 -51.999s-51.5 -20 -83.5 -20c-31.333 0 -58.833 6.66699 -82.5 20s-43.334 30.666 -59.001 51.999
s-27.334 45.833 -35.001 73.5s-11.5 55.834 -11.5 84.501s4 56.834 12 84.501s19.833 52.334 35.5 74.001s35.167 39 58.5 52s50.666 19.5 81.999 19.5c32 0 60 -6.5 84 -19.5s43.833 -30.333 59.5 -52s27.5 -46.334 35.5 -74.001s12 -55.834 12 -84.501z" />
    <glyph glyph-name="e" unicode="e" horiz-adv-x="563" 
d="M280 27c-30 0 -57 5.83301 -81 17.5s-44.5 27.5 -61.5 47.5s-30 43.833 -39 71.5s-13.5 57.5 -13.5 89.5h436c0.666992 4.66699 1 9.33398 1 14.001v17c0 30 -5.5 59.5 -16.5 88.5s-27 55.167 -48 78.5s-46.333 42.166 -76 56.499s-63.5 21.5 -101.5 21.5
c-35.333 0 -67.833 -7 -97.5 -21s-55.167 -33.167 -76.5 -57.5s-37.833 -53 -49.5 -86s-17.5 -68.5 -17.5 -106.5c0 -34.667 5 -68.334 15 -101.001s25 -61.667 45 -87s45 -45.666 75 -60.999s65.333 -23 106 -23c32 0 59.833 3.5 83.5 10.5s44.167 16.167 61.5 27.5
s32 24.166 44 38.499s22.667 28.833 32 43.5l-35 23c-8 -12.667 -17 -25.167 -27 -37.5s-22.167 -23.166 -36.5 -32.499s-31.5 -17 -51.5 -23s-43.667 -9 -71 -9zM477 289l-387.998 -0.000976562c0.666992 26 5.5 50.833 14.5 74.5s21.667 44.834 38 63.501
s36.166 33.5 59.499 44.5s49.666 16.5 78.999 16.5s55.833 -5.33301 79.5 -16s44 -25 61 -43s30.333 -39.167 40 -63.5s15.167 -49.833 16.5 -76.5z" />
    <glyph glyph-name="f" unicode="f" horiz-adv-x="265" 
d="M26 36l0.00195312 -36.001h163v36h-61v444h98v35h-98v123c0 21.333 4.5 36.833 13.5 46.5s21.167 14.5 36.5 14.5c14 0 25.667 -1.66699 35 -5s17.666 -6.66602 24.999 -9.99902v40c-7.33301 3.33301 -15.833 6.83301 -25.5 10.5s-22.834 5.5 -39.501 5.5
c-27.333 0 -48.5 -8.33301 -63.5 -25s-22.5 -39 -22.5 -67v-133h-56v-35h56v-444h-61z" />
    <glyph glyph-name="g" unicode="g" horiz-adv-x="594" 
d="M272 -11c26.667 0 50.5039 3.33301 71.5039 10s39.167 15.334 54.5 26.001s28.333 22.667 39 36s19.334 26.333 26.001 39v-90c0 -50 -14.5 -89.667 -43.5 -119s-67.5 -44 -115.5 -44c-30 0 -54.333 3.5 -73 10.5s-35 14.167 -49 21.5l-19 -37
c17.333 -9.33301 36.833 -17.666 58.5 -24.999s49.167 -11 82.5 -11c26.667 0 52.167 4.5 76.5 13.5s45.666 22.167 63.999 39.5s32.833 38.666 43.5 63.999s16 54 16 86v471h61v35h-102v-102c-6.66699 14 -15.334 28 -26.001 42s-23.834 26.5 -39.501 37.5
s-33.834 20 -54.501 27s-44.334 10.5 -71.001 10.5c-37.333 0 -70.166 -7.5 -98.499 -22.5s-52.166 -35 -71.499 -60s-34 -53.833 -44 -86.5s-15 -66.334 -15 -101.001c0 -35.333 5 -69.333 15 -102s24.667 -61.5 44 -86.5s43.166 -45 71.499 -60s61.166 -22.5 98.499 -22.5
zM463.004 260c0 -28.667 -4 -56.832 -12 -84.499s-20 -52.167 -36 -73.5s-35.833 -38.666 -59.5 -51.999s-51.5 -20 -83.5 -20c-31.333 0 -58.666 6.5 -81.999 19.5s-42.833 30.167 -58.5 51.5s-27.5 45.833 -35.5 73.5s-12 56.167 -12 85.5s4 57.833 12 85.5
s19.833 52.167 35.5 73.5s35.167 38.5 58.5 51.5s50.666 19.5 81.999 19.5c32 0 60 -6.5 84 -19.5s43.833 -30.333 59.5 -52s27.5 -46.334 35.5 -74.001s12 -55.834 12 -84.501z" />
    <glyph glyph-name="h" unicode="h" horiz-adv-x="546" 
d="M36 0l162.999 0.000976562v36h-61v339c0 7.33301 2.66699 17.5 8 30.5s13.833 25.667 25.5 38s26.334 23 44.001 32s38.5 13.5 62.5 13.5c41.333 0 74.833 -10.833 100.5 -32.5s38.5 -58.5 38.5 -110.5v-310h-61v-36h163v36h-62v326c0 28 -4.83301 52.5 -14.5 73.5
s-22.667 38.5 -39 52.5s-35.333 24.5 -57 31.5s-44.5 10.5 -68.5 10.5c-20 0 -37.667 -2 -53 -6s-28.5 -9.33301 -39.5 -16s-20.333 -13.834 -28 -21.501s-14.167 -15.167 -19.5 -22.5v286h-102v-36h61v-678h-61v-36z" />
    <glyph glyph-name="i" unicode="i" horiz-adv-x="255" 
d="M149 515h-102v-35h61v-444h-61v-36h163v36h-61v479zM161 659c0 9.33301 -3 17 -9 23s-13.667 9 -23 9s-17 -3 -23 -9s-9 -13.667 -9 -23s3 -17 9 -23s13.667 -9 23 -9s17 3 23 9s9 13.667 9 23z" />
    <glyph glyph-name="j" unicode="j" horiz-adv-x="220" 
d="M151 515l-103 0.000976562v-35h62v-479c0 -28.667 -8 -51 -24 -67s-37.333 -30 -64 -42l21 -36c14 6.66699 27.5 14 40.5 22s24.5 17.5 34.5 28.5s18 24.167 24 39.5s9 33.666 9 54.999v514zM163 659.001c0 9.33301 -3 17 -9 23s-13.667 9 -23 9s-17 -3 -23 -9
s-9 -13.667 -9 -23s3 -17 9 -23s13.667 -9 23 -9s17 3 23 9s9 13.667 9 23z" />
    <glyph glyph-name="k" unicode="k" horiz-adv-x="527" 
d="M148 291v459h-102v-36h61v-678h-61v-36h163v36h-61v208l16 15l223 -223h-67v-36h174v36h-54l-245 248l196 196h70v35h-205v-35h81z" />
    <glyph glyph-name="l" unicode="l" horiz-adv-x="227" 
d="M135 36v714h-102v-36h61v-678h-61v-36h163v36h-61z" />
    <glyph glyph-name="m" unicode="m" horiz-adv-x="725" 
d="M30 0l163.002 0.00195312v36h-61v354c0 14.667 3.16699 28 9.5 40s14.666 22.167 24.999 30.5s22.166 14.666 35.499 18.999s27.333 6.5 42 6.5c13.333 0 26.166 -2.16699 38.499 -6.5s23.166 -10.5 32.499 -18.5s16.833 -17.833 22.5 -29.5s8.5 -24.834 8.5 -39.501
v-356h-61v-36h163v36h-61v355c0 14.667 3.16699 27.834 9.5 39.501s14.666 21.667 24.999 30s22.333 14.666 36 18.999s27.834 6.5 42.501 6.5c29.333 0 53.5 -8.33301 72.5 -25s28.5 -39.667 28.5 -69v-356h-61v-36h163v36h-61v356c0 18.667 -3.33301 36.167 -10 52.5
s-16.167 30.666 -28.5 42.999s-27.166 22 -44.499 29s-37 10.5 -59 10.5c-20.667 0 -38.5 -2.33301 -53.5 -7s-27.667 -10.667 -38 -18s-18.833 -15.166 -25.5 -23.499s-12 -15.833 -16 -22.5c-3.33301 6.66699 -7.66602 14.167 -12.999 22.5s-12.833 16 -22.5 23
s-21.5 13 -35.5 18s-31.333 7.5 -52 7.5c-31.333 0 -55.5 -5.5 -72.5 -16.5s-30.167 -23.167 -39.5 -36.5v41h-102v-35h61v-444h-61v-36z" />
    <glyph glyph-name="n" unicode="n" horiz-adv-x="561" 
d="M46 0l163.001 0.000976562v36h-61v343c0 7.33301 3 17.166 9 29.499s14.833 24.5 26.5 36.5s26.167 22.333 43.5 31s37.666 13 60.999 13c19.333 0 37.5 -2.5 54.5 -7.5s31.833 -13.333 44.5 -25s22.667 -26.5 30 -44.5s11 -40 11 -66v-310h-62v-36h165v36h-63v326
c0 28 -4.83301 52.5 -14.5 73.5s-22.667 38.5 -39 52.5s-35.5 24.5 -57.5 31.5s-45 10.5 -69 10.5c-20 0 -37.5 -2.16699 -52.5 -6.5s-28.167 -9.83301 -39.5 -16.5s-21 -14 -29 -22s-14.333 -15.333 -19 -22v52h-102v-35h61v-444h-61v-36z" />
    <glyph glyph-name="o" unicode="o" horiz-adv-x="560" 
d="M526 259c0 34 -5.33301 67.333 -16 100s-26.5 61.667 -47.5 87s-46.667 45.666 -77 60.999s-65.166 23 -104.499 23s-74.333 -7.66699 -105 -23s-56.334 -35.666 -77.001 -60.999s-36.334 -54.333 -47.001 -87s-16 -66 -16 -100s5.33301 -67.333 16 -100
s26.334 -61.5 47.001 -86.5s46.334 -45.167 77.001 -60.5s65.667 -23 105 -23s74.166 7.66699 104.499 23s56 35.5 77 60.5s36.833 53.833 47.5 86.5s16 66 16 100zM485 259c0 -28.667 -4.33301 -56.667 -13 -84s-21.5 -51.833 -38.5 -73.5s-38.167 -39 -63.5 -52
s-55 -19.5 -89 -19.5s-63.833 6.5 -89.5 19.5s-47 30.333 -64 52s-29.667 46.167 -38 73.5s-12.5 55.333 -12.5 84s4.16699 56.667 12.5 84s21 51.833 38 73.5s38.333 39.167 64 52.5s55.5 20 89.5 20s63.667 -6.66699 89 -20s46.5 -30.833 63.5 -52.5
s29.833 -46.167 38.5 -73.5s13 -55.333 13 -84z" />
    <glyph glyph-name="p" unicode="p" horiz-adv-x="581" 
d="M509 260c0 -28.667 -3.82812 -56.834 -11.4951 -84.501s-19.334 -52.167 -35.001 -73.5s-35.334 -38.666 -59.001 -51.999s-51.5 -20 -83.5 -20c-31.333 0 -58.833 6.66699 -82.5 20s-43.5 30.666 -59.5 51.999s-28 45.833 -36 73.5s-12 55.834 -12 84.501
s3.66699 56.834 11 84.501s18.666 52.167 33.999 73.5s34.666 38.5 57.999 51.5s51 19.5 83 19.5c31.333 0 59 -6.5 83 -19.5s44.167 -30.167 60.5 -51.5s28.666 -45.833 36.999 -73.5s12.5 -55.834 12.5 -84.501zM320.005 530c-26 0 -49.332 -3.32812 -69.999 -9.99512
s-38.834 -15.5 -54.501 -26.5s-28.834 -23.333 -39.501 -37s-19.334 -27.5 -26.001 -41.5v100h-102v-35h61v-624h-61v-36h163v36h-61v244c6.66699 -12.667 15.334 -25.667 26.001 -39s23.667 -25.333 39 -36s33.333 -19.334 54 -26.001s44.334 -10 71.001 -10
c39.333 0 73.333 7.66699 102 23s52.5 35.666 71.5 60.999s33.167 54.166 42.5 86.499s14 65.833 14 100.5c0 34 -4.66699 67.167 -14 99.5s-23.5 61.166 -42.5 86.499s-42.833 45.666 -71.5 60.999s-62.667 23 -102 23z" />
    <glyph glyph-name="q" unicode="q" horiz-adv-x="602" 
d="M279 -11c26.667 0 50.3301 3.32812 70.9971 9.99512s38.667 15.334 54 26.001s28.333 22.667 39 36s19.334 26.333 26.001 39v-280h111v41h-70v619h61v35h-102v-102c-6.66699 14 -15.667 28 -27 42s-25 26.5 -41 37.5s-34.667 20 -56 27s-45 10.5 -71 10.5
c-39.333 0 -73.166 -7.66699 -101.499 -23s-51.666 -35.666 -69.999 -60.999s-31.833 -54.166 -40.5 -86.499s-13 -65.5 -13 -99.5c0 -34.667 4.66699 -68.167 14 -100.5s23.5 -61.166 42.5 -86.499s42.833 -45.666 71.5 -60.999s62.667 -23 102 -23zM468.996 259.995
c0 -28.667 -4 -56.834 -12 -84.501s-20 -52.167 -36 -73.5s-35.833 -38.666 -59.5 -51.999s-51.167 -20 -82.5 -20c-32 0 -59.833 6.66699 -83.5 20s-43.334 30.666 -59.001 51.999s-27.334 45.833 -35.001 73.5s-11.5 55.834 -11.5 84.501s4 56.834 12 84.501
s19.833 52.167 35.5 73.5s35.334 38.5 59.001 51.5s51.167 19.5 82.5 19.5c32 0 59.833 -6.5 83.5 -19.5s43.334 -30.167 59.001 -51.5s27.5 -45.833 35.5 -73.5s12 -55.834 12 -84.501z" />
    <glyph glyph-name="r" unicode="r" horiz-adv-x="334" 
d="M35 0l163.001 -0.000976562v36h-61v348c0 13.333 2.33301 25.833 7 37.5s11.167 21.834 19.5 30.501s18.166 15.5 29.499 20.5s23.333 7.5 36 7.5c26 0 47.667 -8.33301 65 -25l23 33c-10 9.33301 -21.667 17 -35 23s-31 9 -53 9c-26 0 -45.833 -5.5 -59.5 -16.5
s-24.5 -23.167 -32.5 -36.5v48h-102v-35h61v-444h-61v-36z" />
    <glyph glyph-name="s" unicode="s" horiz-adv-x="386" 
d="M326 142c0 -34.667 -12.001 -61.166 -36.001 -79.499s-55 -27.5 -93 -27.5c-28 0 -52.833 4.83301 -74.5 14.5s-40.5 21.5 -56.5 35.5v51h-35v-136h35v36c16.667 -13.333 35.834 -23.666 57.501 -30.999s46.167 -11 73.5 -11c23.333 0 45.166 3.33301 65.499 10
s38.166 16.167 53.499 28.5s27.5 27.666 36.5 45.999s13.5 39.5 13.5 63.5c0 23.333 -4.33301 43.333 -13 60s-20.5 30.667 -35.5 42s-33 21 -54 29s-43.833 15.333 -68.5 22c-38 10 -65.833 22.333 -83.5 37s-26.5 36.667 -26.5 66c0 30 10.667 53.333 32 70s48 25 80 25
c28.667 0 52.834 -5.16699 72.501 -15.5s36.834 -22.166 51.501 -35.499v-38h36v119h-36v-34c-12 10.667 -28 20.167 -48 28.5s-45.333 12.5 -76 12.5c-22 0 -42.5 -3.33301 -61.5 -10s-35.167 -15.834 -48.5 -27.501s-23.833 -25.667 -31.5 -42s-11.5 -33.833 -11.5 -52.5
c0 -21.333 3.66699 -40 11 -56s17.5 -29.667 30.5 -41s28.833 -21 47.5 -29s39.334 -14.667 62.001 -20c20 -5.33301 38 -10.833 54 -16.5s29.667 -12.667 41 -21s20.166 -18.333 26.499 -30s9.5 -25.834 9.5 -42.501z" />
    <glyph glyph-name="t" unicode="t" horiz-adv-x="271" 
d="M127 515l0.000976562 156h-41v-156h-56v-35h56v-401c0 -28 7 -50.5 21 -67.5s35.333 -25.5 64 -25.5c15.333 0 28.166 1.66699 38.499 5s19.5 7 27.5 11v41c-8 -4.66699 -17 -8.66699 -27 -12s-21 -5 -33 -5c-33.333 0 -50 19.333 -50 58v396h97v35h-97z" />
    <glyph glyph-name="u" unicode="u" horiz-adv-x="561" 
d="M464 515h-102.001v-35h61v-347c0 -4.66699 -2.83301 -12.667 -8.5 -24s-14.334 -23 -26.001 -35s-26.167 -22.5 -43.5 -31.5s-37.666 -13.5 -60.999 -13.5c-42.667 0 -76.667 10.333 -102 31s-38 57 -38 109v346h-102v-35h61v-320c0 -56 15.5 -98.667 46.5 -128
s75.833 -44 134.5 -44c18.667 0 35.334 2 50.001 6s27.5 9 38.5 15s20.667 13 29 21s15.5 16 21.5 24v-54h102v36h-61v479z" />
    <glyph glyph-name="v" unicode="v" horiz-adv-x="467" 
d="M155 480v35h-127v-35h40l162 -480h19l152 480h41v35h-128v-35h46l-117 -379h-5l-129 379h46z" />
    <glyph glyph-name="w" unicode="w" horiz-adv-x="732" 
d="M155 480v35h-127v-35h40l162 -480h12l126 412l131 -412h13l152 480h41v35h-127v-35h45l-117 -379l-132 414h-11l-125 -414l-129 379h46z" />
    <glyph glyph-name="x" unicode="x" horiz-adv-x="453" 
d="M168 515h-142v-35h50l130 -230l-126 -214h-53v-36h147v36h-53l106 184l112 -184h-57v-36h148v36h-46l-137 218l138 226h47v35h-143v-35h54l-114 -193l-112 193h51v35z" />
    <glyph glyph-name="y" unicode="y" horiz-adv-x="565" 
d="M207 480v35h-173v-35h63l171 -422l-88 -225h-66v-36h172v36h-64l257 647h53v35h-154v-35h58l-144 -367l-149 367h64z" />
    <glyph glyph-name="z" unicode="z" horiz-adv-x="434" 
d="M400 515h-360v-124h41v89h250l-309 -480h378v120h-41v-84h-262z" />
    <glyph glyph-name="braceleft" unicode="{" horiz-adv-x="184" 
d="M90 445l0.00292969 182.998c0 18 1.33301 32.667 4 44s7.16699 20.333 13.5 27s15.166 11.167 26.499 13.5s25.666 3.5 42.999 3.5v34c-22.667 0 -41.834 -1.83301 -57.501 -5.5s-28.5 -10.167 -38.5 -19.5s-17.167 -21.833 -21.5 -37.5s-6.5 -35.5 -6.5 -59.5v-183
c0 -20.667 -5 -38 -15 -52s-20 -26.667 -30 -38c10 -11.333 20 -23.833 30 -37.5s15 -31.167 15 -52.5v-201c0 -41.333 9.33301 -71.166 28 -89.499s51 -26.833 97 -25.5v31c-17.333 0 -31.5 1.16699 -42.5 3.5s-20 6.83301 -27 13.5s-11.833 15.5 -14.5 26.5
s-4 25.167 -4 42.5v199c0 17.333 -4.16699 34 -12.5 50s-17.833 29.333 -28.5 40c11.333 10.667 21 22.834 29 36.501s12 31.5 12 53.5z" />
    <glyph glyph-name="bar" unicode="|" horiz-adv-x="133" 
d="M89 -46v801h-35v-801h35z" />
    <glyph glyph-name="braceright" unicode="}" horiz-adv-x="184" 
d="M15 716c17.333 0 31.6689 -1.16504 43.002 -3.49805s20.166 -6.83301 26.499 -13.5s10.833 -15.667 13.5 -27s4 -26 4 -44v-183c0 -22 4 -39.833 12 -53.5s17.667 -25.834 29 -36.501c-10.667 -10.667 -20.167 -24 -28.5 -40s-12.5 -32.667 -12.5 -50v-199
c0 -17.333 -1.33301 -31.5 -4 -42.5s-7.5 -19.833 -14.5 -26.5s-16.167 -11.167 -27.5 -13.5s-25.333 -3.5 -42 -3.5v-31c46 -1.33301 78.333 7.16699 97 25.5s28 48.166 28 89.499v201c0 21.333 5 38.833 15 52.5s20 26.167 30 37.5c-10 11.333 -20 24 -30 38
s-15 31.333 -15 52v183c0 24 -2.16699 43.833 -6.5 59.5s-11.5 28.167 -21.5 37.5s-22.833 15.833 -38.5 19.5s-34.834 5.5 -57.501 5.5v-34z" />
    <glyph glyph-name="asciitilde" unicode="~" horiz-adv-x="484" 
d="M58 373l27.0039 -25c8 7.33301 17 14.833 27 22.5s26 11.5 48 11.5c15.333 0 29.166 -2.5 41.499 -7.5s25.166 -10.5 38.499 -16.5c14.667 -7.33301 28.334 -13.166 41.001 -17.499s28 -6.5 46 -6.5c27.333 0 49.666 4.66699 66.999 14s31.666 19.666 42.999 30.999
l-26 26c-10 -8.66699 -22.333 -16.167 -37 -22.5s-30.667 -9.5 -48 -9.5c-15.333 0 -29.333 2.5 -42 7.5s-24.667 10.5 -36 16.5c-13.333 6 -26.833 11.5 -40.5 16.5s-29.5 7.5 -47.5 7.5c-26.667 0 -48.334 -5.5 -65.001 -16.5s-29 -21.5 -37 -31.5z" />
    <glyph glyph-name="exclamdown" unicode="&#xa1;" horiz-adv-x="143" 
d="M54 -74h41v532h-41v-532zM110 607c0 10.667 -3.33398 19.167 -10.001 25.5s-15.667 9.5 -27 9.5c-9.33301 0 -17.5 -3.16699 -24.5 -9.5s-10.5 -14.833 -10.5 -25.5c0 -10 3.5 -18.333 10.5 -25s15.5 -10 25.5 -10c10.667 0 19.334 3.33301 26.001 10s10 15 10 25z" />
    <glyph glyph-name="cent" unicode="&#xa2;" horiz-adv-x="471" 
d="M439 127l-0.000976562 49.001c-18 -19.333 -38.833 -33.333 -62.5 -42s-50.167 -13 -79.5 -13v461c21.333 0 40.5 -2.16699 57.5 -6.5s33.167 -10.166 48.5 -17.499v-47h36v120h-36v-27c-13.333 5.33301 -29 9.66602 -47 12.999s-37.667 5 -59 5v60h-42v-62
c-37.333 -4 -70.166 -14 -98.499 -30s-52.166 -36.167 -71.499 -60.5s-34 -52 -44 -83s-15 -62.833 -15 -95.5c0 -34 5.16699 -66.5 15.5 -97.5s25.166 -58.5 44.499 -82.5s43.333 -43.833 72 -59.5s61 -25.834 97 -30.501v-60h42v60c32 0 59.833 4.16699 83.5 12.5
s43.167 19.5 58.5 33.5zM254.999 121.001c-30 6 -56.667 16.1709 -80 30.5039s-42.833 31.666 -58.5 51.999s-27.5 43.166 -35.5 68.499s-12 51.666 -12 78.999c0 28.667 4.5 56 13.5 82s21.667 49.333 38 70s35.833 37.667 58.5 51s48 21.666 76 24.999v-458z" />
    <glyph glyph-name="sterling" unicode="&#xa3;" horiz-adv-x="439" 
d="M101 571c0 38 11.167 65.4941 33.5 82.4941s50.833 25.5 85.5 25.5c40 0 72.167 -9.16699 96.5 -27.5s39.5 -43.833 45.5 -76.5h41c-4 26 -11.667 48.167 -23 66.5s-25.333 33.166 -42 44.499s-35.167 19.666 -55.5 24.999s-41.5 8 -63.5 8c-24 0 -46 -3.66699 -66 -11
s-37.167 -17.666 -51.5 -30.999s-25.5 -29 -33.5 -47s-12 -37.667 -12 -59c0 -31.333 6.16699 -59.666 18.5 -84.999s25.833 -48.666 40.5 -69.999c17.333 -25.333 33.666 -48.166 48.999 -68.499s25.333 -40.5 30 -60.5h-104v-36h109
c0 -25.333 -7.33301 -53.166 -22 -83.499s-35.667 -59.166 -63 -86.499c-16.667 -1.33301 -33.167 -6.16602 -49.5 -14.499s-31.833 -21.5 -46.5 -39.5l27 -28c13.333 14.667 26.166 25.667 38.499 33s30.166 11 53.499 11c16.667 0 31.334 -2.33301 44.001 -7
s24.667 -10.667 36 -18s23.5 -13.166 36.5 -17.499s28.167 -6.5 45.5 -6.5c32 0 58.667 5.66699 80 17s38.333 23.666 51 36.999l-29 28c-10.667 -11.333 -25 -21.333 -43 -30s-37.667 -13 -59 -13c-15.333 0 -28.666 2.5 -39.999 7.5s-21.333 10.167 -30 15.5
c-10.667 6 -20.834 11.333 -30.501 16s-20.167 7.66699 -31.5 9c22.667 21.333 40.334 46.833 53.001 76.5s19 60.834 19 93.501h112v36h-114c-5.33301 26.667 -17 52.167 -35 76.5l-53 74.5c-13.333 20 -24.666 40.833 -33.999 62.5s-14 45.167 -14 70.5z" />
    <glyph glyph-name="currency" unicode="&#xa4;" horiz-adv-x="485" 
d="M128 622c0 25.333 8.33301 45.002 25 59.002s38 21 64 21c11.333 0 22.5 -1.83301 33.5 -5.5s20.833 -8.66699 29.5 -15s15.667 -13.333 21 -21s8 -15.5 8 -23.5v-122h-56v-35h56v-444h-61v-36h163v36h-61v444h98v35h-98v123c0 25.333 5.5 42.5 16.5 51.5
s25.167 13.5 42.5 13.5c13.333 0 23.5 -0.833008 30.5 -2.5s13.833 -3.83398 20.5 -6.50098v41c-7.33301 3.33301 -14.333 5.66602 -21 6.99902s-16.667 2 -30 2c-46 0 -76 -17 -90 -51c-3.33301 5.33301 -7.5 10.833 -12.5 16.5s-11.5 11 -19.5 16s-17.667 9 -29 12
s-25 4.5 -41 4.5c-17.333 0 -33.833 -2.66699 -49.5 -8s-29.5 -12.833 -41.5 -22.5s-21.5 -21.5 -28.5 -35.5s-10.5 -30 -10.5 -48v-113h-56v-35h56v-444h-61v-36h163v36h-61v444h96v35h-96v107z" />
    <glyph glyph-name="yen" unicode="&#xa5;" horiz-adv-x="556" 
d="M83 679l181 -317h-102v-35h102v-62h-102v-35h102v-194h-56v-36h153v36h-56v194h101v35h-101v62h101v35h-101l188 317h51v35h-146v-35h51l-162 -278l-161 278h51v35h-145v-35h51z" />
    <glyph glyph-name="brokenbar" unicode="&#xa6;" horiz-adv-x="133" 
d="M89 454v301h-35v-301h35zM89 0v301h-35v-301h35z" />
    <glyph glyph-name="section" unicode="&#xa7;" horiz-adv-x="383" 
d="M328 80c0 32 -6.16895 58.5049 -18.502 79.5049s-28.833 37.833 -49.5 50.5c12 6.66699 23.167 14 33.5 22s19.333 17.5 27 28.5s13.834 23.667 18.501 38s7 30.833 7 49.5c0 22.667 -4 43.167 -12 61.5s-18.833 34.166 -32.5 47.499s-29.834 24.333 -48.501 33
s-39 14.667 -61 18c-30 4.66699 -52.833 15.5 -68.5 32.5s-23.5 38.5 -23.5 64.5c0 10 1.83301 20 5.5 30s9 19 16 27s16 14.667 27 20s23.5 8 37.5 8c22.667 0 41.834 -5.83301 57.501 -17.5s29.167 -27.834 40.5 -48.501l30 20
c-5.33301 10.667 -11.666 21.167 -18.999 31.5s-16 19.333 -26 27s-21.833 13.834 -35.5 18.501s-29.5 7 -47.5 7c-20.667 0 -38.834 -3.5 -54.501 -10.5s-29 -16.333 -40 -28s-19.333 -25 -25 -40s-8.5 -30.5 -8.5 -46.5c0 -16.667 2.16699 -31.167 6.5 -43.5
s9.83301 -23 16.5 -32s14.167 -16.667 22.5 -23s16.833 -11.833 25.5 -16.5c-9.33301 -4 -19.333 -9.5 -30 -16.5s-20.5 -16 -29.5 -27s-16.667 -24.667 -23 -41s-9.5 -35.833 -9.5 -58.5s4 -42.667 12 -60s18.833 -32.333 32.5 -45s29.167 -22.667 46.5 -30s35 -12 53 -14
c17.333 -2 32.333 -6.66699 45 -14s23.334 -16.5 32.001 -27.5s15 -23 19 -36s6 -25.833 6 -38.5c0 -24.667 -8.33301 -45.834 -25 -63.501s-40.667 -26.5 -72 -26.5c-14.667 0 -27.667 2.16699 -39 6.5s-21 10.166 -29 17.499s-14.833 15.666 -20.5 24.999
s-10.167 18.666 -13.5 27.999l-37 -17c9.33301 -27.333 25.5 -50.666 48.5 -69.999s53.167 -29 90.5 -29c42 0 76.167 11.667 102.5 35s39.5 54.666 39.5 93.999zM82.998 350.005c0 11.333 1.83105 23.168 5.49805 35.501s9.66699 23.666 18 33.999s18.833 18.833 31.5 25.5
s28 10 46 10c40.667 0 70.334 -10.5 89.001 -31.5s28 -47.167 28 -78.5c0 -30 -9.5 -54.167 -28.5 -72.5s-45.833 -27.5 -80.5 -27.5c-13.333 0 -26.5 2.16699 -39.5 6.5s-24.667 11 -35 20s-18.666 20 -24.999 33s-9.5 28.167 -9.5 45.5z" />
    <glyph glyph-name="dieresis" unicode="&#xa8;" horiz-adv-x="316" 
d="M119 659c0 9.33301 -3 17 -9 23s-13.667 9 -23 9s-17 -3 -23 -9s-9 -13.667 -9 -23s3 -17 9 -23s13.667 -9 23 -9s17 3 23 9s9 13.667 9 23zM257 659c0 9.33301 -3 17 -9 23s-13.667 9 -23 9s-17 -3 -23 -9s-9 -13.667 -9 -23s3 -17 9 -23s13.667 -9 23 -9s17 3 23 9
s9 13.667 9 23z" />
    <glyph glyph-name="copyright" unicode="&#xa9;" horiz-adv-x="588" 
d="M187 394c0 12.667 2.33105 24.9961 6.99805 36.9961s11.5 22.667 20.5 32s20.5 16.833 34.5 22.5s30 8.5 48 8.5c21.333 0 39.833 -3.66699 55.5 -11s28.834 -15 39.501 -23v24c-10 6.66699 -22.333 13.334 -37 20.001s-34 10 -58 10c-22 0 -41 -3.5 -57 -10.5
s-29.5 -16 -40.5 -27s-19.167 -23.833 -24.5 -38.5s-8 -29.334 -8 -44.001c0 -15.333 2.66699 -30.166 8 -44.499s13.5 -27.166 24.5 -38.499s24.667 -20.5 41 -27.5s35.166 -10.5 56.499 -10.5c25.333 0 45.5 4 60.5 12s26.5 15.667 34.5 23v24
c-11.333 -11.333 -24.166 -20.666 -38.499 -27.999s-33.166 -11 -56.499 -11c-18 0 -34 2.83301 -48 8.5s-25.5 13.334 -34.5 23.001s-15.833 20.5 -20.5 32.5s-7 24.333 -7 37zM559.998 388.996c0 36 -6.83301 70 -20.5 102s-32.5 60 -56.5 84s-52 42.833 -84 56.5
s-66 20.5 -102 20.5s-70 -6.83301 -102 -20.5s-60 -32.5 -84 -56.5s-42.833 -52 -56.5 -84s-20.5 -66 -20.5 -102s6.83301 -70 20.5 -102s32.5 -60 56.5 -84s52 -42.833 84 -56.5s66 -20.5 102 -20.5s70 6.83301 102 20.5s60 32.5 84 56.5s42.833 52 56.5 84
s20.5 66 20.5 102zM54.998 389.996c0 33.333 6.33301 64.833 19 94.5s30 55.5 52 77.5s47.833 39.333 77.5 52s61.167 19 94.5 19s64.833 -6.33301 94.5 -19s55.5 -30 77.5 -52s39.333 -47.833 52 -77.5s19 -61.167 19 -94.5s-6.33301 -64.833 -19 -94.5
s-30 -55.5 -52 -77.5s-47.833 -39.333 -77.5 -52s-61.167 -19 -94.5 -19s-64.833 6.33301 -94.5 19s-55.5 30 -77.5 52s-39.333 47.833 -52 77.5s-19 61.167 -19 94.5z" />
    <glyph glyph-name="ordfeminine" unicode="&#xaa;" horiz-adv-x="403" 
d="M379 311h-336v-25h336v25zM202 672c11.333 0 22.665 -1.66699 33.998 -5s21.5 -8.66602 30.5 -15.999s16.333 -16.5 22 -27.5s8.5 -23.833 8.5 -38.5v-34c-9.33301 12.667 -22.833 24.167 -40.5 34.5s-40.834 15.5 -69.501 15.5c-19.333 0 -36.666 -3 -51.999 -9
s-28.166 -14.333 -38.499 -25s-18.333 -22.834 -24 -36.501s-8.5 -27.834 -8.5 -42.501c0 -14 2.66699 -27.833 8 -41.5s13 -25.834 23 -36.501s22.667 -19.167 38 -25.5s33 -9.5 53 -9.5c16.667 0 31 1.66699 43 5s22.333 7.33301 31 12s16 9.83398 22 15.501
s11 10.834 15 15.501v-42h68v22h-44v187c0 34 -11.333 60.333 -34 79s-51 28 -85 28c-19.333 0 -38.166 -3.16699 -56.499 -9.5s-33.5 -15.5 -45.5 -27.5l14 -20c9.33301 9.33301 21.833 17 37.5 23s32.5 9 50.5 9zM88.999 488c0 10.667 2 21.3301 6 31.9971
s10 20.334 18 29.001s18.167 15.5 30.5 20.5s26.833 7.5 43.5 7.5c17.333 0 32.666 -2.5 45.999 -7.5s24.333 -11.667 33 -20s15.167 -17.833 19.5 -28.5s6.5 -21.667 6.5 -33s-2.16699 -22.166 -6.5 -32.499s-10.833 -19.666 -19.5 -27.999s-19.667 -15 -33 -20
s-28.666 -7.5 -45.999 -7.5c-32.667 0 -57.167 9 -73.5 27s-24.5 38.333 -24.5 61z" />
    <glyph glyph-name="guillemotleft" unicode="&#xab;" horiz-adv-x="439" 
d="M223 70l18 18l-170 169l171 171l-18 17l-187 -188zM377 70l17 18l-170 169l171 171l-17 17l-188 -188z" />
    <glyph glyph-name="logicalnot" unicode="&#xac;" 
d="M255 391h-233v-20h233v20zM147 753h-45v-17h27v-288h-27v-16h73v16h-28v305zM235 243c0 22.667 -8.49805 41.667 -25.498 57s-40.167 23 -69.5 23s-52.5 -7.66699 -69.5 -23s-25.5 -34.333 -25.5 -57c0 -11.333 2.16699 -21.333 6.5 -30s9.5 -16 15.5 -22
s12.5 -10.667 19.5 -14s13.167 -5.66602 18.5 -6.99902c-6 -2 -12.833 -5 -20.5 -9s-14.667 -9.5 -21 -16.5s-11.833 -15.333 -16.5 -25s-7 -20.834 -7 -33.501c0 -11.333 2.16699 -22.5 6.5 -33.5s10.833 -20.833 19.5 -29.5s19.167 -15.667 31.5 -21s26.5 -8 42.5 -8
s30.167 2.66699 42.5 8s22.833 12.333 31.5 21s15.167 18.5 19.5 29.5s6.5 22.167 6.5 33.5c0 12.667 -2.5 24 -7.5 34s-11 18.5 -18 25.5s-14.333 12.5 -22 16.5s-14.5 6.66699 -20.5 8c5.33301 1.33301 11.666 3.66602 18.999 6.99902s14.166 7.83301 20.499 13.5
s11.833 12.834 16.5 21.501s7 19 7 31zM217.002 243c0 -15.333 -6.5 -29.5 -19.5 -42.5s-32.167 -19.5 -57.5 -19.5s-44.333 6.5 -57 19.5s-19 27.167 -19 42.5s6.33301 29.5 19 42.5s31.667 19.5 57 19.5s44.5 -6.5 57.5 -19.5s19.5 -27.167 19.5 -42.5zM220.002 85
c0 -18.667 -6.66699 -35.5 -20 -50.5s-33.333 -22.5 -60 -22.5s-46.5 7.5 -59.5 22.5s-19.5 31.833 -19.5 50.5c0 18 6.5 34.5 19.5 49.5s32.833 22.5 59.5 22.5s46.667 -7.5 60 -22.5s20 -31.5 20 -49.5z" />
    <glyph glyph-name="registered" unicode="&#xae;" horiz-adv-x="404" 
d="M265 585c0 14 -4.66699 25.667 -14 35s-21.666 14 -36.999 14h-70v-182h14v84h31l58 -84h18l-59 84h8c15.333 0 27.666 4 36.999 12s14 20.333 14 37zM251 585c0 -23.333 -12 -35 -36 -35h-57v70h57c12 0 21 -3.5 27 -10.5s9 -15.167 9 -24.5zM357 539
c0 22 -4.16699 42.5 -12.5 61.5s-19.666 35.667 -33.999 50s-31 25.666 -50 33.999s-39.5 12.5 -61.5 12.5s-42.5 -4.16699 -61.5 -12.5s-35.667 -19.666 -50 -33.999s-25.666 -31 -33.999 -50s-12.5 -39.5 -12.5 -61.5s4.16699 -42.5 12.5 -61.5s19.666 -35.667 33.999 -50
s31 -25.666 50 -33.999s39.5 -12.5 61.5 -12.5s42.5 4.16699 61.5 12.5s35.667 19.666 50 33.999s25.666 31 33.999 50s12.5 39.5 12.5 61.5zM56 539c0 20 3.66699 38.667 11 56s17.5 32.5 30.5 45.5s28.167 23.167 45.5 30.5s36 11 56 11s38.667 -3.66699 56 -11
s32.5 -17.5 45.5 -30.5s23.167 -28.167 30.5 -45.5s11 -36 11 -56s-3.66699 -38.667 -11 -56s-17.5 -32.5 -30.5 -45.5s-28.167 -23.167 -45.5 -30.5s-36 -11 -56 -11s-38.667 3.66699 -56 11s-32.5 17.5 -45.5 30.5s-23.167 28.167 -30.5 45.5s-11 36 -11 56z" />
    <glyph glyph-name="macron" unicode="&#xaf;" horiz-adv-x="449" 
d="M414 679h-367v-36h367v36z" />
    <glyph glyph-name="degree" unicode="&#xb0;" horiz-adv-x="212" 
d="M188 616c0 22.667 -8 42 -24 58s-35.333 24 -58 24s-42 -8 -58 -24s-24 -35.333 -24 -58s8 -42 24 -58s35.333 -24 58 -24s42 8 58 24s24 35.333 24 58zM44 616c0 17.333 6 32 18 44s26.667 18 44 18s32 -6 44 -18s18 -26.667 18 -44s-6 -32 -18 -44s-26.667 -18 -44 -18
s-32 6 -44 18s-18 26.667 -18 44z" />
    <glyph glyph-name="plusminus" unicode="&#xb1;" horiz-adv-x="383" 
d="M174 392h-102v-41h102v-102h41v102h102v41h-102v102h-41v-102zM317 211h-245v-41h245v41z" />
    <glyph glyph-name="twosuperior" unicode="&#xb2;" 
d="M47 673h20.002c4 15.333 11.5 28.833 22.5 40.5s28.167 17.5 51.5 17.5s41.666 -5.83301 54.999 -17.5s20 -25.834 20 -42.501c0 -19.333 -6.33301 -35.166 -19 -47.499s-28 -25.5 -46 -39.5l-32 -25c-10.667 -8.66699 -20.5 -17.834 -29.5 -27.501s-17 -20 -24 -31
s-11.833 -23.5 -14.5 -37.5l-8 -38h192v19h-165l3 16c6 24.667 17.667 45.167 35 61.5s35.666 32.166 54.999 47.499c18 14.667 34.5 29.834 49.5 45.501s22.5 34.5 22.5 56.5c0 20.667 -7.83301 38.834 -23.5 54.501s-39.167 23.5 -70.5 23.5
c-15.333 0 -28.5 -2.33301 -39.5 -7s-20.333 -10.5 -28 -17.5s-13.5 -15.167 -17.5 -24.5s-7 -18.333 -9 -27z" />
    <glyph glyph-name="threesuperior" unicode="&#xb3;" 
d="M46 681l19.0059 0.00195312c0.666992 6 2.5 12.167 5.5 18.5s7.5 12.166 13.5 17.499s13.667 9.66602 23 12.999s20.666 5 33.999 5c22.667 0 41.167 -5.5 55.5 -16.5s21.5 -26.5 21.5 -46.5c0 -11.333 -2.16699 -20.833 -6.5 -28.5s-9.66602 -14 -15.999 -19
s-13.5 -8.66699 -21.5 -11s-16 -3.5 -24 -3.5h-28v-19h28c17.333 0 33.333 -6.66699 48 -20s22 -32.333 22 -57c0 -13.333 -2.5 -24.666 -7.5 -33.999s-11.333 -16.833 -19 -22.5s-16.334 -9.66699 -26.001 -12s-18.834 -3.5 -27.501 -3.5c-23.333 0 -41.5 5 -54.5 15
s-21.167 22.667 -24.5 38h-19c3.33301 -18.667 12.666 -35.167 27.999 -49.5s39 -21.5 71 -21.5c12 0 23.833 1.66699 35.5 5s22 8.66602 31 15.999s16.333 16.666 22 27.999s8.5 25 8.5 41c0 25.333 -6 45 -18 59s-24.667 23 -38 27
c5.33301 0.666992 11.166 2.83398 17.499 6.50098s12.166 8.5 17.499 14.5s9.83301 13.333 13.5 22s5.5 18.334 5.5 29.001c0 23.333 -8.5 42.666 -25.5 57.999s-40.167 23 -69.5 23c-16.667 0 -30.834 -2.33301 -42.501 -7s-21.167 -10.5 -28.5 -17.5s-13 -14.667 -17 -23
s-6.33301 -16.5 -7 -24.5z" />
    <glyph glyph-name="acute" unicode="&#xb4;" horiz-adv-x="265" 
d="M216 728l-29 29l-125 -125l29 -29z" />
    <glyph glyph-name="mu" unicode="&#xb5;" horiz-adv-x="485" 
d="M398 26c-12 0 -23.3359 4 -34.0029 12s-16 25 -16 51v391h97v35h-97v113c0 16.667 -3.33301 32 -10 46s-15.667 26 -27 36s-25.166 17.833 -41.499 23.5s-33.833 8.5 -52.5 8.5c-17.333 0 -33.833 -2.66699 -49.5 -8s-29.5 -12.833 -41.5 -22.5s-21.5 -21.5 -28.5 -35.5
s-10.5 -30 -10.5 -48v-113h-56v-35h56v-444h-61v-36h163v36h-61v444h96v35h-96v107c0 26.667 8.33301 46.667 25 60s38 20 64 20c26.667 0 48.334 -6.83301 65.001 -20.5s25 -33.5 25 -59.5v-107h-57v-35h57v-401c0 -17.333 2.33301 -32 7 -44s11 -21.667 19 -29
s17.167 -12.5 27.5 -15.5s21.166 -4.5 32.499 -4.5c17.333 0 30.833 1.83301 40.5 5.5s17.834 7.16699 24.501 10.5v41c-7.33301 -4.66699 -15.666 -8.66699 -24.999 -12s-21 -5 -35 -5z" />
    <glyph glyph-name="paragraph" unicode="&#xb6;" horiz-adv-x="505" 
d="M351 -61v775h-108c-30 0 -57 -4.5 -81 -13.5s-44.333 -21.5 -61 -37.5s-29.5 -34.833 -38.5 -56.5s-13.5 -45.167 -13.5 -70.5s4.5 -49 13.5 -71s21.833 -41 38.5 -57s37 -28.5 61 -37.5s51 -13.5 81 -13.5h67v-418h41zM446 -61v775h-41v-775h41z" />
    <glyph glyph-name="periodcentered" unicode="&#xb7;" horiz-adv-x="235" 
d="M167 395c0 15.333 -5 28 -15 38s-22.667 15 -38 15c-14.667 0 -27.167 -5 -37.5 -15s-15.5 -22.667 -15.5 -38c0 -14.667 5.16699 -27.167 15.5 -37.5s22.833 -15.5 37.5 -15.5c15.333 0 28 5.16699 38 15.5s15 22.833 15 37.5z" />
    <glyph glyph-name="periodcentered" unicode="&#x2219;" horiz-adv-x="235" 
d="M167 395c0 15.333 -5 28 -15 38s-22.667 15 -38 15c-14.667 0 -27.167 -5 -37.5 -15s-15.5 -22.667 -15.5 -38c0 -14.667 5.16699 -27.167 15.5 -37.5s22.833 -15.5 37.5 -15.5c15.333 0 28 5.16699 38 15.5s15 22.833 15 37.5z" />
    <glyph glyph-name="cedilla" unicode="&#xb8;" horiz-adv-x="209" 
d="M137 -41l13.001 41.0029h-44l-16 -45c10.667 -4 20.5 -9.33301 29.5 -16s13.5 -14.667 13.5 -24c0 -10.667 -2.5 -18 -7.5 -22s-11.167 -6 -18.5 -6c-9.33301 0 -19.333 2.16699 -30 6.5s-19 10.166 -25 17.499v-40c7.33301 -7.33301 16.166 -13.333 26.499 -18
s20.833 -7 31.5 -7c19.333 0 35.333 5.5 48 16.5s19 26.5 19 46.5c0 13.333 -4.5 24.166 -13.5 32.499s-17.833 14.166 -26.5 17.499z" />
    <glyph glyph-name="onesuperior" unicode="&#xb9;" 
d="M150 754h-45v-17h27v-288h-27v-16h73v16h-28v305z" />
    <glyph glyph-name="ordmasculine" unicode="&#xba;" horiz-adv-x="392" 
d="M349 311h-300v-25h300v25zM340 539c0 20.667 -3.16699 40.667 -9.5 60s-15.833 36.666 -28.5 51.999s-28 27.666 -46 36.999s-39 14 -63 14s-45 -4.66699 -63 -14s-33.333 -21.666 -46 -36.999s-22.167 -32.666 -28.5 -51.999s-9.5 -39.333 -9.5 -60
s3.16699 -40.834 9.5 -60.501s15.833 -37 28.5 -52s28 -27.167 46 -36.5s39 -14 63 -14s45 4.66699 63 14s33.333 21.5 46 36.5s22.167 32.333 28.5 52s9.5 39.834 9.5 60.501zM316 539c0 -17.333 -2.5 -34.166 -7.5 -50.499s-12.667 -31 -23 -44
s-23.166 -23.5 -38.499 -31.5s-33.333 -12 -54 -12s-38.667 4 -54 12s-28.166 18.5 -38.499 31.5s-18 27.667 -23 44s-7.5 33.166 -7.5 50.499c0 16.667 2.5 33.334 7.5 50.001s12.667 31.5 23 44.5s23.166 23.5 38.499 31.5s33.333 12 54 12s38.667 -4 54 -12
s28.166 -18.5 38.499 -31.5s18 -27.833 23 -44.5s7.5 -33.334 7.5 -50.001z" />
    <glyph glyph-name="guillemotright" unicode="&#xbb;" horiz-adv-x="439" 
d="M49 429l171 -172l-170 -170l17 -18l188 188l-189 189zM198 429l171 -172l-170 -170l17 -18l188 188l-189 189z" />
    <glyph glyph-name="onequarter" unicode="&#xbc;" 
d="M258 391h-232v-20h232v20zM150 754h-45v-17h27v-288h-27v-16h73v16h-28v305zM199 97v230h-14l-163 -235v-13h158v-59h-18v-19h55v19h-18v59h29v18h-29zM180 97h-132l132 190v-190z" />
    <glyph glyph-name="onehalf" unicode="&#xbd;" 
d="M255 389h-233v-20h233v20zM151 753h-45v-17h27v-288h-27v-16h73v16h-28v305zM45 247h20.002c4 15.333 11.5 28.833 22.5 40.5s28.167 17.5 51.5 17.5s41.666 -5.83301 54.999 -17.5s20 -25.834 20 -42.501c0 -19.333 -6.33301 -35.166 -19 -47.499s-28 -25.5 -46 -39.5
l-32 -25c-10.667 -8.66699 -20.5 -17.834 -29.5 -27.501s-17 -20 -24 -31s-11.833 -23.5 -14.5 -37.5l-8 -38h192v19h-165l3 16c6 24.667 17.667 45.167 35 61.5s35.666 32.166 54.999 47.499c18 14.667 34.5 29.834 49.5 45.501s22.5 34.5 22.5 56.5
c0 20.667 -7.83301 38.834 -23.5 54.501s-39.167 23.5 -70.5 23.5c-15.333 0 -28.5 -2.33301 -39.5 -7s-20.333 -10.5 -28 -17.5s-13.5 -15.167 -17.5 -24.5s-7 -18.333 -9 -27z" />
    <glyph glyph-name="threequarters" unicode="&#xbe;" 
d="M258 391h-232v-20h232v20zM46 681l19.0059 0.00195312c0.666992 6 2.5 12.167 5.5 18.5s7.5 12.166 13.5 17.499s13.667 9.66602 23 12.999s20.666 5 33.999 5c22.667 0 41.167 -5.5 55.5 -16.5s21.5 -26.5 21.5 -46.5c0 -11.333 -2.16699 -20.833 -6.5 -28.5
s-9.66602 -14 -15.999 -19s-13.5 -8.66699 -21.5 -11s-16 -3.5 -24 -3.5h-28v-19h28c17.333 0 33.333 -6.66699 48 -20s22 -32.333 22 -57c0 -13.333 -2.5 -24.666 -7.5 -33.999s-11.333 -16.833 -19 -22.5s-16.334 -9.66699 -26.001 -12s-18.834 -3.5 -27.501 -3.5
c-23.333 0 -41.5 5 -54.5 15s-21.167 22.667 -24.5 38h-19c3.33301 -18.667 12.666 -35.167 27.999 -49.5s39 -21.5 71 -21.5c12 0 23.833 1.66699 35.5 5s22 8.66602 31 15.999s16.333 16.666 22 27.999s8.5 25 8.5 41c0 25.333 -6 45 -18 59s-24.667 23 -38 27
c5.33301 0.666992 11.166 2.83398 17.499 6.50098s12.166 8.5 17.499 14.5s9.83301 13.333 13.5 22s5.5 18.334 5.5 29.001c0 23.333 -8.5 42.666 -25.5 57.999s-40.167 23 -69.5 23c-16.667 0 -30.834 -2.33301 -42.501 -7s-21.167 -10.5 -28.5 -17.5s-13 -14.667 -17 -23
s-6.33301 -16.5 -7 -24.5zM199.006 97.002v230h-14l-163 -235v-13h158v-59h-18v-19h55v19h-18v59h29v18h-29zM180.006 97.002h-132l132 190v-190z" />
    <glyph glyph-name="questiondown" unicode="&#xbf;" horiz-adv-x="439" 
d="M222 327c-24.667 -2 -48.499 -7.16992 -71.499 -15.5029s-43.5 -20.666 -61.5 -36.999s-32.333 -37.333 -43 -63s-16 -56.834 -16 -93.501c0 -30 4.66699 -57.167 14 -81.5s22.5 -45.166 39.5 -62.499s37.833 -30.666 62.5 -39.999s52 -14 82 -14
c28.667 0 53.5 4.16699 74.5 12.5s39 18.833 54 31.5s27.167 26.834 36.5 42.501s17 30.834 23 45.501l-38 18c-4.66699 -12.667 -10.834 -25.5 -18.501 -38.5s-17.5 -24.833 -29.5 -35.5s-26.5 -19.334 -43.5 -26.001s-36.5 -10 -58.5 -10c-49.333 0 -88 14.333 -116 43
s-42 67 -42 115c0 31.333 4.5 58 13.5 80s21.833 39.833 38.5 53.5s37 23.667 61 30s50.667 9.83301 80 10.5v170h-41v-135zM207.001 611.997c0 -10 3.5 -18.5 10.5 -25.5s15.5 -10.5 25.5 -10.5s18.5 3.5 25.5 10.5s10.5 15.5 10.5 25.5s-3.5 18.5 -10.5 25.5
s-15.5 10.5 -25.5 10.5s-18.5 -3.5 -25.5 -10.5s-10.5 -15.5 -10.5 -25.5z" />
    <glyph glyph-name="Agrave" unicode="&#xc0;" horiz-adv-x="729" 
d="M363 757l23 23l-99 100l-24 -24zM370 669l148 -408h-292zM216 42h-67l62 177h321l63 -177h-68v-42h173v42h-56l-226 630h56v42h-208v-42h56l-226 -630h-63v-42h183v42z" />
    <glyph glyph-name="Aacute" unicode="&#xc1;" horiz-adv-x="729" 
d="M469 856l-23 24l-99 -100l22 -23zM370 669l148 -408h-292zM216 42h-67l62 177h321l63 -177h-68v-42h173v42h-56l-226 630h56v42h-208v-42h56l-226 -630h-63v-42h183v42z" />
    <glyph glyph-name="Acircumflex" unicode="&#xc2;" horiz-adv-x="729" 
d="M358 871l-94 -94l19 -19l84 85l85 -85l18 20l-93 93h-19zM370 669l148 -408h-292zM216 42h-67l62 177h321l63 -177h-68v-42h173v42h-56l-226 630h56v42h-208v-42h56l-226 -630h-63v-42h183v42z" />
    <glyph glyph-name="Atilde" unicode="&#xc3;" horiz-adv-x="729" 
d="M211 805l27.9971 -21.998c5.33301 6.66699 13 13.834 23 21.501s25.333 11.5 46 11.5c13.333 0 24 -2.16699 32 -6.5s15.667 -9.5 23 -15.5c9.33301 -6 19.333 -11.833 30 -17.5s25.334 -8.5 44.001 -8.5c24.667 0 44.334 5.5 59.001 16.5s26.667 21.167 36 30.5l-29 23
c-6 -6.66699 -13.667 -13.334 -23 -20.001s-23.666 -10 -42.999 -10c-11.333 0 -21.5 2.66699 -30.5 8s-18.833 11.666 -29.5 18.999c-8.66699 5.33301 -18.5 10.166 -29.5 14.499s-24.167 6.5 -39.5 6.5c-14 0 -26.333 -1.83301 -37 -5.5s-20 -8 -28 -13
s-14.5 -10.5 -19.5 -16.5s-9.16699 -11.333 -12.5 -16zM369.997 669.002l148 -408h-292zM215.997 42.002h-67l62 177h321l63 -177h-68v-42h173v42h-56l-226 630h56v42h-208v-42h56l-226 -630h-63v-42h183v42z" />
    <glyph glyph-name="Adieresis" unicode="&#xc4;" horiz-adv-x="724" 
d="M331 797c0 9.33301 -3 17 -9 23s-13.667 9 -23 9s-17 -3 -23 -9s-9 -13.667 -9 -23s3 -17 9 -23s13.667 -9 23 -9s17 3 23 9s9 13.667 9 23zM469 797c0 9.33301 -3 17 -9 23s-13.667 9 -23 9s-17 -3 -23 -9s-9 -13.667 -9 -23s3 -17 9 -23s13.667 -9 23 -9s17 3 23 9
s9 13.667 9 23zM370 669l148 -408h-292zM216 42h-67l62 177h321l63 -177h-68v-42h173v42h-56l-226 630h56v42h-208v-42h56l-226 -630h-63v-42h183v42z" />
    <glyph glyph-name="Aring" unicode="&#xc5;" horiz-adv-x="724" 
d="M453 815c0 22.667 -8 42 -24 58s-35.333 24 -58 24s-42 -8 -58 -24s-24 -35.333 -24 -58s8 -42 24 -58s35.333 -24 58 -24s42 8 58 24s24 35.333 24 58zM309 815c0 17.333 6 32 18 44s26.667 18 44 18s32 -6 44 -18s18 -26.667 18 -44s-6 -32 -18 -44
s-26.667 -18 -44 -18s-32 6 -44 18s-18 26.667 -18 44zM370 669l148 -408h-292zM216 42h-67l62 177h321l63 -177h-68v-42h173v42h-56l-226 630h56v42h-208v-42h56l-226 -630h-63v-42h183v42z" />
    <glyph glyph-name="AE" unicode="&#xc6;" horiz-adv-x="747" 
d="M373 671v-304h-120zM716 714h-468v-42h77l-250 -630h-61v-42h179v42h-70l115 286h135v-286h-76v-42h419v120h-42v-78h-253v334h189v-51h42v144h-42v-51h-189v254h253v-75h42v117z" />
    <glyph glyph-name="Ccedilla" unicode="&#xc7;" horiz-adv-x="703" 
d="M424 -10c32.667 1.33301 61.834 5.83203 87.501 13.499s48.167 16.834 67.5 27.501s35.666 22 48.999 34s24.333 23 33 33v61c-13.333 -15.333 -28.5 -30.333 -45.5 -45s-36 -27.667 -57 -39s-44.333 -20.333 -70 -27s-53.834 -10 -84.501 -10
c-45.333 0 -87.5 8 -126.5 24s-72.667 38.167 -101 66.5s-50.5 62 -66.5 101s-24 81.167 -24 126.5s8 87.5 24 126.5s38.167 72.667 66.5 101s62 50.5 101 66.5s81.167 24 126.5 24c49.333 0 91.333 -8.16699 126 -24.5s65 -35.5 91 -57.5v-63h48v177h-48v-55
c-10 8 -22.167 16.333 -36.5 25s-30.666 16.334 -48.999 23.001s-38.5 12.167 -60.5 16.5s-45.667 6.5 -71 6.5c-51.333 0 -99.333 -9.33301 -144 -28s-83.5 -44.5 -116.5 -77.5s-58.833 -71.833 -77.5 -116.5s-28 -92.667 -28 -144c0 -49.333 8.66699 -95.666 26 -138.999
s41.333 -81.166 72 -113.499s67 -58.5 109 -78.5s87.333 -31.333 136 -34l-22 -54c14.667 0 26.334 -3 35.001 -9s13 -13.333 13 -22c0 -10.667 -2.83301 -18 -8.5 -22s-12.167 -6 -19.5 -6c-9.33301 0 -18.833 2.16699 -28.5 6.5s-17.5 10.166 -23.5 17.499v-40
c7.33301 -7.33301 16 -13.333 26 -18s20.667 -7 32 -7c19.333 0 35.166 5.5 47.499 16.5s18.5 26.5 18.5 46.5c0 13.333 -4.33301 24.666 -13 33.999s-17.667 15.666 -27 18.999z" />
    <glyph glyph-name="Egrave" unicode="&#xc8;" horiz-adv-x="485" 
d="M271 757l23 23l-99 100l-24 -24zM446 597v117h-419v-42h76v-630h-76v-42h419v120h-42v-78h-253v334h189v-51h42v144h-42v-51h-189v254h253v-75h42z" />
    <glyph glyph-name="Eacute" unicode="&#xc9;" horiz-adv-x="485" 
d="M351 856l-23 24l-99 -100l22 -23zM446 597v117h-419v-42h76v-630h-76v-42h419v120h-42v-78h-253v334h189v-51h42v144h-42v-51h-189v254h253v-75h42z" />
    <glyph glyph-name="Ecircumflex" unicode="&#xca;" horiz-adv-x="485" 
d="M254 871l-94 -94l19 -19l84 85l85 -85l18 20l-94 93h-18zM446 597v117h-419v-42h76v-630h-76v-42h419v120h-42v-78h-253v334h189v-51h42v144h-42v-51h-189v254h253v-75h42z" />
    <glyph glyph-name="Edieresis" unicode="&#xcb;" horiz-adv-x="485" 
d="M228 797c0 9.33301 -3 17 -9 23s-13.667 9 -23 9s-17 -3 -23 -9s-9 -13.667 -9 -23s3 -17 9 -23s13.667 -9 23 -9s17 3 23 9s9 13.667 9 23zM366 797c0 9.33301 -3 17 -9 23s-13.667 9 -23 9s-17 -3 -23 -9s-9 -13.667 -9 -23s3 -17 9 -23s13.667 -9 23 -9s17 3 23 9
s9 13.667 9 23zM446 597v117h-419v-42h76v-630h-76v-42h419v120h-42v-78h-253v334h189v-51h42v144h-42v-51h-189v254h253v-75h42z" />
    <glyph glyph-name="Igrave" unicode="&#xcc;" horiz-adv-x="302" 
d="M137 757l22 23l-99 100l-23 -24zM250 672v42h-194v-42h73v-630h-73v-42h194v42h-73v630h73z" />
    <glyph glyph-name="Iacute" unicode="&#xcd;" horiz-adv-x="302" 
d="M261 856l-23 24l-99 -100l22 -23zM250 672v42h-194v-42h73v-630h-73v-42h194v42h-73v630h73z" />
    <glyph glyph-name="Icircumflex" unicode="&#xce;" horiz-adv-x="302" 
d="M141 871l-94 -94l18 -19l85 85l85 -85l18 20l-94 93h-18zM250 672v42h-194v-42h73v-630h-73v-42h194v42h-73v630h73z" />
    <glyph glyph-name="Idieresis" unicode="&#xcf;" horiz-adv-x="302" 
d="M114 797c0 9.33301 -3 17 -9 23s-13.667 9 -23 9s-17 -3 -23 -9s-9 -13.667 -9 -23s3 -17 9 -23s13.667 -9 23 -9s17 3 23 9s9 13.667 9 23zM252 797c0 9.33301 -3 17 -9 23s-13.667 9 -23 9s-17 -3 -23 -9s-9 -13.667 -9 -23s3 -17 9 -23s13.667 -9 23 -9s17 3 23 9
s9 13.667 9 23zM250 672v42h-194v-42h73v-630h-73v-42h194v42h-73v630h73z" />
    <glyph glyph-name="Eth" unicode="&#xd0;" horiz-adv-x="673" 
d="M152 393l0.00195312 279h172c39.333 0 76.5 -7.66699 111.5 -23s65.667 -37 92 -65s47.166 -61.167 62.499 -99.5s23 -80.5 23 -126.5s-7.83301 -88.333 -23.5 -127s-36.834 -72 -63.501 -100s-57.5 -49.833 -92.5 -65.5s-71.5 -23.5 -109.5 -23.5h-172v309h186v42h-186z
M104.002 351l-0.000976562 -309h-76v-42h299c43.333 0 85 8.16699 125 24.5s75.5 40 106.5 71s55.833 68.667 74.5 113s28 94.166 28 149.499c0 54.667 -9.16699 104 -27.5 148s-42.666 81.333 -72.999 112s-65.5 54.334 -105.5 71.001s-82 25 -126 25h-301v-42h76v-279h-77
v-42h77z" />
    <glyph glyph-name="Ntilde" unicode="&#xd1;" horiz-adv-x="755" 
d="M202 805l27.998 -22c5.33301 6.66699 13 13.834 23 21.501s25.333 11.5 46 11.5c12.667 0 23.167 -2.16699 31.5 -6.5s16.166 -9.5 23.499 -15.5c8.66699 -6 18.5 -11.833 29.5 -17.5s25.833 -8.5 44.5 -8.5c12 0 22.833 1.5 32.5 4.5s18.334 6.83301 26.001 11.5
s14.334 9.83398 20.001 15.501l15.5 15.5l-28 23c-6 -6.66699 -13.667 -13.334 -23 -20.001s-23.666 -10 -42.999 -10c-11.333 0 -21.5 2.66699 -30.5 8l-30.5 19c-8 5.33301 -17.5 10.166 -28.5 14.499s-24.167 6.5 -39.5 6.5c-14 0 -26.333 -1.83301 -37 -5.5
s-20 -8 -28 -13s-14.5 -10.5 -19.5 -16.5s-9.16699 -11.333 -12.5 -16zM626.998 672v-568l-513 610h-89v-42h61v-630h-61v-42h170v42h-61v568l517 -612h24v674h62v42h-172v-42h62z" />
    <glyph glyph-name="Ograve" unicode="&#xd2;" horiz-adv-x="804" 
d="M412 757l23 23l-99 100l-24 -24zM404 -10c50.667 0 98.167 9.66699 142.5 29s83.166 45.5 116.499 78.5s59.666 71.667 78.999 116s29 91.833 29 142.5s-9.66699 98.167 -29 142.5s-45.666 83 -78.999 116s-72.166 59.167 -116.499 78.5s-91.833 29 -142.5 29
s-98.167 -9.66699 -142.5 -29s-83 -45.5 -116 -78.5s-59.167 -71.667 -78.5 -116s-29 -91.833 -29 -142.5s9.66699 -98.167 29 -142.5s45.5 -83 78.5 -116s71.667 -59.167 116 -78.5s91.833 -29 142.5 -29zM404 38c-43.333 0 -84.333 8.33301 -123 25
s-72.5 39.5 -101.5 68.5s-51.833 62.833 -68.5 101.5s-25 79.667 -25 123c0 44 8.33301 85.167 25 123.5s39.5 72 68.5 101s62.833 51.833 101.5 68.5s79.667 25 123 25c44 0 85.333 -8.33301 124 -25s72.5 -39.5 101.5 -68.5s51.833 -62.667 68.5 -101s25 -79.5 25 -123.5
c0 -43.333 -8.33301 -84.333 -25 -123s-39.5 -72.5 -68.5 -101.5s-62.833 -51.833 -101.5 -68.5s-80 -25 -124 -25z" />
    <glyph glyph-name="Oacute" unicode="&#xd3;" horiz-adv-x="804" 
d="M508 856l-23 24l-99 -100l22 -23zM404 -10c50.667 0 98.167 9.66699 142.5 29s83.166 45.5 116.499 78.5s59.666 71.667 78.999 116s29 91.833 29 142.5s-9.66699 98.167 -29 142.5s-45.666 83 -78.999 116s-72.166 59.167 -116.499 78.5s-91.833 29 -142.5 29
s-98.167 -9.66699 -142.5 -29s-83 -45.5 -116 -78.5s-59.167 -71.667 -78.5 -116s-29 -91.833 -29 -142.5s9.66699 -98.167 29 -142.5s45.5 -83 78.5 -116s71.667 -59.167 116 -78.5s91.833 -29 142.5 -29zM404 38c-43.333 0 -84.333 8.33301 -123 25
s-72.5 39.5 -101.5 68.5s-51.833 62.833 -68.5 101.5s-25 79.667 -25 123c0 44 8.33301 85.167 25 123.5s39.5 72 68.5 101s62.833 51.833 101.5 68.5s79.667 25 123 25c44 0 85.333 -8.33301 124 -25s72.5 -39.5 101.5 -68.5s51.833 -62.667 68.5 -101s25 -79.5 25 -123.5
c0 -43.333 -8.33301 -84.333 -25 -123s-39.5 -72.5 -68.5 -101.5s-62.833 -51.833 -101.5 -68.5s-80 -25 -124 -25z" />
    <glyph glyph-name="Ocircumflex" unicode="&#xd4;" horiz-adv-x="804" 
d="M395 871l-94 -94l18 -19l85 85l85 -85l18 20l-94 93h-18zM404 -10c50.667 0 98.167 9.66699 142.5 29s83.166 45.5 116.499 78.5s59.666 71.667 78.999 116s29 91.833 29 142.5s-9.66699 98.167 -29 142.5s-45.666 83 -78.999 116s-72.166 59.167 -116.499 78.5
s-91.833 29 -142.5 29s-98.167 -9.66699 -142.5 -29s-83 -45.5 -116 -78.5s-59.167 -71.667 -78.5 -116s-29 -91.833 -29 -142.5s9.66699 -98.167 29 -142.5s45.5 -83 78.5 -116s71.667 -59.167 116 -78.5s91.833 -29 142.5 -29zM404 38c-43.333 0 -84.333 8.33301 -123 25
s-72.5 39.5 -101.5 68.5s-51.833 62.833 -68.5 101.5s-25 79.667 -25 123c0 44 8.33301 85.167 25 123.5s39.5 72 68.5 101s62.833 51.833 101.5 68.5s79.667 25 123 25c44 0 85.333 -8.33301 124 -25s72.5 -39.5 101.5 -68.5s51.833 -62.667 68.5 -101s25 -79.5 25 -123.5
c0 -43.333 -8.33301 -84.333 -25 -123s-39.5 -72.5 -68.5 -101.5s-62.833 -51.833 -101.5 -68.5s-80 -25 -124 -25z" />
    <glyph glyph-name="Otilde" unicode="&#xd5;" horiz-adv-x="804" 
d="M240 805l27 -22c5.33301 6.66699 13.166 13.834 23.499 21.501s25.833 11.5 46.5 11.5c12.667 0 23.167 -2.16699 31.5 -6.5s16.166 -9.5 23.499 -15.5c8.66699 -6 18.5 -11.833 29.5 -17.5s25.5 -8.5 43.5 -8.5c12 0 23 1.5 33 4.5s18.833 6.83301 26.5 11.5
s14.334 9.83398 20.001 15.501l15.5 15.5l-28 23c-6.66699 -6.66699 -14.667 -13.334 -24 -20.001s-23.666 -10 -42.999 -10c-11.333 0 -21.333 2.66699 -30 8l-30 19c-8 5.33301 -17.5 10.166 -28.5 14.499s-24.167 6.5 -39.5 6.5c-14 0 -26.333 -1.83301 -37 -5.5
s-20 -8 -28 -13s-14.5 -10.5 -19.5 -16.5s-9.16699 -11.333 -12.5 -16zM404 -10c50.667 0 98.167 9.66699 142.5 29s83.166 45.5 116.499 78.5s59.666 71.667 78.999 116s29 91.833 29 142.5s-9.66699 98.167 -29 142.5s-45.666 83 -78.999 116
s-72.166 59.167 -116.499 78.5s-91.833 29 -142.5 29s-98.167 -9.66699 -142.5 -29s-83 -45.5 -116 -78.5s-59.167 -71.667 -78.5 -116s-29 -91.833 -29 -142.5s9.66699 -98.167 29 -142.5s45.5 -83 78.5 -116s71.667 -59.167 116 -78.5s91.833 -29 142.5 -29zM404 38
c-43.333 0 -84.333 8.33301 -123 25s-72.5 39.5 -101.5 68.5s-51.833 62.833 -68.5 101.5s-25 79.667 -25 123c0 44 8.33301 85.167 25 123.5s39.5 72 68.5 101s62.833 51.833 101.5 68.5s79.667 25 123 25c44 0 85.333 -8.33301 124 -25s72.5 -39.5 101.5 -68.5
s51.833 -62.667 68.5 -101s25 -79.5 25 -123.5c0 -43.333 -8.33301 -84.333 -25 -123s-39.5 -72.5 -68.5 -101.5s-62.833 -51.833 -101.5 -68.5s-80 -25 -124 -25z" />
    <glyph glyph-name="Odieresis" unicode="&#xd6;" horiz-adv-x="801" 
d="M366 797c0 9.33301 -3 17 -9 23s-13.667 9 -23 9s-17 -3 -23 -9s-9 -13.667 -9 -23s3 -17 9 -23s13.667 -9 23 -9s17 3 23 9s9 13.667 9 23zM504 797c0 9.33301 -3 17 -9 23s-13.667 9 -23 9s-17 -3 -23 -9s-9 -13.667 -9 -23s3 -17 9 -23s13.667 -9 23 -9s17 3 23 9
s9 13.667 9 23zM404 -10c50.667 0 98.167 9.66699 142.5 29s83.166 45.5 116.499 78.5s59.666 71.667 78.999 116s29 91.833 29 142.5s-9.66699 98.167 -29 142.5s-45.666 83 -78.999 116s-72.166 59.167 -116.499 78.5s-91.833 29 -142.5 29s-98.167 -9.66699 -142.5 -29
s-83 -45.5 -116 -78.5s-59.167 -71.667 -78.5 -116s-29 -91.833 -29 -142.5s9.66699 -98.167 29 -142.5s45.5 -83 78.5 -116s71.667 -59.167 116 -78.5s91.833 -29 142.5 -29zM404 38c-43.333 0 -84.333 8.33301 -123 25s-72.5 39.5 -101.5 68.5s-51.833 62.833 -68.5 101.5
s-25 79.667 -25 123c0 44 8.33301 85.167 25 123.5s39.5 72 68.5 101s62.833 51.833 101.5 68.5s79.667 25 123 25c44 0 85.333 -8.33301 124 -25s72.5 -39.5 101.5 -68.5s51.833 -62.667 68.5 -101s25 -79.5 25 -123.5c0 -43.333 -8.33301 -84.333 -25 -123
s-39.5 -72.5 -68.5 -101.5s-62.833 -51.833 -101.5 -68.5s-80 -25 -124 -25z" />
    <glyph glyph-name="multiply" unicode="&#xd7;" horiz-adv-x="361" 
d="M67 413l-33 -22l123 -183l-125 -185l33 -23l117 173l117 -173l34 21l-126 188l123 183l-34 21l-114 -171z" />
    <glyph glyph-name="Oslash" unicode="&#xd8;" horiz-adv-x="806" 
d="M209 105c-38 30 -68 66.666 -90 109.999s-33 90.333 -33 141c0 44 8.33301 85.167 25 123.5s39.5 72 68.5 101s62.833 51.833 101.5 68.5s79.667 25 123 25c30.667 0 60.167 -4.16699 88.5 -12.5s54.5 -20.166 78.5 -35.499zM607 599.999
c36 -29.333 64.332 -65 84.999 -107s31 -87.667 31 -137c0 -43.333 -8.33301 -84.333 -25 -123s-39.5 -72.5 -68.5 -101.5s-62.833 -51.833 -101.5 -68.5s-80 -25 -124 -25c-57.333 0 -110 14.333 -158 43c0.666992 1.33301 7.33398 11 20.001 29l51.5 74l70.5 101.5
l77 110.5l70.5 101.5l51.5 74zM634.999 639.999l21.002 30.5l20 29l15 22l6 8.5h-54l-7 -10l-15 -22c-5.33301 -8 -10.5 -15.333 -15.5 -22l-7.5 -10c-28 18 -58.333 31.833 -91 41.5s-67 14.5 -103 14.5c-50.667 0 -98.167 -9.66699 -142.5 -29s-83 -45.5 -116 -78.5
s-59.167 -71.667 -78.5 -116s-29 -91.833 -29 -142.5c0 -59.333 12.833 -114.166 38.5 -164.499s60.5 -92.5 104.5 -126.5l-59 -85h54l42 61c28 -16.667 57.5 -29.334 88.5 -38.001s63.5 -13 97.5 -13c50.667 0 98.167 9.66699 142.5 29s83.166 45.5 116.499 78.5
s59.666 71.667 78.999 116s29 91.833 29 142.5c0 58 -12.167 111.333 -36.5 160s-57.5 90 -99.5 124z" />
    <glyph glyph-name="Ugrave" unicode="&#xd9;" horiz-adv-x="579" 
d="M288 757l22 23l-99 100l-23 -24zM193 673l-0.000976562 41h-172v-41h62v-491c0 -32 6 -59.833 18 -83.5s27.667 -43.334 47 -59.001s41.5 -27.334 66.5 -35.001s50.167 -11.5 75.5 -11.5s50.333 3.83301 75 11.5s46.834 19.334 66.501 35.001s35.5 35.334 47.5 59.001
s18 51.5 18 83.5v491h61v41h-170v-41h61v-495c0 -24.667 -4.83301 -45.667 -14.5 -63s-22 -31.5 -37 -42.5s-32 -19 -51 -24s-37.833 -7.5 -56.5 -7.5s-37.5 2.5 -56.5 7.5s-36 13 -51 24s-27.333 25.167 -37 42.5s-14.5 38.333 -14.5 63v495h62z" />
    <glyph glyph-name="Uacute" unicode="&#xda;" horiz-adv-x="579" 
d="M394 856l-24 24l-99 -100l23 -23zM193 673l-0.000976562 41h-172v-41h62v-491c0 -32 6 -59.833 18 -83.5s27.667 -43.334 47 -59.001s41.5 -27.334 66.5 -35.001s50.167 -11.5 75.5 -11.5s50.333 3.83301 75 11.5s46.834 19.334 66.501 35.001s35.5 35.334 47.5 59.001
s18 51.5 18 83.5v491h61v41h-170v-41h61v-495c0 -24.667 -4.83301 -45.667 -14.5 -63s-22 -31.5 -37 -42.5s-32 -19 -51 -24s-37.833 -7.5 -56.5 -7.5s-37.5 2.5 -56.5 7.5s-36 13 -51 24s-27.333 25.167 -37 42.5s-14.5 38.333 -14.5 63v495h62z" />
    <glyph glyph-name="Ucircumflex" unicode="&#xdb;" horiz-adv-x="579" 
d="M282 871l-94 -94l18 -19l85 85l85 -85l18 20l-94 93h-18zM193 673l-0.000976562 41h-172v-41h62v-491c0 -32 6 -59.833 18 -83.5s27.667 -43.334 47 -59.001s41.5 -27.334 66.5 -35.001s50.167 -11.5 75.5 -11.5s50.333 3.83301 75 11.5s46.834 19.334 66.501 35.001
s35.5 35.334 47.5 59.001s18 51.5 18 83.5v491h61v41h-170v-41h61v-495c0 -24.667 -4.83301 -45.667 -14.5 -63s-22 -31.5 -37 -42.5s-32 -19 -51 -24s-37.833 -7.5 -56.5 -7.5s-37.5 2.5 -56.5 7.5s-36 13 -51 24s-27.333 25.167 -37 42.5s-14.5 38.333 -14.5 63v495h62z
" />
    <glyph glyph-name="Udieresis" unicode="&#xdc;" horiz-adv-x="579" 
d="M251 797c0 9.33301 -3 17 -9 23s-13.667 9 -23 9s-17 -3 -23 -9s-9 -13.667 -9 -23s3 -17 9 -23s13.667 -9 23 -9s17 3 23 9s9 13.667 9 23zM389 797c0 9.33301 -3 17 -9 23s-13.667 9 -23 9s-17 -3 -23 -9s-9 -13.667 -9 -23s3 -17 9 -23s13.667 -9 23 -9s17 3 23 9
s9 13.667 9 23zM193 673l-0.000976562 41h-172v-41h62v-491c0 -32 6 -59.833 18 -83.5s27.667 -43.334 47 -59.001s41.5 -27.334 66.5 -35.001s50.167 -11.5 75.5 -11.5s50.333 3.83301 75 11.5s46.834 19.334 66.501 35.001s35.5 35.334 47.5 59.001s18 51.5 18 83.5v491
h61v41h-170v-41h61v-495c0 -24.667 -4.83301 -45.667 -14.5 -63s-22 -31.5 -37 -42.5s-32 -19 -51 -24s-37.833 -7.5 -56.5 -7.5s-37.5 2.5 -56.5 7.5s-36 13 -51 24s-27.333 25.167 -37 42.5s-14.5 38.333 -14.5 63v495h62z" />
    <glyph glyph-name="Yacute" unicode="&#xdd;" horiz-adv-x="569" 
d="M180 714h-150v-42h55l176 -310v-320h-56v-42h160v42h-56v320l176 310h57v42h-151v-42h46l-152 -271l-152 271h47v42zM401 856l-23 24l-99 -100l22 -23z" />
    <glyph glyph-name="Thorn" unicode="&#xde;" horiz-adv-x="485" 
d="M460 372c0 28.667 -4.33203 54.833 -12.999 78.5s-21.334 44 -38.001 61s-37 30.333 -61 40s-51.333 14.5 -82 14.5h-133v106h66v42h-180v-42h66v-630h-66v-42h180v42h-66v137h133c60 0 107.333 17.167 142 51.5s52 81.5 52 141.5zM412.001 371.999
c0 -51.333 -13.5 -89.333 -40.5 -114s-62.167 -37 -105.5 -37h-133v303h133c43.333 0 78.5 -13.333 105.5 -40s40.5 -64 40.5 -112z" />
    <glyph glyph-name="germandbls" unicode="&#xdf;" horiz-adv-x="535" 
d="M245 714c-24 0 -46.001 -3.66211 -66.001 -10.9951s-37.5 -18.5 -52.5 -33.5s-26.667 -33.5 -35 -55.5s-12.5 -47.667 -12.5 -77v-124h-57v-41h57v-372h40v536c0 50 11.833 85.333 35.5 106s53.834 31 90.501 31c17.333 0 33.833 -3 49.5 -9s29.334 -14.333 41.001 -25
s21 -23.5 28 -38.5s10.5 -31.167 10.5 -48.5c0 -20 -3.5 -38.5 -10.5 -55.5s-16.167 -31.667 -27.5 -44s-24.5 -22 -39.5 -29s-30.5 -10.5 -46.5 -10.5v-40c30 0 58.167 -2.83301 84.5 -8.5s49 -14.834 68 -27.501s34 -29.5 45 -50.5s16.5 -46.5 16.5 -76.5
c0 -22 -3.5 -43.167 -10.5 -63.5s-17 -38.333 -30 -54s-28.833 -28.167 -47.5 -37.5s-40 -14 -64 -14h-114v-41h113c30.667 0 58 5.33301 82 16s44.333 25.5 61 44.5s29.334 41.167 38.001 66.5s13 53 13 83c0 32.667 -5.5 60.667 -16.5 84s-25 42.666 -42 57.999
s-35.333 27.166 -55 35.499s-38.5 13.833 -56.5 16.5c23.333 15.333 42.5 34.166 57.5 56.499s22.5 52.833 22.5 91.5c0 22.667 -4.5 44 -13.5 64s-21.333 37.167 -37 51.5s-33.834 25.666 -54.501 33.999s-42.334 12.5 -65.001 12.5z" />
    <glyph glyph-name="agrave" unicode="&#xe0;" horiz-adv-x="566" 
d="M286 603l28 29l-124 125l-30 -29zM273 486c19.333 0 38.498 -2.99707 57.498 -8.99707s36 -15 51 -27s27.167 -27.167 36.5 -45.5s14 -39.833 14 -64.5v-57c-7.33301 10.667 -16.666 21 -27.999 31s-24.5 19 -39.5 27s-32 14.333 -51 19s-40.5 7 -64.5 7
c-32 0 -60.833 -5.16699 -86.5 -15.5s-47.167 -24.166 -64.5 -41.499s-30.666 -37.333 -39.999 -60s-14 -46.334 -14 -71.001c0 -24 4.33301 -47.333 13 -70s21.5 -42.834 38.5 -60.501s38.167 -31.834 63.5 -42.501s54.666 -16 87.999 -16
c27.333 0 51.166 2.66699 71.499 8s37.833 12 52.5 20s26.834 16.667 36.501 26s17.834 18 24.501 26v-70h114v36h-74v313c0 28 -5.16699 53 -15.5 75s-24.333 40.667 -42 56s-38.667 27 -63 35s-50.5 12 -78.5 12c-32 0 -63.333 -5.33301 -94 -16s-56 -26 -76 -46l24 -33
c15.333 15.333 36 28.166 62 38.499s54 15.5 84 15.5zM84.998 179.003c0 18 3.33008 35.834 9.99707 53.501s16.834 33.5 30.501 47.5s30.834 25.333 51.501 34s44.667 13 72 13c29.333 0 55 -4.16699 77 -12.5s40.167 -19.5 54.5 -33.5s25.166 -29.833 32.499 -47.5
s11 -35.834 11 -54.501s-3.66699 -36.834 -11 -54.501s-18.166 -33.5 -32.499 -47.5s-32.5 -25.167 -54.5 -33.5s-47.667 -12.5 -77 -12.5c-27.333 0 -51.166 4.16699 -71.499 12.5s-37.333 19.5 -51 33.5s-24 29.833 -31 47.5s-10.5 35.834 -10.5 54.501z" />
    <glyph glyph-name="aacute" unicode="&#xe1;" horiz-adv-x="566" 
d="M393 728l-30 29l-124 -125l28 -29zM273 486c19.333 0 38.498 -2.99707 57.498 -8.99707s36 -15 51 -27s27.167 -27.167 36.5 -45.5s14 -39.833 14 -64.5v-57c-7.33301 10.667 -16.666 21 -27.999 31s-24.5 19 -39.5 27s-32 14.333 -51 19s-40.5 7 -64.5 7
c-32 0 -60.833 -5.16699 -86.5 -15.5s-47.167 -24.166 -64.5 -41.499s-30.666 -37.333 -39.999 -60s-14 -46.334 -14 -71.001c0 -24 4.33301 -47.333 13 -70s21.5 -42.834 38.5 -60.501s38.167 -31.834 63.5 -42.501s54.666 -16 87.999 -16
c27.333 0 51.166 2.66699 71.499 8s37.833 12 52.5 20s26.834 16.667 36.501 26s17.834 18 24.501 26v-70h114v36h-74v313c0 28 -5.16699 53 -15.5 75s-24.333 40.667 -42 56s-38.667 27 -63 35s-50.5 12 -78.5 12c-32 0 -63.333 -5.33301 -94 -16s-56 -26 -76 -46l24 -33
c15.333 15.333 36 28.166 62 38.499s54 15.5 84 15.5zM84.998 179.003c0 18 3.33008 35.834 9.99707 53.501s16.834 33.5 30.501 47.5s30.834 25.333 51.501 34s44.667 13 72 13c29.333 0 55 -4.16699 77 -12.5s40.167 -19.5 54.5 -33.5s25.166 -29.833 32.499 -47.5
s11 -35.834 11 -54.501s-3.66699 -36.834 -11 -54.501s-18.166 -33.5 -32.499 -47.5s-32.5 -25.167 -54.5 -33.5s-47.667 -12.5 -77 -12.5c-27.333 0 -51.166 4.16699 -71.499 12.5s-37.333 19.5 -51 33.5s-24 29.833 -31 47.5s-10.5 35.834 -10.5 54.501z" />
    <glyph glyph-name="acircumflex" unicode="&#xe2;" horiz-adv-x="566" 
d="M267 735l-117 -119l23 -22l107 105l105 -105l22 23l-116 118h-24zM273 486c19.333 0 38.498 -2.99707 57.498 -8.99707s36 -15 51 -27s27.167 -27.167 36.5 -45.5s14 -39.833 14 -64.5v-57c-7.33301 10.667 -16.666 21 -27.999 31s-24.5 19 -39.5 27s-32 14.333 -51 19
s-40.5 7 -64.5 7c-32 0 -60.833 -5.16699 -86.5 -15.5s-47.167 -24.166 -64.5 -41.499s-30.666 -37.333 -39.999 -60s-14 -46.334 -14 -71.001c0 -24 4.33301 -47.333 13 -70s21.5 -42.834 38.5 -60.501s38.167 -31.834 63.5 -42.501s54.666 -16 87.999 -16
c27.333 0 51.166 2.66699 71.499 8s37.833 12 52.5 20s26.834 16.667 36.501 26s17.834 18 24.501 26v-70h114v36h-74v313c0 28 -5.16699 53 -15.5 75s-24.333 40.667 -42 56s-38.667 27 -63 35s-50.5 12 -78.5 12c-32 0 -63.333 -5.33301 -94 -16s-56 -26 -76 -46l24 -33
c15.333 15.333 36 28.166 62 38.499s54 15.5 84 15.5zM84.998 179.003c0 18 3.33008 35.834 9.99707 53.501s16.834 33.5 30.501 47.5s30.834 25.333 51.501 34s44.667 13 72 13c29.333 0 55 -4.16699 77 -12.5s40.167 -19.5 54.5 -33.5s25.166 -29.833 32.499 -47.5
s11 -35.834 11 -54.501s-3.66699 -36.834 -11 -54.501s-18.166 -33.5 -32.499 -47.5s-32.5 -25.167 -54.5 -33.5s-47.667 -12.5 -77 -12.5c-27.333 0 -51.166 4.16699 -71.499 12.5s-37.333 19.5 -51 33.5s-24 29.833 -31 47.5s-10.5 35.834 -10.5 54.501z" />
    <glyph glyph-name="atilde" unicode="&#xe3;" horiz-adv-x="566" 
d="M123 634l27.9971 -23c5.33301 6.66699 13.166 14 23.499 22s25.5 12 45.5 12c13.333 0 24 -2.16699 32 -6.5s16 -9.83301 24 -16.5c8.66699 -6 18.334 -11.667 29.001 -17s25.334 -8 44.001 -8c24.667 0 44.334 5.33301 59.001 16s26.667 21 36 31l-29 22
c-6 -6 -13.667 -12.333 -23 -19s-23.666 -10 -42.999 -10c-11.333 0 -21.5 2.66699 -30.5 8l-29.5 18c-8.66699 5.33301 -18.5 10.333 -29.5 15s-24.167 7 -39.5 7c-14 0 -26.333 -1.83301 -37 -5.5s-19.834 -8 -27.501 -13s-14.167 -10.5 -19.5 -16.5
s-9.66602 -11.333 -12.999 -16zM272.997 486c19.333 0 38.498 -2.99707 57.498 -8.99707s36 -15 51 -27s27.167 -27.167 36.5 -45.5s14 -39.833 14 -64.5v-57c-7.33301 10.667 -16.666 21 -27.999 31s-24.5 19 -39.5 27s-32 14.333 -51 19s-40.5 7 -64.5 7
c-32 0 -60.833 -5.16699 -86.5 -15.5s-47.167 -24.166 -64.5 -41.499s-30.666 -37.333 -39.999 -60s-14 -46.334 -14 -71.001c0 -24 4.33301 -47.333 13 -70s21.5 -42.834 38.5 -60.501s38.167 -31.834 63.5 -42.501s54.666 -16 87.999 -16
c27.333 0 51.166 2.66699 71.499 8s37.833 12 52.5 20s26.834 16.667 36.501 26s17.834 18 24.501 26v-70h114v36h-74v313c0 28 -5.16699 53 -15.5 75s-24.333 40.667 -42 56s-38.667 27 -63 35s-50.5 12 -78.5 12c-32 0 -63.333 -5.33301 -94 -16s-56 -26 -76 -46l24 -33
c15.333 15.333 36 28.166 62 38.499s54 15.5 84 15.5zM84.9951 179.003c0 18 3.33008 35.834 9.99707 53.501s16.834 33.5 30.501 47.5s30.834 25.333 51.501 34s44.667 13 72 13c29.333 0 55 -4.16699 77 -12.5s40.167 -19.5 54.5 -33.5s25.166 -29.833 32.499 -47.5
s11 -35.834 11 -54.501s-3.66699 -36.834 -11 -54.501s-18.166 -33.5 -32.499 -47.5s-32.5 -25.167 -54.5 -33.5s-47.667 -12.5 -77 -12.5c-27.333 0 -51.166 4.16699 -71.499 12.5s-37.333 19.5 -51 33.5s-24 29.833 -31 47.5s-10.5 35.834 -10.5 54.501z" />
    <glyph glyph-name="adieresis" unicode="&#xe4;" horiz-adv-x="566" 
d="M238 659c0 9.33301 -3 17 -9 23s-13.667 9 -23 9s-17 -3 -23 -9s-9 -13.667 -9 -23s3 -17 9 -23s13.667 -9 23 -9s17 3 23 9s9 13.667 9 23zM376 659c0 9.33301 -3 17 -9 23s-13.667 9 -23 9s-17 -3 -23 -9s-9 -13.667 -9 -23s3 -17 9 -23s13.667 -9 23 -9s17 3 23 9
s9 13.667 9 23zM273 486c19.333 0 38.498 -2.99707 57.498 -8.99707s36 -15 51 -27s27.167 -27.167 36.5 -45.5s14 -39.833 14 -64.5v-57c-7.33301 10.667 -16.666 21 -27.999 31s-24.5 19 -39.5 27s-32 14.333 -51 19s-40.5 7 -64.5 7c-32 0 -60.833 -5.16699 -86.5 -15.5
s-47.167 -24.166 -64.5 -41.499s-30.666 -37.333 -39.999 -60s-14 -46.334 -14 -71.001c0 -24 4.33301 -47.333 13 -70s21.5 -42.834 38.5 -60.501s38.167 -31.834 63.5 -42.501s54.666 -16 87.999 -16c27.333 0 51.166 2.66699 71.499 8s37.833 12 52.5 20
s26.834 16.667 36.501 26s17.834 18 24.501 26v-70h114v36h-74v313c0 28 -5.16699 53 -15.5 75s-24.333 40.667 -42 56s-38.667 27 -63 35s-50.5 12 -78.5 12c-32 0 -63.333 -5.33301 -94 -16s-56 -26 -76 -46l24 -33c15.333 15.333 36 28.166 62 38.499s54 15.5 84 15.5z
M84.998 179.003c0 18 3.33008 35.834 9.99707 53.501s16.834 33.5 30.501 47.5s30.834 25.333 51.501 34s44.667 13 72 13c29.333 0 55 -4.16699 77 -12.5s40.167 -19.5 54.5 -33.5s25.166 -29.833 32.499 -47.5s11 -35.834 11 -54.501s-3.66699 -36.834 -11 -54.501
s-18.166 -33.5 -32.499 -47.5s-32.5 -25.167 -54.5 -33.5s-47.667 -12.5 -77 -12.5c-27.333 0 -51.166 4.16699 -71.499 12.5s-37.333 19.5 -51 33.5s-24 29.833 -31 47.5s-10.5 35.834 -10.5 54.501z" />
    <glyph glyph-name="aring" unicode="&#xe5;" horiz-adv-x="566" 
d="M359 667c0 22.667 -8 42 -24 58s-35.333 24 -58 24s-42 -8 -58 -24s-24 -35.333 -24 -58s8 -42 24 -58s35.333 -24 58 -24s42 8 58 24s24 35.333 24 58zM215 667c0 17.333 6 32 18 44s26.667 18 44 18s32 -6 44 -18s18 -26.667 18 -44s-6 -32 -18 -44
s-26.667 -18 -44 -18s-32 6 -44 18s-18 26.667 -18 44zM273 486c19.333 0 38.498 -2.99707 57.498 -8.99707s36 -15 51 -27s27.167 -27.167 36.5 -45.5s14 -39.833 14 -64.5v-57c-7.33301 10.667 -16.666 21 -27.999 31s-24.5 19 -39.5 27s-32 14.333 -51 19
s-40.5 7 -64.5 7c-32 0 -60.833 -5.16699 -86.5 -15.5s-47.167 -24.166 -64.5 -41.499s-30.666 -37.333 -39.999 -60s-14 -46.334 -14 -71.001c0 -24 4.33301 -47.333 13 -70s21.5 -42.834 38.5 -60.501s38.167 -31.834 63.5 -42.501s54.666 -16 87.999 -16
c27.333 0 51.166 2.66699 71.499 8s37.833 12 52.5 20s26.834 16.667 36.501 26s17.834 18 24.501 26v-70h114v36h-74v313c0 28 -5.16699 53 -15.5 75s-24.333 40.667 -42 56s-38.667 27 -63 35s-50.5 12 -78.5 12c-32 0 -63.333 -5.33301 -94 -16s-56 -26 -76 -46l24 -33
c15.333 15.333 36 28.166 62 38.499s54 15.5 84 15.5zM84.998 179.003c0 18 3.33008 35.834 9.99707 53.501s16.834 33.5 30.501 47.5s30.834 25.333 51.501 34s44.667 13 72 13c29.333 0 55 -4.16699 77 -12.5s40.167 -19.5 54.5 -33.5s25.166 -29.833 32.499 -47.5
s11 -35.834 11 -54.501s-3.66699 -36.834 -11 -54.501s-18.166 -33.5 -32.499 -47.5s-32.5 -25.167 -54.5 -33.5s-47.667 -12.5 -77 -12.5c-27.333 0 -51.166 4.16699 -71.499 12.5s-37.333 19.5 -51 33.5s-24 29.833 -31 47.5s-10.5 35.834 -10.5 54.501z" />
    <glyph glyph-name="ae" unicode="&#xe6;" horiz-adv-x="949" 
d="M85 179c0 18 3.33008 35.834 9.99707 53.501s16.834 33.5 30.501 47.5s30.834 25.333 51.501 34s44.667 13 72 13c29.333 0 55 -4.16699 77 -12.5s40.167 -19.5 54.5 -33.5s25.166 -29.833 32.499 -47.5s11 -35.834 11 -54.501s-3.66699 -36.834 -11 -54.501
s-18.166 -33.5 -32.499 -47.5s-32.5 -25.167 -54.5 -33.5s-47.667 -12.5 -77 -12.5c-27.333 0 -51.166 4.16699 -71.499 12.5s-37.333 19.5 -51 33.5s-24 29.833 -31 47.5s-10.5 35.834 -10.5 54.501zM854.997 294.001h-381.001c0.666992 22 5.66699 44.5 15 67.5
s22 43.833 38 62.5s35.333 34 58 46s48 18 76 18c28.667 0 54.667 -6 78 -18s43.333 -27.5 60 -46.5s29.834 -39.833 39.501 -62.5s15.167 -45 16.5 -67zM903.996 284.001c0 30 -5.66895 59.5059 -17.002 88.5059s-27.666 55.167 -48.999 78.5s-47 42.166 -77 56.499
s-63.333 21.5 -100 21.5c-43.333 0 -82 -10.5 -116 -31.5s-61.667 -49.167 -83 -84.5c-13.333 36 -37 64 -71 84s-73.333 30 -118 30c-32 0 -63.333 -5.33301 -94 -16s-56 -26 -76 -46l24 -33c15.333 15.333 36 28.166 62 38.499s54 15.5 84 15.5c19.333 0 38.5 -3 57.5 -9
s36 -15 51 -27s27.167 -27.167 36.5 -45.5s14 -39.833 14 -64.5v-57c-16.667 24 -39.5 44 -68.5 60s-67.833 24 -116.5 24c-33.333 0 -62.5 -5.33301 -87.5 -16s-46.167 -24.834 -63.5 -42.501s-30.333 -37.834 -39 -60.501s-13 -45.667 -13 -69
c0 -24 4.33301 -47.333 13 -70s21.5 -42.834 38.5 -60.501s38.167 -31.834 63.5 -42.501s54.666 -16 87.999 -16c27.333 0 51.166 2.66699 71.499 8s37.833 12 52.5 20s26.834 16.667 36.501 26s17.834 18 24.501 26v-70h40v81c20.667 -28.667 46.5 -51.667 77.5 -69
s68.167 -26 111.5 -26c32 0 60 3.5 84 10.5s44.667 16.167 62 27.5s32 24.166 44 38.499s22.667 28.833 32 43.5l-35 23c-8.66699 -12.667 -18.167 -25 -28.5 -37s-22.833 -22.833 -37.5 -32.5s-31.834 -17.5 -51.501 -23.5s-43.167 -9 -70.5 -9
c-29.333 0 -55.666 6.5 -78.999 19.5s-43.166 30.167 -59.499 51.5s-28.833 45.5 -37.5 72.5s-13 54.5 -13 82.5h432c0.666992 4.66699 1 9.33398 1 14.001v17z" />
    <glyph glyph-name="ccedilla" unicode="&#xe7;" horiz-adv-x="481" 
d="M301 -56l13.001 41.0029c24 1.33301 47 6 69 14s40.667 19 56 33v53c-8 -7.33301 -16.333 -14.5 -25 -21.5s-18.834 -13.333 -30.501 -19s-25 -10.167 -40 -13.5s-32.5 -5 -52.5 -5c-36.667 0 -68.834 6.33301 -96.501 19s-50.834 29.5 -69.501 50.5
s-32.667 45.5 -42 73.5s-14 57 -14 87c0 30.667 4.66699 59.834 14 87.501s23.333 52.167 42 73.5s41.834 38.333 69.501 51s59.834 19 96.501 19c20.667 0 40.167 -1.66699 58.5 -5s36.166 -9.66602 53.499 -18.999v-47h36v120h-36v-26
c-19.333 7.33301 -38.666 12.166 -57.999 14.499s-37.333 3.5 -54 3.5c-42 0 -79.333 -7.5 -112 -22.5s-60.167 -35 -82.5 -60s-39.166 -53.833 -50.499 -86.5s-17 -67 -17 -103c0 -34.667 5 -67.667 15 -99s25.167 -59.333 45.5 -84s45.5 -44.834 75.5 -60.501
s65 -24.834 105 -27.501l-19 -53c12.667 0 23.5 -3.5 32.5 -10.5s13.5 -14.833 13.5 -23.5c0 -8 -2.5 -14.833 -7.5 -20.5s-11.833 -8.5 -20.5 -8.5c-11.333 0 -21.333 2.66699 -30 8s-16.334 11.666 -23.001 18.999v-40c7.33301 -7.33301 15.833 -13.666 25.5 -18.999
s19.834 -8 30.501 -8c19.333 0 35.666 5.83301 48.999 17.5s20 27.5 20 47.5c0 13.333 -4.5 24.166 -13.5 32.499s-17.833 14.166 -26.5 17.499z" />
    <glyph glyph-name="egrave" unicode="&#xe8;" horiz-adv-x="563" 
d="M294 603l28 29l-124 125l-30 -29zM280 27c-30 0 -57 5.83301 -81 17.5s-44.5 27.5 -61.5 47.5s-30 43.833 -39 71.5s-13.5 57.5 -13.5 89.5h436c0.666992 4.66699 1 9.33398 1 14.001v17c0 30 -5.5 59.5 -16.5 88.5s-27 55.167 -48 78.5s-46.333 42.166 -76 56.499
s-63.5 21.5 -101.5 21.5c-35.333 0 -67.833 -7 -97.5 -21s-55.167 -33.167 -76.5 -57.5s-37.833 -53 -49.5 -86s-17.5 -68.5 -17.5 -106.5c0 -34.667 5 -68.334 15 -101.001s25 -61.667 45 -87s45 -45.666 75 -60.999s65.333 -23 106 -23c32 0 59.833 3.5 83.5 10.5
s44.167 16.167 61.5 27.5s32 24.166 44 38.499s22.667 28.833 32 43.5l-35 23c-8 -12.667 -17 -25.167 -27 -37.5s-22.167 -23.166 -36.5 -32.499s-31.5 -17 -51.5 -23s-43.667 -9 -71 -9zM477 289l-387.998 -0.000976562c0.666992 26 5.5 50.833 14.5 74.5
s21.667 44.834 38 63.501s36.166 33.5 59.499 44.5s49.666 16.5 78.999 16.5s55.833 -5.33301 79.5 -16s44 -25 61 -43s30.333 -39.167 40 -63.5s15.167 -49.833 16.5 -76.5z" />
    <glyph glyph-name="eacute" unicode="&#xe9;" horiz-adv-x="563" 
d="M381 728l-30 29l-124 -125l28 -29zM280 27c-30 0 -57 5.83301 -81 17.5s-44.5 27.5 -61.5 47.5s-30 43.833 -39 71.5s-13.5 57.5 -13.5 89.5h436c0.666992 4.66699 1 9.33398 1 14.001v17c0 30 -5.5 59.5 -16.5 88.5s-27 55.167 -48 78.5s-46.333 42.166 -76 56.499
s-63.5 21.5 -101.5 21.5c-35.333 0 -67.833 -7 -97.5 -21s-55.167 -33.167 -76.5 -57.5s-37.833 -53 -49.5 -86s-17.5 -68.5 -17.5 -106.5c0 -34.667 5 -68.334 15 -101.001s25 -61.667 45 -87s45 -45.666 75 -60.999s65.333 -23 106 -23c32 0 59.833 3.5 83.5 10.5
s44.167 16.167 61.5 27.5s32 24.166 44 38.499s22.667 28.833 32 43.5l-35 23c-8 -12.667 -17 -25.167 -27 -37.5s-22.167 -23.166 -36.5 -32.499s-31.5 -17 -51.5 -23s-43.667 -9 -71 -9zM477 289l-387.998 -0.000976562c0.666992 26 5.5 50.833 14.5 74.5
s21.667 44.834 38 63.501s36.166 33.5 59.499 44.5s49.666 16.5 78.999 16.5s55.833 -5.33301 79.5 -16s44 -25 61 -43s30.333 -39.167 40 -63.5s15.167 -49.833 16.5 -76.5z" />
    <glyph glyph-name="ecircumflex" unicode="&#xea;" horiz-adv-x="563" 
d="M269 735l-117 -119l24 -22l106 105l105 -105l22 23l-116 118h-24zM280 27c-30 0 -57 5.83301 -81 17.5s-44.5 27.5 -61.5 47.5s-30 43.833 -39 71.5s-13.5 57.5 -13.5 89.5h436c0.666992 4.66699 1 9.33398 1 14.001v17c0 30 -5.5 59.5 -16.5 88.5s-27 55.167 -48 78.5
s-46.333 42.166 -76 56.499s-63.5 21.5 -101.5 21.5c-35.333 0 -67.833 -7 -97.5 -21s-55.167 -33.167 -76.5 -57.5s-37.833 -53 -49.5 -86s-17.5 -68.5 -17.5 -106.5c0 -34.667 5 -68.334 15 -101.001s25 -61.667 45 -87s45 -45.666 75 -60.999s65.333 -23 106 -23
c32 0 59.833 3.5 83.5 10.5s44.167 16.167 61.5 27.5s32 24.166 44 38.499s22.667 28.833 32 43.5l-35 23c-8 -12.667 -17 -25.167 -27 -37.5s-22.167 -23.166 -36.5 -32.499s-31.5 -17 -51.5 -23s-43.667 -9 -71 -9zM477 289l-387.998 -0.000976562
c0.666992 26 5.5 50.833 14.5 74.5s21.667 44.834 38 63.501s36.166 33.5 59.499 44.5s49.666 16.5 78.999 16.5s55.833 -5.33301 79.5 -16s44 -25 61 -43s30.333 -39.167 40 -63.5s15.167 -49.833 16.5 -76.5z" />
    <glyph glyph-name="edieresis" unicode="&#xeb;" horiz-adv-x="563" 
d="M240 659c0 9.33301 -3 17 -9 23s-13.667 9 -23 9s-17 -3 -23 -9s-9 -13.667 -9 -23s3 -17 9 -23s13.667 -9 23 -9s17 3 23 9s9 13.667 9 23zM378 659c0 9.33301 -3 17 -9 23s-13.667 9 -23 9s-17 -3 -23 -9s-9 -13.667 -9 -23s3 -17 9 -23s13.667 -9 23 -9s17 3 23 9
s9 13.667 9 23zM280 27c-30 0 -57 5.83301 -81 17.5s-44.5 27.5 -61.5 47.5s-30 43.833 -39 71.5s-13.5 57.5 -13.5 89.5h436c0.666992 4.66699 1 9.33398 1 14.001v17c0 30 -5.5 59.5 -16.5 88.5s-27 55.167 -48 78.5s-46.333 42.166 -76 56.499s-63.5 21.5 -101.5 21.5
c-35.333 0 -67.833 -7 -97.5 -21s-55.167 -33.167 -76.5 -57.5s-37.833 -53 -49.5 -86s-17.5 -68.5 -17.5 -106.5c0 -34.667 5 -68.334 15 -101.001s25 -61.667 45 -87s45 -45.666 75 -60.999s65.333 -23 106 -23c32 0 59.833 3.5 83.5 10.5s44.167 16.167 61.5 27.5
s32 24.166 44 38.499s22.667 28.833 32 43.5l-35 23c-8 -12.667 -17 -25.167 -27 -37.5s-22.167 -23.166 -36.5 -32.499s-31.5 -17 -51.5 -23s-43.667 -9 -71 -9zM477 289l-387.998 -0.000976562c0.666992 26 5.5 50.833 14.5 74.5s21.667 44.834 38 63.501
s36.166 33.5 59.499 44.5s49.666 16.5 78.999 16.5s55.833 -5.33301 79.5 -16s44 -25 61 -43s30.333 -39.167 40 -63.5s15.167 -49.833 16.5 -76.5z" />
    <glyph glyph-name="igrave" unicode="&#xec;" horiz-adv-x="255" 
d="M106 603l29 29l-125 125l-29 -29zM159 515h-102v-41h61v-433h-61v-41h163v41h-61v474z" />
    <glyph glyph-name="iacute" unicode="&#xed;" horiz-adv-x="255" 
d="M231 728l-30 29l-124 -125l28 -29zM159 515h-102v-41h61v-433h-61v-41h163v41h-61v474z" />
    <glyph glyph-name="icircumflex" unicode="&#xee;" horiz-adv-x="255" 
d="M111 735l-117 -119l23 -22l106 105l106 -105l22 23l-116 118h-24zM154 515h-102v-41h61v-433h-61v-41h163v41h-61v474z" />
    <glyph glyph-name="idieresis" unicode="&#xef;" horiz-adv-x="255" 
d="M154 515h-102v-41h61v-433h-61v-41h163v41h-61v474zM91 659c0 9.33301 -3 17 -9 23s-13.667 9 -23 9s-17 -3 -23 -9s-9 -13.667 -9 -23s3 -17 9 -23s13.667 -9 23 -9s17 3 23 9s9 13.667 9 23zM229 659c0 9.33301 -3 17 -9 23s-13.667 9 -23 9s-17 -3 -23 -9
s-9 -13.667 -9 -23s3 -17 9 -23s13.667 -9 23 -9s17 3 23 9s9 13.667 9 23z" />
    <glyph glyph-name="eth" unicode="&#xf0;" horiz-adv-x="498" 
d="M75 206c0 24 4.5 46.5 13.5 67.5s21.333 39.333 37 55s34 28 55 37s43.5 13.5 67.5 13.5s46.5 -4.5 67.5 -13.5s39.333 -21.333 55 -37s28 -34 37 -55s13.5 -43.5 13.5 -67.5s-4.5 -46.5 -13.5 -67.5s-21.333 -39.333 -37 -55s-34 -28 -55 -37s-43.5 -13.5 -67.5 -13.5
s-46.5 4.5 -67.5 13.5s-39.333 21.333 -55 37s-28 34 -37 55s-13.5 43.5 -13.5 67.5zM403 352c-19.333 21.333 -42.3311 37.8291 -68.998 49.4961s-55.334 17.5 -86.001 17.5c-29.333 0 -57 -5.5 -83 -16.5s-48.667 -26.167 -68 -45.5s-34.5 -42 -45.5 -68
s-16.5 -53.667 -16.5 -83s5.5 -57 16.5 -83s26.167 -48.667 45.5 -68s42 -34.5 68 -45.5s53.667 -16.5 83 -16.5s57 5.5 83 16.5s48.667 26.167 68 45.5s34.5 42 45.5 68s16.5 53.667 16.5 83c0 50.667 -3.16699 94.834 -9.5 132.501s-15.5 71 -27.5 100
s-26.833 54.5 -44.5 76.5s-37.834 42.667 -60.501 62l91 57l-40 26l-88 -55c-33.333 22.667 -68.333 39.667 -105 51l-36 -35c33.333 -11.333 65.333 -26 96 -44l-87 -55l40 -26l86 54c12 -9.33301 24.333 -20.166 37 -32.499s24.834 -26.666 36.501 -42.999
s22.167 -34.666 31.5 -54.999s16.666 -42.833 21.999 -67.5z" />
    <glyph glyph-name="ntilde" unicode="&#xf1;" horiz-adv-x="541" 
d="M120 634l27.998 -23c5.33301 6.66699 13.166 14 23.499 22s25.5 12 45.5 12c13.333 0 24 -2.16699 32 -6.5s15.667 -9.83301 23 -16.5c9.33301 -6 19.333 -11.667 30 -17s25.334 -8 44.001 -8c24.667 0 44.334 5.33301 59.001 16s26.667 21 36 31l-29 22
c-6 -6 -13.667 -12.333 -23 -19s-23.666 -10 -42.999 -10c-11.333 0 -21.5 2.66699 -30.5 8l-29.5 18c-8.66699 5.33301 -18.5 10.333 -29.5 15s-24.167 7 -39.5 7c-14 0 -26.333 -1.83301 -37 -5.5s-19.834 -8 -27.501 -13s-14.167 -10.5 -19.5 -16.5
s-9.66602 -11.333 -12.999 -16zM45.998 0l163.001 0.000976562v36h-61v343c0 7.33301 3 17.166 9 29.499s14.833 24.5 26.5 36.5s26.167 22.333 43.5 31s37.666 13 60.999 13c19.333 0 37.5 -2.5 54.5 -7.5s31.833 -13.333 44.5 -25s22.667 -26.5 30 -44.5s11 -40 11 -66
v-310h-62v-36h165v36h-63v326c0 28 -4.83301 52.5 -14.5 73.5s-22.667 38.5 -39 52.5s-35.5 24.5 -57.5 31.5s-45 10.5 -69 10.5c-20 0 -37.5 -2.16699 -52.5 -6.5s-28.167 -9.83301 -39.5 -16.5s-21 -14 -29 -22s-14.333 -15.333 -19 -22v52h-102v-35h61v-444h-61v-36z" />
    <glyph glyph-name="ograve" unicode="&#xf2;" horiz-adv-x="560" 
d="M301 603l29 29l-125 125l-29 -29zM526 259c0 34 -5.33301 67.333 -16 100s-26.5 61.667 -47.5 87s-46.667 45.666 -77 60.999s-65.166 23 -104.499 23s-74.333 -7.66699 -105 -23s-56.334 -35.666 -77.001 -60.999s-36.334 -54.333 -47.001 -87s-16 -66 -16 -100
s5.33301 -67.333 16 -100s26.334 -61.5 47.001 -86.5s46.334 -45.167 77.001 -60.5s65.667 -23 105 -23s74.166 7.66699 104.499 23s56 35.5 77 60.5s36.833 53.833 47.5 86.5s16 66 16 100zM485 259c0 -28.667 -4.33301 -56.667 -13 -84s-21.5 -51.833 -38.5 -73.5
s-38.167 -39 -63.5 -52s-55 -19.5 -89 -19.5s-63.833 6.5 -89.5 19.5s-47 30.333 -64 52s-29.667 46.167 -38 73.5s-12.5 55.333 -12.5 84s4.16699 56.667 12.5 84s21 51.833 38 73.5s38.333 39.167 64 52.5s55.5 20 89.5 20s63.667 -6.66699 89 -20
s46.5 -30.833 63.5 -52.5s29.833 -46.167 38.5 -73.5s13 -55.333 13 -84z" />
    <glyph glyph-name="oacute" unicode="&#xf3;" horiz-adv-x="560" 
d="M383 728l-30 29l-124 -125l28 -29zM526 259c0 34 -5.33301 67.333 -16 100s-26.5 61.667 -47.5 87s-46.667 45.666 -77 60.999s-65.166 23 -104.499 23s-74.333 -7.66699 -105 -23s-56.334 -35.666 -77.001 -60.999s-36.334 -54.333 -47.001 -87s-16 -66 -16 -100
s5.33301 -67.333 16 -100s26.334 -61.5 47.001 -86.5s46.334 -45.167 77.001 -60.5s65.667 -23 105 -23s74.166 7.66699 104.499 23s56 35.5 77 60.5s36.833 53.833 47.5 86.5s16 66 16 100zM485 259c0 -28.667 -4.33301 -56.667 -13 -84s-21.5 -51.833 -38.5 -73.5
s-38.167 -39 -63.5 -52s-55 -19.5 -89 -19.5s-63.833 6.5 -89.5 19.5s-47 30.333 -64 52s-29.667 46.167 -38 73.5s-12.5 55.333 -12.5 84s4.16699 56.667 12.5 84s21 51.833 38 73.5s38.333 39.167 64 52.5s55.5 20 89.5 20s63.667 -6.66699 89 -20
s46.5 -30.833 63.5 -52.5s29.833 -46.167 38.5 -73.5s13 -55.333 13 -84z" />
    <glyph glyph-name="ocircumflex" unicode="&#xf4;" horiz-adv-x="560" 
d="M268 735l-117 -119l23 -22l107 105l105 -105l22 23l-116 118h-24zM526 259c0 34 -5.33301 67.333 -16 100s-26.5 61.667 -47.5 87s-46.667 45.666 -77 60.999s-65.166 23 -104.499 23s-74.333 -7.66699 -105 -23s-56.334 -35.666 -77.001 -60.999
s-36.334 -54.333 -47.001 -87s-16 -66 -16 -100s5.33301 -67.333 16 -100s26.334 -61.5 47.001 -86.5s46.334 -45.167 77.001 -60.5s65.667 -23 105 -23s74.166 7.66699 104.499 23s56 35.5 77 60.5s36.833 53.833 47.5 86.5s16 66 16 100zM485 259
c0 -28.667 -4.33301 -56.667 -13 -84s-21.5 -51.833 -38.5 -73.5s-38.167 -39 -63.5 -52s-55 -19.5 -89 -19.5s-63.833 6.5 -89.5 19.5s-47 30.333 -64 52s-29.667 46.167 -38 73.5s-12.5 55.333 -12.5 84s4.16699 56.667 12.5 84s21 51.833 38 73.5s38.333 39.167 64 52.5
s55.5 20 89.5 20s63.667 -6.66699 89 -20s46.5 -30.833 63.5 -52.5s29.833 -46.167 38.5 -73.5s13 -55.333 13 -84z" />
    <glyph glyph-name="otilde" unicode="&#xf5;" horiz-adv-x="560" 
d="M120 634l27.998 -23c5.33301 6.66699 13.166 14 23.499 22s25.5 12 45.5 12c13.333 0 24 -2.16699 32 -6.5s15.667 -9.83301 23 -16.5c9.33301 -6 19.333 -11.667 30 -17s25.334 -8 44.001 -8c24.667 0 44.334 5.33301 59.001 16s26.667 21 36 31l-29 22
c-6 -6 -13.667 -12.333 -23 -19s-23.666 -10 -42.999 -10c-11.333 0 -21.5 2.66699 -30.5 8l-29.5 18c-8.66699 5.33301 -18.5 10.333 -29.5 15s-24.167 7 -39.5 7c-14 0 -26.333 -1.83301 -37 -5.5s-19.834 -8 -27.501 -13s-14.167 -10.5 -19.5 -16.5
s-9.66602 -11.333 -12.999 -16zM525.998 259c0 34 -5.33301 67.333 -16 100s-26.5 61.667 -47.5 87s-46.667 45.666 -77 60.999s-65.166 23 -104.499 23s-74.333 -7.66699 -105 -23s-56.334 -35.666 -77.001 -60.999s-36.334 -54.333 -47.001 -87s-16 -66 -16 -100
s5.33301 -67.333 16 -100s26.334 -61.5 47.001 -86.5s46.334 -45.167 77.001 -60.5s65.667 -23 105 -23s74.166 7.66699 104.499 23s56 35.5 77 60.5s36.833 53.833 47.5 86.5s16 66 16 100zM484.998 259c0 -28.667 -4.33301 -56.667 -13 -84s-21.5 -51.833 -38.5 -73.5
s-38.167 -39 -63.5 -52s-55 -19.5 -89 -19.5s-63.833 6.5 -89.5 19.5s-47 30.333 -64 52s-29.667 46.167 -38 73.5s-12.5 55.333 -12.5 84s4.16699 56.667 12.5 84s21 51.833 38 73.5s38.333 39.167 64 52.5s55.5 20 89.5 20s63.667 -6.66699 89 -20
s46.5 -30.833 63.5 -52.5s29.833 -46.167 38.5 -73.5s13 -55.333 13 -84z" />
    <glyph glyph-name="odieresis" unicode="&#xf6;" horiz-adv-x="560" 
d="M244 659c0 9.33301 -3 17 -9 23s-13.667 9 -23 9s-17 -3 -23 -9s-9 -13.667 -9 -23s3 -17 9 -23s13.667 -9 23 -9s17 3 23 9s9 13.667 9 23zM382 659c0 9.33301 -3 17 -9 23s-13.667 9 -23 9s-17 -3 -23 -9s-9 -13.667 -9 -23s3 -17 9 -23s13.667 -9 23 -9s17 3 23 9
s9 13.667 9 23zM526 259c0 34 -5.33301 67.333 -16 100s-26.5 61.667 -47.5 87s-46.667 45.666 -77 60.999s-65.166 23 -104.499 23s-74.333 -7.66699 -105 -23s-56.334 -35.666 -77.001 -60.999s-36.334 -54.333 -47.001 -87s-16 -66 -16 -100s5.33301 -67.333 16 -100
s26.334 -61.5 47.001 -86.5s46.334 -45.167 77.001 -60.5s65.667 -23 105 -23s74.166 7.66699 104.499 23s56 35.5 77 60.5s36.833 53.833 47.5 86.5s16 66 16 100zM485 259c0 -28.667 -4.33301 -56.667 -13 -84s-21.5 -51.833 -38.5 -73.5s-38.167 -39 -63.5 -52
s-55 -19.5 -89 -19.5s-63.833 6.5 -89.5 19.5s-47 30.333 -64 52s-29.667 46.167 -38 73.5s-12.5 55.333 -12.5 84s4.16699 56.667 12.5 84s21 51.833 38 73.5s38.333 39.167 64 52.5s55.5 20 89.5 20s63.667 -6.66699 89 -20s46.5 -30.833 63.5 -52.5
s29.833 -46.167 38.5 -73.5s13 -55.333 13 -84z" />
    <glyph glyph-name="divide" unicode="&#xf7;" horiz-adv-x="362" 
d="M315 392h-257v-41h257v41zM220 251c0 10 -3.5 18.5 -10.5 25.5s-15.5 10.5 -25.5 10.5s-18.5 -3.5 -25.5 -10.5s-10.5 -15.5 -10.5 -25.5s3.5 -18.5 10.5 -25.5s15.5 -10.5 25.5 -10.5s18.5 3.5 25.5 10.5s10.5 15.5 10.5 25.5zM220 485c0 10 -3.5 18.5 -10.5 25.5
s-15.5 10.5 -25.5 10.5s-18.5 -3.5 -25.5 -10.5s-10.5 -15.5 -10.5 -25.5s3.5 -18.5 10.5 -25.5s15.5 -10.5 25.5 -10.5s18.5 3.5 25.5 10.5s10.5 15.5 10.5 25.5z" />
    <glyph glyph-name="oslash" unicode="&#xf8;" horiz-adv-x="560" 
d="M36 259c0 -24 2.50293 -47.168 7.50293 -69.501s12.333 -43.166 22 -62.499s21 -37.166 34 -53.499s27.5 -29.833 43.5 -40.5l-33 -55h44l20 35c18.667 -8.66699 36.5 -14.834 53.5 -18.501s34.833 -5.5 53.5 -5.5c39.333 0 74.166 7.66699 104.499 23
s55.833 35.5 76.5 60.5s36.334 53.833 47.001 86.5s16 66 16 100c0 42 -7.5 81.5 -22.5 118.5s-36.167 67.833 -63.5 92.5l47 80h-44l-33 -56c-20.667 11.333 -41.334 20.166 -62.001 26.499s-42.667 9.5 -66 9.5c-39.333 0 -74.333 -7.66699 -105 -23
s-56.334 -35.666 -77.001 -60.999s-36.334 -54.333 -47.001 -87s-16 -66 -16 -100zM281.003 29.999c-32.667 0 -61.333 6 -86 18l223 387c22.667 -23.333 39.5 -50.5 50.5 -81.5s16.5 -62.5 16.5 -94.5c0 -28.667 -4.33301 -56.667 -13 -84s-21.5 -51.833 -38.5 -73.5
s-38.167 -39 -63.5 -52s-55 -19.5 -89 -19.5zM281.004 488.999c43.333 0 79.333 -10.334 108 -31.001l-226 -391c-14 10 -26.5 22 -37.5 36s-20 29.333 -27 46s-12.333 34.334 -16 53.001s-5.5 37.667 -5.5 57c0 28.667 4.16699 56.667 12.5 84s21 51.833 38 73.5
s38.333 39.167 64 52.5s55.5 20 89.5 20z" />
    <glyph glyph-name="ugrave" unicode="&#xf9;" horiz-adv-x="577" 
d="M282 603l28 29l-124 125l-30 -29zM464 515h-102.001v-35h61v-347c0 -4.66699 -2.83301 -12.667 -8.5 -24s-14.334 -23 -26.001 -35s-26.167 -22.5 -43.5 -31.5s-37.666 -13.5 -60.999 -13.5c-42.667 0 -76.667 10.333 -102 31s-38 57 -38 109v346h-102v-35h61v-320
c0 -56 15.5 -98.667 46.5 -128s75.833 -44 134.5 -44c18.667 0 35.334 2 50.001 6s27.5 9 38.5 15s20.667 13 29 21s15.5 16 21.5 24v-54h102v36h-61v479z" />
    <glyph glyph-name="uacute" unicode="&#xfa;" horiz-adv-x="577" 
d="M390 728l-30 29l-124 -125l28 -29zM464 515h-102.001v-35h61v-347c0 -4.66699 -2.83301 -12.667 -8.5 -24s-14.334 -23 -26.001 -35s-26.167 -22.5 -43.5 -31.5s-37.666 -13.5 -60.999 -13.5c-42.667 0 -76.667 10.333 -102 31s-38 57 -38 109v346h-102v-35h61v-320
c0 -56 15.5 -98.667 46.5 -128s75.833 -44 134.5 -44c18.667 0 35.334 2 50.001 6s27.5 9 38.5 15s20.667 13 29 21s15.5 16 21.5 24v-54h102v36h-61v479z" />
    <glyph glyph-name="ucircumflex" unicode="&#xfb;" horiz-adv-x="577" 
d="M261 735l-117 -119l23 -22l106 105l106 -105l22 23l-116 118h-24zM464 515h-102.001v-35h61v-347c0 -4.66699 -2.83301 -12.667 -8.5 -24s-14.334 -23 -26.001 -35s-26.167 -22.5 -43.5 -31.5s-37.666 -13.5 -60.999 -13.5c-42.667 0 -76.667 10.333 -102 31
s-38 57 -38 109v346h-102v-35h61v-320c0 -56 15.5 -98.667 46.5 -128s75.833 -44 134.5 -44c18.667 0 35.334 2 50.001 6s27.5 9 38.5 15s20.667 13 29 21s15.5 16 21.5 24v-54h102v36h-61v479z" />
    <glyph glyph-name="udieresis" unicode="&#xfc;" horiz-adv-x="577" 
d="M240 659c0 9.33301 -3 17 -9 23s-13.667 9 -23 9s-17 -3 -23 -9s-9 -13.667 -9 -23s3 -17 9 -23s13.667 -9 23 -9s17 3 23 9s9 13.667 9 23zM378 659c0 9.33301 -3 17 -9 23s-13.667 9 -23 9s-17 -3 -23 -9s-9 -13.667 -9 -23s3 -17 9 -23s13.667 -9 23 -9s17 3 23 9
s9 13.667 9 23zM464 515h-102.001v-35h61v-347c0 -4.66699 -2.83301 -12.667 -8.5 -24s-14.334 -23 -26.001 -35s-26.167 -22.5 -43.5 -31.5s-37.666 -13.5 -60.999 -13.5c-42.667 0 -76.667 10.333 -102 31s-38 57 -38 109v346h-102v-35h61v-320
c0 -56 15.5 -98.667 46.5 -128s75.833 -44 134.5 -44c18.667 0 35.334 2 50.001 6s27.5 9 38.5 15s20.667 13 29 21s15.5 16 21.5 24v-54h102v36h-61v479z" />
    <glyph glyph-name="yacute" unicode="&#xfd;" horiz-adv-x="565" 
d="M207 480v35h-173v-35h63l171 -422l-88 -225h-66v-36h172v36h-64l257 647h53v35h-154v-35h58l-144 -367l-149 367h64zM426 728l-29 29l-125 -125l29 -29z" />
    <glyph glyph-name="thorn" unicode="&#xfe;" horiz-adv-x="581" 
d="M130 415l0.000976562 299.005h61v36h-163v-36h61v-858h-61v-36h163v36h-61v244c6.66699 -12.667 15.334 -25.667 26.001 -39s23.667 -25.333 39 -36s33.333 -19.334 54 -26.001s44.334 -10 71.001 -10c39.333 0 73.333 7.66699 102 23s52.5 35.666 71.5 60.999
s33.167 54.166 42.5 86.499s14 65.833 14 100.5c0 34 -4.66699 67.167 -14 99.5s-23.5 61.166 -42.5 86.499s-42.833 45.666 -71.5 60.999s-62.667 23 -102 23c-26 0 -49.333 -3.33301 -70 -10s-38.834 -15.5 -54.501 -26.5s-28.834 -23.333 -39.501 -37
s-19.334 -27.5 -26.001 -41.5zM509.001 260.005c0 -28.667 -3.82812 -56.834 -11.4951 -84.501s-19.334 -52.167 -35.001 -73.5s-35.334 -38.666 -59.001 -51.999s-51.5 -20 -83.5 -20c-31.333 0 -58.833 6.66699 -82.5 20s-43.5 30.666 -59.5 51.999s-28 45.833 -36 73.5
s-12 55.834 -12 84.501s3.66699 56.834 11 84.501s18.666 52.167 33.999 73.5s34.666 38.5 57.999 51.5s51 19.5 83 19.5c31.333 0 59 -6.5 83 -19.5s44.167 -30.167 60.5 -51.5s28.666 -45.833 36.999 -73.5s12.5 -55.834 12.5 -84.501z" />
    <glyph glyph-name="ydieresis" unicode="&#xff;" horiz-adv-x="565" 
d="M254 659c0 9.33301 -3 17 -9 23s-13.667 9 -23 9s-17 -3 -23 -9s-9 -13.667 -9 -23s3 -17 9 -23s13.667 -9 23 -9s17 3 23 9s9 13.667 9 23zM392 659c0 9.33301 -3 17 -9 23s-13.667 9 -23 9s-17 -3 -23 -9s-9 -13.667 -9 -23s3 -17 9 -23s13.667 -9 23 -9s17 3 23 9
s9 13.667 9 23zM207 480v35h-173v-35h63l171 -422l-88 -225h-66v-36h172v36h-64l257 647h53v35h-154v-35h58l-144 -367l-149 367h64z" />
    <glyph glyph-name="OE" unicode="&#x152;" horiz-adv-x="1114" 
d="M404 38c-43.333 0 -84.333 8.33301 -123 25s-72.5 39.5 -101.5 68.5s-51.833 62.833 -68.5 101.5s-25 79.667 -25 123c0 44 8.33301 85.167 25 123.5s39.5 72 68.5 101s62.833 51.833 101.5 68.5s79.667 25 123 25c44 0 85.333 -8.33301 124 -25s72.5 -39.5 101.5 -68.5
s51.833 -62.667 68.5 -101s25 -79.5 25 -123.5c0 -43.333 -8.33301 -84.333 -25 -123s-39.5 -72.5 -68.5 -101.5s-62.833 -51.833 -101.5 -68.5s-80 -25 -124 -25zM725 533c-16 28 -35.167 53.667 -57.5 77s-47.333 43.333 -75 60s-57.334 29.5 -89.001 38.5
s-64.834 13.5 -99.501 13.5c-50.667 0 -98.167 -9.66699 -142.5 -29s-83 -45.5 -116 -78.5s-59.167 -71.667 -78.5 -116s-29 -91.833 -29 -142.5s9.66699 -98.167 29 -142.5s45.5 -83 78.5 -116s71.667 -59.167 116 -78.5s91.833 -29 142.5 -29
c34.667 0 67.834 4.5 99.501 13.5s61.334 21.833 89.001 38.5s52.667 36.667 75 60s41.5 49 57.5 77v-137h-76v-42h419v120h-41v-78h-254v334h192v-51h39v144h-39v-51h-192v254h254v-75h41v117h-419v-42h76v-139z" />
    <glyph glyph-name="oe" unicode="&#x153;" horiz-adv-x="990" 
d="M485 259c0 -28.667 -4.33301 -56.667 -13 -84s-21.5 -51.833 -38.5 -73.5s-38.167 -39 -63.5 -52s-55 -19.5 -89 -19.5s-63.833 6.5 -89.5 19.5s-47 30.333 -64 52s-29.667 46.167 -38 73.5s-12.5 55.333 -12.5 84s4.16699 56.667 12.5 84s21 51.833 38 73.5
s38.333 39.167 64 52.5s55.5 20 89.5 20s63.667 -6.66699 89 -20s46.5 -30.833 63.5 -52.5s29.833 -46.167 38.5 -73.5s13 -55.333 13 -84zM910 294h-380.001c0.666992 22 5.5 44.5 14.5 67.5s21.5 43.833 37.5 62.5s35.333 34 58 46s48 18 76 18c28.667 0 54.667 -6 78 -18
s43.333 -27.5 60 -46.5s29.834 -39.833 39.501 -62.5s15.167 -45 16.5 -67zM280.999 -11c27.333 0 52.499 3.83105 75.499 11.498s43.667 18.167 62 31.5s34.333 28.833 48 46.5s24.5 36.5 32.5 56.5c8 -20 18.5 -39 31.5 -57s28.5 -33.833 46.5 -47.5
s38.667 -24.5 62 -32.5s49 -12 77 -12c32 0 60 3.5 84 10.5s44.667 16.167 62 27.5s32 24.166 44 38.499s22.667 28.833 32 43.5l-35 23c-8.66699 -12.667 -18.167 -25 -28.5 -37s-22.833 -22.833 -37.5 -32.5s-31.834 -17.5 -51.501 -23.5s-43.167 -9 -70.5 -9
c-29.333 0 -55.666 6.5 -78.999 19.5s-43 30.167 -59 51.5s-28.333 45.5 -37 72.5s-13 54.5 -13 82.5h431c0.666992 4.66699 1 9.33398 1 14.001v17c0 30 -5.66699 59.5 -17 88.5s-27.666 55.167 -48.999 78.5s-47 42.166 -77 56.499s-63.333 21.5 -100 21.5
c-50 0 -93.5 -13.667 -130.5 -41s-65.5 -62.666 -85.5 -105.999c-8.66699 20 -19.667 39 -33 57s-29.333 33.833 -48 47.5s-39.5 24.334 -62.5 32.001s-48.167 11.5 -75.5 11.5c-39.333 0 -74.333 -7.66699 -105 -23s-56.334 -35.666 -77.001 -60.999
s-36.334 -54.333 -47.001 -87s-16 -66 -16 -100s5.33301 -67.333 16 -100s26.334 -61.5 47.001 -86.5s46.334 -45.167 77.001 -60.5s65.667 -23 105 -23z" />
    <glyph glyph-name="Scaron" unicode="&#x160;" horiz-adv-x="480" 
d="M438 553l-0.00292969 152h-42v-37c-6 6 -12.667 11.833 -20 17.5s-16.333 11 -27 16s-23.167 9 -37.5 12s-31.166 4.5 -50.499 4.5c-24 0 -47.167 -4.16699 -69.5 -12.5s-41.833 -20 -58.5 -35s-30 -32.833 -40 -53.5s-15 -43.334 -15 -68.001c0 -28 4 -51.333 12 -70
s19.333 -34.667 34 -48s31.667 -24.666 51 -33.999s40.666 -18.333 63.999 -27c24 -8.66699 46.333 -17.5 67 -26.5s38.667 -19.833 54 -32.5s27.5 -27.834 36.5 -45.501s13.5 -39.5 13.5 -65.5c0 -24.667 -4.16699 -46.834 -12.5 -66.501s-20 -36.5 -35 -50.5
s-32.5 -24.667 -52.5 -32s-41.333 -11 -64 -11c-22 0 -41.5 3.16699 -58.5 9.5s-32.333 14.666 -46 24.999s-25.5 21.833 -35.5 34.5s-18.333 25.334 -25 38.001v58h-42v-205h42v70c14.667 -19.333 35.834 -37.166 63.501 -53.499s61.5 -24.5 101.5 -24.5
c32.667 0 62.167 5.33301 88.5 16s48.666 25.167 66.999 43.5s32.333 40.166 42 65.499s14.5 53 14.5 83c0 31.333 -5.33301 58.5 -16 81.5s-25.167 42.833 -43.5 59.5s-39.666 30.834 -63.999 42.501s-49.833 22.167 -76.5 31.5c-20 6.66699 -38.167 13.834 -54.5 21.501
s-30.166 16.5 -41.499 26.5s-20.166 22 -26.499 36s-9.5 30.667 -9.5 50c0 38 13 67.667 39 89s58 32 96 32c34.667 0 63 -7 85 -21s38.667 -29.667 50 -47v-49h42zM273.997 742l93 94l-18 19l-86 -84l-84 84l-17 -20l93 -93h19z" />
    <glyph glyph-name="scaron" unicode="&#x161;" horiz-adv-x="386" 
d="M326 142c0 -34.667 -12.001 -61.166 -36.001 -79.499s-55 -27.5 -93 -27.5c-28 0 -52.833 4.83301 -74.5 14.5s-40.5 21.5 -56.5 35.5v51h-35v-136h35v36c16.667 -13.333 35.834 -23.666 57.501 -30.999s46.167 -11 73.5 -11c23.333 0 45.166 3.33301 65.499 10
s38.166 16.167 53.499 28.5s27.5 27.666 36.5 45.999s13.5 39.5 13.5 63.5c0 23.333 -4.33301 43.333 -13 60s-20.5 30.667 -35.5 42s-33 21 -54 29s-43.833 15.333 -68.5 22c-38 10 -65.833 22.333 -83.5 37s-26.5 36.667 -26.5 66c0 30 10.667 53.333 32 70s48 25 80 25
c28.667 0 52.834 -5.16699 72.501 -15.5s36.834 -22.166 51.501 -35.499v-38h36v119h-36v-34c-12 10.667 -28 20.167 -48 28.5s-45.333 12.5 -76 12.5c-22 0 -42.5 -3.33301 -61.5 -10s-35.167 -15.834 -48.5 -27.501s-23.833 -25.667 -31.5 -42s-11.5 -33.833 -11.5 -52.5
c0 -21.333 3.66699 -40 11 -56s17.5 -29.667 30.5 -41s28.833 -21 47.5 -29s39.334 -14.667 62.001 -20c20 -5.33301 38 -10.833 54 -16.5s29.667 -12.667 41 -21s20.166 -18.333 26.499 -30s9.5 -25.834 9.5 -42.501zM216.999 591.001l116 118l-23 23l-107 -105l-105 105
l-22 -24l117 -117h24z" />
    <glyph glyph-name="Ydieresis" unicode="&#x178;" horiz-adv-x="569" 
d="M247 797c0 9.33301 -3 17 -9 23s-13.667 9 -23 9s-17 -3 -23 -9s-9 -13.667 -9 -23s3 -17 9 -23s13.667 -9 23 -9s17 3 23 9s9 13.667 9 23zM385 797c0 9.33301 -3 17 -9 23s-13.667 9 -23 9s-17 -3 -23 -9s-9 -13.667 -9 -23s3 -17 9 -23s13.667 -9 23 -9s17 3 23 9
s9 13.667 9 23zM180 714h-150v-42h55l176 -310v-320h-56v-42h160v42h-56v320l176 310h57v42h-151v-42h46l-152 -271l-152 271h47v42z" />
    <glyph glyph-name="florin" unicode="&#x192;" horiz-adv-x="589" 
d="M547 481h-481v-481h481v481z" />
    <glyph glyph-name="circumflex" unicode="&#x2c6;" horiz-adv-x="352" 
d="M166 735l-117 -119l23 -22l107 105l105 -105l22 23l-116 118h-24z" />
    <glyph glyph-name="tilde" unicode="&#x2dc;" horiz-adv-x="433" 
d="M57 634l27.9971 -23c5.33301 6.66699 12.833 14 22.5 22s23.5 12 41.5 12c15.333 0 26.833 -2.16699 34.5 -6.5s16.167 -9.83301 25.5 -16.5c8.66699 -6 18.5 -11.667 29.5 -17s25.833 -8 44.5 -8c24.667 0 44.334 5.33301 59.001 16s26.667 21 36 31l-29 22
c-6 -6 -13.667 -12.333 -23 -19s-23.666 -10 -42.999 -10c-11.333 0 -21.666 2.5 -30.999 7.5s-19.333 11.167 -30 18.5c-8 5.33301 -17.5 10.333 -28.5 15s-24.167 7 -39.5 7c-14 0 -26.333 -1.83301 -37 -5.5s-20 -8 -28 -13s-14.5 -10.5 -19.5 -16.5
s-9.16699 -11.333 -12.5 -16z" />
    <glyph glyph-name="endash" unicode="&#x2013;" horiz-adv-x="413" 
d="M373 290h-331v-41h331v41z" />
    <glyph glyph-name="emdash" unicode="&#x2014;" horiz-adv-x="842" 
d="M782 290h-720v-41h720v41z" />
    <glyph glyph-name="quoteleft" unicode="&#x2018;" horiz-adv-x="163" 
d="M110 542v71.001h-33v49c0 16 2 29.167 6 39.5s8 19.166 12 26.499h-29c-4 -7.33301 -7.83301 -16 -11.5 -26s-5.5 -23.333 -5.5 -40v-120h61z" />
    <glyph glyph-name="quoteright" unicode="&#x2019;" horiz-adv-x="182" 
d="M69 737v-71.001h33v-49c0 -16 -2 -29.167 -6 -39.5s-8 -19.166 -12 -26.499h29c4 7.33301 7.83301 16 11.5 26s5.5 23.333 5.5 40v120h-61z" />
    <glyph glyph-name="quotesinglbase" unicode="&#x201a;" horiz-adv-x="184" 
d="M69 161v-71.001h33v-49c0 -16 -2 -29.167 -6 -39.5s-8 -19.166 -12 -26.499h29c4 7.33301 7.83301 16 11.5 26s5.5 23.333 5.5 40v120h-61z" />
    <glyph glyph-name="quotedblleft" unicode="&#x201c;" horiz-adv-x="286" 
d="M110 542v71.001h-33v49c0 16 2 29.167 6 39.5s8 19.166 12 26.499h-29c-4 -7.33301 -7.83301 -16 -11.5 -26s-5.5 -23.333 -5.5 -40v-120h61zM239 542.001v71.001h-33v49c0 16 2 29.167 6 39.5s8 19.166 12 26.499h-29c-4 -7.33301 -7.83301 -16 -11.5 -26
s-5.5 -23.333 -5.5 -40v-120h61z" />
    <glyph glyph-name="quotedblright" unicode="&#x201d;" horiz-adv-x="301" 
d="M188 737v-71.001h33v-49c0 -16 -2 -29.167 -6 -39.5s-8 -19.166 -12 -26.499h29c4 7.33301 7.83301 16 11.5 26s5.5 23.333 5.5 40v120h-61zM59 736.999v-71.001h33v-49c0 -16 -2 -29.167 -6 -39.5s-8 -19.166 -12 -26.499h29c4 7.33301 7.83301 16 11.5 26
s5.5 23.333 5.5 40v120h-61z" />
    <glyph glyph-name="quotedblbase" unicode="&#x201e;" horiz-adv-x="301" 
d="M194 161v-71.001h33v-49c0 -16 -2 -29.167 -6 -39.5s-8 -19.166 -12 -26.499h29c4 7.33301 7.83301 16 11.5 26s5.5 23.333 5.5 40v120h-61zM65 160.999v-71.001h33v-49c0 -16 -2 -29.167 -6 -39.5s-8 -19.166 -12 -26.499h29c4 7.33301 7.83301 16 11.5 26
s5.5 23.333 5.5 40v120h-61z" />
    <glyph glyph-name="dagger" unicode="&#x2020;" horiz-adv-x="269" 
d="M121 124h31v449h90v31h-90v126h-31v-126h-89v-31h89v-449z" />
    <glyph glyph-name="daggerdbl" unicode="&#x2021;" horiz-adv-x="265" 
d="M121 76h31v313h90v30h-90v149h90v31h-90v131h-31v-131h-89v-31h89v-149h-89v-30h89v-313z" />
    <glyph glyph-name="bullet" unicode="&#x2022;" horiz-adv-x="332" 
d="M291 297c0 16.667 -3.33301 32.667 -10 48s-15.667 28.5 -27 39.5s-24.5 19.833 -39.5 26.5s-31.167 10 -48.5 10s-33.5 -3.33301 -48.5 -10s-28 -15.5 -39 -26.5s-19.833 -24.167 -26.5 -39.5s-10 -31.333 -10 -48c0 -17.333 3.33301 -33.5 10 -48.5s15.5 -28 26.5 -39
s24 -19.833 39 -26.5s31.167 -10 48.5 -10s33.5 3.33301 48.5 10s28.167 15.5 39.5 26.5s20.333 24 27 39s10 31.167 10 48.5z" />
    <glyph glyph-name="ellipsis" unicode="&#x2026;" horiz-adv-x="463" 
d="M119 32c0 10 -3.5 18.5 -10.5 25.5s-15.5 10.5 -25.5 10.5s-18.5 -3.5 -25.5 -10.5s-10.5 -15.5 -10.5 -25.5s3.5 -18.5 10.5 -25.5s15.5 -10.5 25.5 -10.5s18.5 3.5 25.5 10.5s10.5 15.5 10.5 25.5zM276 32c0 10 -3.5 18.5 -10.5 25.5s-15.5 10.5 -25.5 10.5
s-18.5 -3.5 -25.5 -10.5s-10.5 -15.5 -10.5 -25.5s3.5 -18.5 10.5 -25.5s15.5 -10.5 25.5 -10.5s18.5 3.5 25.5 10.5s10.5 15.5 10.5 25.5zM433 32c0 10 -3.5 18.5 -10.5 25.5s-15.5 10.5 -25.5 10.5s-18.5 -3.5 -25.5 -10.5s-10.5 -15.5 -10.5 -25.5s3.5 -18.5 10.5 -25.5
s15.5 -10.5 25.5 -10.5s18.5 3.5 25.5 10.5s10.5 15.5 10.5 25.5z" />
    <glyph glyph-name="perthousand" unicode="&#x2030;" horiz-adv-x="1291" 
d="M1064 376c-26.667 0 -51.834 -5.16699 -75.501 -15.5s-44.334 -24.333 -62.001 -42s-31.667 -38.334 -42 -62.001s-15.5 -48.834 -15.5 -75.501c0 -27.333 5.16699 -52.666 15.5 -75.999s24.333 -43.666 42 -60.999s38.334 -31 62.001 -41s48.834 -15 75.501 -15
s51.834 5 75.501 15s44.334 23.667 62.001 41s31.667 37.666 42 60.999s15.5 48.666 15.5 75.999c0 26.667 -5.16699 51.834 -15.5 75.501s-24.333 44.334 -42 62.001s-38.334 31.667 -62.001 42s-48.834 15.5 -75.501 15.5zM1064 23c-21.333 0 -41.5 4.16699 -60.5 12.5
s-35.833 19.666 -50.5 33.999s-26.167 31.166 -34.5 50.499s-12.5 39.666 -12.5 60.999s4.16699 41.5 12.5 60.5s19.833 35.833 34.5 50.5s31.5 26.167 50.5 34.5s39.167 12.5 60.5 12.5s41.666 -4.16699 60.999 -12.5s36.166 -19.833 50.499 -34.5
s25.666 -31.5 33.999 -50.5s12.5 -39.167 12.5 -60.5s-4.16699 -41.666 -12.5 -60.999s-19.666 -36.166 -33.999 -50.499s-31.166 -25.666 -50.499 -33.999s-39.666 -12.5 -60.999 -12.5zM180 0l536 714h-39l-537 -714h40zM214 712
c-26.667 0 -51.834 -5.16699 -75.501 -15.5s-44.334 -24.333 -62.001 -42s-31.667 -38.334 -42 -62.001s-15.5 -48.834 -15.5 -75.501s5.16699 -51.667 15.5 -75s24.333 -43.833 42 -61.5s38.334 -31.5 62.001 -41.5s48.834 -15 75.501 -15s51.834 5 75.501 15
s44.334 23.833 62.001 41.5s31.667 38.167 42 61.5s15.5 48.333 15.5 75s-5.16699 51.834 -15.5 75.501s-24.333 44.334 -42 62.001s-38.334 31.667 -62.001 42s-48.834 15.5 -75.501 15.5zM214 360c-21.333 0 -41.5 4.16699 -60.5 12.5s-35.833 19.666 -50.5 33.999
s-26.167 31 -34.5 50s-12.5 39.167 -12.5 60.5s4.16699 41.666 12.5 60.999s19.833 36.166 34.5 50.499s31.5 25.666 50.5 33.999s39.167 12.5 60.5 12.5s41.666 -4.16699 60.999 -12.5s36.166 -19.666 50.499 -33.999s25.666 -31.166 33.999 -50.499
s12.5 -39.666 12.5 -60.999s-4.16699 -41.5 -12.5 -60.5s-19.666 -35.667 -33.999 -50s-31.166 -25.666 -50.499 -33.999s-39.666 -12.5 -60.999 -12.5zM625 376c-26.667 0 -51.834 -5.16699 -75.501 -15.5s-44.167 -24.333 -61.5 -42s-31.166 -38.334 -41.499 -62.001
s-15.5 -48.834 -15.5 -75.501c0 -27.333 5.16699 -52.666 15.5 -75.999s24.166 -43.666 41.499 -60.999s37.833 -31 61.5 -41s48.834 -15 75.501 -15s52 5 76 15s44.667 23.667 62 41s31.166 37.666 41.499 60.999s15.5 48.666 15.5 75.999
c0 26.667 -5.16699 51.834 -15.5 75.501s-24.166 44.334 -41.499 62.001s-38 31.667 -62 42s-49.333 15.5 -76 15.5zM625 23c-21.333 0 -41.5 4.16699 -60.5 12.5s-35.833 19.666 -50.5 33.999s-26.167 31.166 -34.5 50.499s-12.5 39.666 -12.5 60.999
s4.16699 41.5 12.5 60.5s19.833 35.833 34.5 50.5s31.5 26.167 50.5 34.5s39.167 12.5 60.5 12.5s41.666 -4.16699 60.999 -12.5s36.166 -19.833 50.499 -34.5s25.833 -31.5 34.5 -50.5s13 -39.167 13 -60.5s-4.33301 -41.666 -13 -60.999s-20.167 -36.166 -34.5 -50.499
s-31.166 -25.666 -50.499 -33.999s-39.666 -12.5 -60.999 -12.5z" />
    <glyph glyph-name="guilsinglleft" unicode="&#x2039;" horiz-adv-x="290" 
d="M217 70l18 18l-170 169l171 171l-18 17l-187 -188z" />
    <glyph glyph-name="guilsinglright" unicode="&#x203a;" horiz-adv-x="290" 
d="M49 429l171 -172l-170 -170l17 -18l188 188l-189 189z" />
    <glyph glyph-name="trademark" unicode="&#x2122;" horiz-adv-x="337" 
d="M148 706h-109v-6h51v-154h7v154h51v6zM179 708l-36 -161h7l30 138l50 -146l50 146l28 -138h7l-33 161l-52 -148z" />
    <glyph glyph-name="NUL" unicode="&#xe000;" horiz-adv-x="0" 
 />
    <glyph glyph-name="HT" unicode="&#xe001;" horiz-adv-x="0" 
 />
    <glyph glyph-name="nonmarkingreturn" unicode="&#xe002;" horiz-adv-x="0" 
 />
    <glyph glyph-name="minus" unicode="&#xe003;" horiz-adv-x="390" 
d="M352 392h-300v-41h300v41z" />
    <glyph glyph-name="notequal" unicode="&#xe004;" horiz-adv-x="347" 
d="M67 412h110l-25 -81h-85v-41h74l-24 -77h40l24 77h113v41h-101l23 81h78v41h-65l19 67h-40l-19 -67h-122v-41z" />
    <glyph glyph-name="lessequal" unicode="&#xe005;" horiz-adv-x="316" 
d="M289 211h-245v-41h245v41zM257 542l-200 -157l197 -155l24 24l-167 131l170 132z" />
    <glyph glyph-name="greaterequal" unicode="&#xe006;" horiz-adv-x="294" 
d="M27 170h244v41h-244v-41zM38 254l23 -24l197 155l-200 157l-23 -25l169 -132z" />
    <glyph glyph-name="partialdiff" unicode="&#xe007;" 
d="M255 391h-233v-20h233v20zM155 753h-45v-17h27v-288h-27v-16h73v16h-28v305zM48 250l19.0059 0.00195312c0.666992 6 2.5 12.167 5.5 18.5s7.5 12.166 13.5 17.499s13.667 9.66602 23 12.999s20.666 5 33.999 5c22.667 0 41.167 -5.5 55.5 -16.5s21.5 -26.5 21.5 -46.5
c0 -11.333 -2.16699 -20.833 -6.5 -28.5s-9.66602 -14 -15.999 -19s-13.5 -8.66699 -21.5 -11s-16 -3.5 -24 -3.5h-28v-19h28c17.333 0 33.333 -6.66699 48 -20s22 -32.333 22 -57c0 -13.333 -2.5 -24.666 -7.5 -33.999s-11.333 -16.833 -19 -22.5
s-16.334 -9.66699 -26.001 -12s-18.834 -3.5 -27.501 -3.5c-23.333 0 -41.5 5 -54.5 15s-21.167 22.667 -24.5 38h-19c3.33301 -18.667 12.666 -35.167 27.999 -49.5s39 -21.5 71 -21.5c12 0 23.833 1.66699 35.5 5s22 8.66602 31 15.999s16.333 16.666 22 27.999
s8.5 25 8.5 41c0 25.333 -6 45 -18 59s-24.667 23 -38 27c5.33301 0.666992 11.166 2.83398 17.499 6.50098s12.166 8.5 17.499 14.5s9.83301 13.333 13.5 22s5.5 18.334 5.5 29.001c0 23.333 -8.5 42.666 -25.5 57.999s-40.167 23 -69.5 23
c-16.667 0 -30.834 -2.33301 -42.501 -7s-21.167 -10.5 -28.5 -17.5s-13 -14.667 -17 -23s-6.33301 -16.5 -7 -24.5z" />
    <glyph glyph-name="summation" unicode="&#xe008;" 
d="M258 391h-232v-20h232v20zM150 754h-45v-17h27v-288h-27v-16h73v16h-28v305zM199 97v230h-14l-163 -235v-13h158v-59h-18v-19h55v19h-18v59h29v18h-29zM180 97h-132l132 190v-190z" />
    <glyph glyph-name="product" unicode="&#xe009;" 
d="M255 391h-233v-20h233v20zM47 673h20.002c4 15.333 11.5 28.833 22.5 40.5s28.167 17.5 51.5 17.5s41.666 -5.83301 54.999 -17.5s20 -25.834 20 -42.501c0 -19.333 -6.33301 -35.166 -19 -47.499s-28 -25.5 -46 -39.5l-32 -25
c-10.667 -8.66699 -20.5 -17.834 -29.5 -27.501s-17 -20 -24 -31s-11.833 -23.5 -14.5 -37.5l-8 -38h192v19h-165l3 16c6 24.667 17.667 45.167 35 61.5s35.666 32.166 54.999 47.499c18 14.667 34.5 29.834 49.5 45.501s22.5 34.5 22.5 56.5
c0 20.667 -7.83301 38.834 -23.5 54.501s-39.167 23.5 -70.5 23.5c-15.333 0 -28.5 -2.33301 -39.5 -7s-20.333 -10.5 -28 -17.5s-13.5 -15.167 -17.5 -24.5s-7 -18.333 -9 -27zM47.002 250l19.0059 0.00195312c0.666992 6 2.5 12.167 5.5 18.5s7.5 12.166 13.5 17.499
s13.667 9.66602 23 12.999s20.666 5 33.999 5c22.667 0 41.167 -5.5 55.5 -16.5s21.5 -26.5 21.5 -46.5c0 -11.333 -2.16699 -20.833 -6.5 -28.5s-9.66602 -14 -15.999 -19s-13.5 -8.66699 -21.5 -11s-16 -3.5 -24 -3.5h-28v-19h28c17.333 0 33.333 -6.66699 48 -20
s22 -32.333 22 -57c0 -13.333 -2.5 -24.666 -7.5 -33.999s-11.333 -16.833 -19 -22.5s-16.334 -9.66699 -26.001 -12s-18.834 -3.5 -27.501 -3.5c-23.333 0 -41.5 5 -54.5 15s-21.167 22.667 -24.5 38h-19c3.33301 -18.667 12.666 -35.167 27.999 -49.5s39 -21.5 71 -21.5
c12 0 23.833 1.66699 35.5 5s22 8.66602 31 15.999s16.333 16.666 22 27.999s8.5 25 8.5 41c0 25.333 -6 45 -18 59s-24.667 23 -38 27c5.33301 0.666992 11.166 2.83398 17.499 6.50098s12.166 8.5 17.499 14.5s9.83301 13.333 13.5 22s5.5 18.334 5.5 29.001
c0 23.333 -8.5 42.666 -25.5 57.999s-40.167 23 -69.5 23c-16.667 0 -30.834 -2.33301 -42.501 -7s-21.167 -10.5 -28.5 -17.5s-13 -14.667 -17 -23s-6.33301 -16.5 -7 -24.5z" />
    <glyph glyph-name="pi" unicode="&#xe00a;" 
d="M258 391h-232v-20h232v20zM46 681l19.0059 0.00195312c0.666992 6 2.5 12.167 5.5 18.5s7.5 12.166 13.5 17.499s13.667 9.66602 23 12.999s20.666 5 33.999 5c22.667 0 41.167 -5.5 55.5 -16.5s21.5 -26.5 21.5 -46.5c0 -11.333 -2.16699 -20.833 -6.5 -28.5
s-9.66602 -14 -15.999 -19s-13.5 -8.66699 -21.5 -11s-16 -3.5 -24 -3.5h-28v-19h28c17.333 0 33.333 -6.66699 48 -20s22 -32.333 22 -57c0 -13.333 -2.5 -24.666 -7.5 -33.999s-11.333 -16.833 -19 -22.5s-16.334 -9.66699 -26.001 -12s-18.834 -3.5 -27.501 -3.5
c-23.333 0 -41.5 5 -54.5 15s-21.167 22.667 -24.5 38h-19c3.33301 -18.667 12.666 -35.167 27.999 -49.5s39 -21.5 71 -21.5c12 0 23.833 1.66699 35.5 5s22 8.66602 31 15.999s16.333 16.666 22 27.999s8.5 25 8.5 41c0 25.333 -6 45 -18 59s-24.667 23 -38 27
c5.33301 0.666992 11.166 2.83398 17.499 6.50098s12.166 8.5 17.499 14.5s9.83301 13.333 13.5 22s5.5 18.334 5.5 29.001c0 23.333 -8.5 42.666 -25.5 57.999s-40.167 23 -69.5 23c-16.667 0 -30.834 -2.33301 -42.501 -7s-21.167 -10.5 -28.5 -17.5s-13 -14.667 -17 -23
s-6.33301 -16.5 -7 -24.5zM199.006 97.002v230h-14l-163 -235v-13h158v-59h-18v-19h55v19h-18v59h29v18h-29zM180.006 97.002h-132l132 190v-190z" />
    <glyph glyph-name="integral" unicode="&#xe00b;" horiz-adv-x="791" 
d="M742 689h-688v-688h688v688zM711 658v-626h-626v626h626z" />
    <glyph glyph-name="Omega" unicode="&#xe00c;" 
d="M255 389h-233v-20h233v20zM151 753h-45v-17h27v-288h-27v-16h73v16h-28v305zM45 247h20.002c4 15.333 11.5 28.833 22.5 40.5s28.167 17.5 51.5 17.5s41.666 -5.83301 54.999 -17.5s20 -25.834 20 -42.501c0 -19.333 -6.33301 -35.166 -19 -47.499s-28 -25.5 -46 -39.5
l-32 -25c-10.667 -8.66699 -20.5 -17.834 -29.5 -27.501s-17 -20 -24 -31s-11.833 -23.5 -14.5 -37.5l-8 -38h192v19h-165l3 16c6 24.667 17.667 45.167 35 61.5s35.666 32.166 54.999 47.499c18 14.667 34.5 29.834 49.5 45.501s22.5 34.5 22.5 56.5
c0 20.667 -7.83301 38.834 -23.5 54.501s-39.167 23.5 -70.5 23.5c-15.333 0 -28.5 -2.33301 -39.5 -7s-20.333 -10.5 -28 -17.5s-13.5 -15.167 -17.5 -24.5s-7 -18.333 -9 -27z" />
    <glyph glyph-name="radical" unicode="&#xe00d;" horiz-adv-x="646" 
d="M79 229l-44 -64c11.333 -6 22.833 -15.5 34.5 -28.5s22.667 -27.5 33 -43.5s20.333 -32.667 30 -50s18.167 -33.333 25.5 -48c23.333 44 51.333 88.333 84 133s68.167 87.5 106.5 128.5s78.666 79.333 120.999 115s84.833 66.5 127.5 92.5v102
c-27.333 -14.667 -56.333 -35 -87 -61s-61.167 -55.167 -91.5 -87.5s-59.666 -66 -87.999 -101s-54.166 -69 -77.499 -102s-43.333 -63.167 -60 -90.5s-28 -49.333 -34 -66c-11.333 33.333 -23.833 64.333 -37.5 93s-27.834 54.667 -42.501 78z" />
    <glyph glyph-name="approxequal" unicode="&#xe00e;" horiz-adv-x="775" 
d="M326 273v126h124v-126h-124zM285 541v-100.999h-101c-34 0 -60.333 9.5 -79 28.5s-28 43.5 -28 73.5c0 33.333 9.83301 59.166 29.5 77.499s45.167 27.5 76.5 27.5c34 0 59.5 -10.333 76.5 -31s25.5 -45.667 25.5 -75zM183 399.001l102.002 -0.00292969v-126h-102
c-20 0 -38.833 -3.5 -56.5 -10.5s-33.167 -17 -46.5 -30s-23.833 -28.333 -31.5 -46s-11.5 -36.834 -11.5 -57.501s3.66699 -39.667 11 -57s17.333 -32.333 30 -45s27.667 -22.5 45 -29.5s36.333 -10.5 57 -10.5c24 0 45.167 3.66699 63.5 11s33.666 17.5 45.999 30.5
s21.5 28.333 27.5 46s9 36.5 9 56.5v102h124v-102c0 -20 3.16699 -38.833 9.5 -56.5s15.666 -33 27.999 -46s27.5 -23.167 45.5 -30.5s39 -11 63 -11c20.667 0 39.667 3.66699 57 11s32.333 17.333 45 30s22.667 27.667 30 45s11 36 11 56
c0 20.667 -3.83301 39.834 -11.5 57.501s-18.167 33 -31.5 46s-28.833 23 -46.5 30s-36.5 10.5 -56.5 10.5h-102v126h102c20 0 38.833 3.66699 56.5 11s33.167 17.5 46.5 30.5s23.833 28.333 31.5 46s11.5 36.834 11.5 57.501s-3.66699 39.834 -11 57.501
s-17.333 32.834 -30 45.501s-27.834 22.5 -45.501 29.5s-36.5 10.5 -56.5 10.5c-24 0 -45 -3.83301 -63 -11.5s-33.167 -18 -45.5 -31s-21.666 -28.333 -27.999 -46s-9.5 -36.5 -9.5 -56.5v-102h-124v102c0 20 -3 38.833 -9 56.5s-15.167 33 -27.5 46
s-27.666 23.333 -45.999 31s-39.5 11.5 -63.5 11.5c-20 0 -38.833 -3.83301 -56.5 -11.5s-32.834 -18 -45.501 -31s-22.667 -28.167 -30 -45.5s-11 -35.666 -11 -54.999c0 -21.333 3.66699 -40.833 11 -58.5s17.5 -32.834 30.5 -45.501s28.333 -22.667 46 -30
s37.167 -11 58.5 -11zM592.002 439.998l-101 -0.000976562v101c0 29.333 8.5 54.333 25.5 75s42.5 31 76.5 31c30.667 0 56 -9.16699 76 -27.5s30 -44.166 30 -77.499c0 -30 -9.5 -54.5 -28.5 -73.5s-45.167 -28.5 -78.5 -28.5zM184.002 232.997h101v-101
c0 -30 -8.5 -55.167 -25.5 -75.5s-42.5 -30.5 -76.5 -30.5c-31.333 0 -56.833 9 -76.5 27s-29.5 44 -29.5 78c0 30 9.33301 54.5 28 73.5s45 28.5 79 28.5zM491.002 131.997v101h101c33.333 0 59.5 -9.5 78.5 -28.5s28.5 -43.5 28.5 -73.5c0 -34 -10 -60 -30 -78
s-45.333 -27 -76 -27c-34 0 -59.5 10.167 -76.5 30.5s-25.5 45.5 -25.5 75.5z" />
    <glyph glyph-name="Delta" unicode="&#xe00f;" horiz-adv-x="791" 
d="M745 0l-347 694l-347 -694h694zM398 627l300 -599h-600z" />
    <glyph glyph-name="nonbreakingspace" unicode="&#xe010;" 
 />
    <glyph glyph-name="lozenge" unicode="&#xe011;" horiz-adv-x="408" 
d="M204 414l157 -157l-159 -158l-156 152zM15 253l187 -186l190 190l-188 187z" />
    <glyph glyph-name="apple" unicode="&#xe012;" horiz-adv-x="790" 
d="M275 530c-29.333 0 -55.8311 -4.83203 -79.498 -14.499s-43.667 -23.167 -60 -40.5s-29 -38 -38 -62s-13.5 -50 -13.5 -78c0 -47.333 9 -92 27 -134s39.5 -78.667 64.5 -110s50.667 -56.166 77 -74.499s48.166 -27.5 65.499 -27.5c12.667 0 24.667 2.5 36 7.5
s21.333 12.833 30 23.5c4.66699 5.33301 10.667 9.33301 18 12s14.666 4 21.999 4s14.5 -1.33301 21.5 -4s12.833 -6.66699 17.5 -12c18 -22 42.333 -33 73 -33c26 0 49.5 7.16699 70.5 21.5s39.833 31.833 56.5 52.5s30.834 42.334 42.501 65.001
s21.167 42.334 28.5 59.001c-13.333 4 -26 10 -38 18s-22.833 18 -32.5 30s-17.334 25.833 -23.001 41.5s-8.5 33.167 -8.5 52.5c0 17.333 2.16699 32.666 6.5 45.999s10 25.166 17 35.499s15.333 20 25 29s20.167 17.5 31.5 25.5c-2 10 -7.66699 19.167 -17 27.5
s-20.333 15.5 -33 21.5s-26.667 10.667 -42 14s-30 5 -44 5c-16.667 0 -32.334 -2.16699 -47.001 -6.5s-27 -10.5 -37 -18.5c-13.333 -10.667 -25.166 -17.834 -35.499 -21.501s-20.5 -5.5 -30.5 -5.5s-19 2.16699 -27 6.5s-19 11.166 -33 20.499c-11.333 8 -25 14 -41 18
s-32.667 6 -50 6zM534.002 669.001c-14 0 -28.166 -4.16699 -42.499 -12.5s-27.5 -19 -39.5 -32s-21.833 -27.333 -29.5 -43s-11.5 -31.167 -11.5 -46.5c0 -4 0.666992 -7.83301 2 -11.5s4.66602 -5.5 9.99902 -5.5c16 0 31.333 5 46 15s27.5 22.333 38.5 37
s19.833 30.167 26.5 46.5s10 30.833 10 43.5c0 6 -3.33301 9 -10 9z" />
    </font>
</defs>
</svg>
